ISO-10303-21;
HEADER;
FILE_DESCRIPTION(('FreeCAD Model'),'2;1');
FILE_NAME('Open CASCADE Shape Model','2025-10-16T04:41:49',(''),(''),
  'Open CASCADE STEP processor 7.8','FreeCAD','Unknown');
FILE_SCHEMA(('AUTOMOTIVE_DESIGN { 1 0 10303 214 1 1 1 1 }'));
ENDSEC;
DATA;
#1 = APPLICATION_PROTOCOL_DEFINITION('international standard',
  'automotive_design',2000,#2);
#2 = APPLICATION_CONTEXT(
  'core data for automotive mechanical design processes');
#3 = SHAPE_DEFINITION_REPRESENTATION(#4,#10);
#4 = PRODUCT_DEFINITION_SHAPE('','',#5);
#5 = PRODUCT_DEFINITION('design','',#6,#9);
#6 = PRODUCT_DEFINITION_FORMATION('','',#7);
#7 = PRODUCT('Part','Part','',(#8));
#8 = PRODUCT_CONTEXT('',#2,'mechanical');
#9 = PRODUCT_DEFINITION_CONTEXT('part definition',#2,'design');
#10 = SHAPE_REPRESENTATION('',(#11,#15),#19);
#11 = AXIS2_PLACEMENT_3D('',#12,#13,#14);
#12 = CARTESIAN_POINT('',(0.,0.,0.));
#13 = DIRECTION('',(0.,0.,1.));
#14 = DIRECTION('',(1.,0.,-0.));
#15 = AXIS2_PLACEMENT_3D('',#16,#17,#18);
#16 = CARTESIAN_POINT('',(0.,0.,0.));
#17 = DIRECTION('',(0.,0.,1.));
#18 = DIRECTION('',(1.,0.,0.));
#19 = ( GEOMETRIC_REPRESENTATION_CONTEXT(3) 
GLOBAL_UNCERTAINTY_ASSIGNED_CONTEXT((#23)) GLOBAL_UNIT_ASSIGNED_CONTEXT(
(#20,#21,#22)) REPRESENTATION_CONTEXT('Context #1',
  '3D Context with UNIT and UNCERTAINTY') );
#20 = ( LENGTH_UNIT() NAMED_UNIT(*) SI_UNIT(.MILLI.,.METRE.) );
#21 = ( NAMED_UNIT(*) PLANE_ANGLE_UNIT() SI_UNIT($,.RADIAN.) );
#22 = ( NAMED_UNIT(*) SI_UNIT($,.STERADIAN.) SOLID_ANGLE_UNIT() );
#23 = UNCERTAINTY_MEASURE_WITH_UNIT(LENGTH_MEASURE(1.E-07),#20,
  'distance_accuracy_value','confusion accuracy');
#24 = PRODUCT_RELATED_PRODUCT_CATEGORY('part',$,(#7));
#25 = SHAPE_DEFINITION_REPRESENTATION(#26,#32);
#26 = PRODUCT_DEFINITION_SHAPE('','',#27);
#27 = PRODUCT_DEFINITION('design','',#28,#31);
#28 = PRODUCT_DEFINITION_FORMATION('','',#29);
#29 = PRODUCT('Body','Body','',(#30));
#30 = PRODUCT_CONTEXT('',#2,'mechanical');
#31 = PRODUCT_DEFINITION_CONTEXT('part definition',#2,'design');
#32 = ADVANCED_BREP_SHAPE_REPRESENTATION('',(#11,#33),#871);
#33 = MANIFOLD_SOLID_BREP('',#34);
#34 = CLOSED_SHELL('',(#35,#97,#123,#156,#189,#222,#255,#281,#306,#323,
    #354,#371,#388,#419,#450,#467,#498,#523,#543,#561,#594,#612,#630,
    #661,#692,#710,#739,#759,#784,#795,#821,#832,#843,#854));
#35 = ADVANCED_FACE('',(#36,#47,#81),#92,.F.);
#36 = FACE_BOUND('',#37,.F.);
#37 = EDGE_LOOP('',(#38));
#38 = ORIENTED_EDGE('',*,*,#39,.T.);
#39 = EDGE_CURVE('',#40,#40,#42,.T.);
#40 = VERTEX_POINT('',#41);
#41 = CARTESIAN_POINT('',(4.,-10.,5.));
#42 = CIRCLE('',#43,4.);
#43 = AXIS2_PLACEMENT_3D('',#44,#45,#46);
#44 = CARTESIAN_POINT('',(0.,-10.,5.));
#45 = DIRECTION('',(0.,-1.,0.));
#46 = DIRECTION('',(1.,0.,-2.9E-16));
#47 = FACE_BOUND('',#48,.F.);
#48 = EDGE_LOOP('',(#49,#59,#67,#75));
#49 = ORIENTED_EDGE('',*,*,#50,.F.);
#50 = EDGE_CURVE('',#51,#53,#55,.T.);
#51 = VERTEX_POINT('',#52);
#52 = CARTESIAN_POINT('',(-19.5,-10.,24.5));
#53 = VERTEX_POINT('',#54);
#54 = CARTESIAN_POINT('',(-19.5,-10.,-24.5));
#55 = LINE('',#56,#57);
#56 = CARTESIAN_POINT('',(-19.5,-10.,25.));
#57 = VECTOR('',#58,1.);
#58 = DIRECTION('',(0.,-2.2E-16,-1.));
#59 = ORIENTED_EDGE('',*,*,#60,.F.);
#60 = EDGE_CURVE('',#61,#51,#63,.T.);
#61 = VERTEX_POINT('',#62);
#62 = CARTESIAN_POINT('',(19.5,-10.,24.5));
#63 = LINE('',#64,#65);
#64 = CARTESIAN_POINT('',(20.,-10.,24.5));
#65 = VECTOR('',#66,1.);
#66 = DIRECTION('',(-1.,0.,0.));
#67 = ORIENTED_EDGE('',*,*,#68,.F.);
#68 = EDGE_CURVE('',#69,#61,#71,.T.);
#69 = VERTEX_POINT('',#70);
#70 = CARTESIAN_POINT('',(19.5,-10.,-24.5));
#71 = LINE('',#72,#73);
#72 = CARTESIAN_POINT('',(19.5,-10.,-25.));
#73 = VECTOR('',#74,1.);
#74 = DIRECTION('',(0.,2.2E-16,1.));
#75 = ORIENTED_EDGE('',*,*,#76,.F.);
#76 = EDGE_CURVE('',#53,#69,#77,.T.);
#77 = LINE('',#78,#79);
#78 = CARTESIAN_POINT('',(-20.,-10.,-24.5));
#79 = VECTOR('',#80,1.);
#80 = DIRECTION('',(1.,0.,0.));
#81 = FACE_BOUND('',#82,.F.);
#82 = EDGE_LOOP('',(#83));
#83 = ORIENTED_EDGE('',*,*,#84,.T.);
#84 = EDGE_CURVE('',#85,#85,#87,.T.);
#85 = VERTEX_POINT('',#86);
#86 = CARTESIAN_POINT('',(4.,-10.,-5.));
#87 = CIRCLE('',#88,4.);
#88 = AXIS2_PLACEMENT_3D('',#89,#90,#91);
#89 = CARTESIAN_POINT('',(0.,-10.,-5.));
#90 = DIRECTION('',(0.,-1.,0.));
#91 = DIRECTION('',(1.,0.,2.2E-16));
#92 = PLANE('',#93);
#93 = AXIS2_PLACEMENT_3D('',#94,#95,#96);
#94 = CARTESIAN_POINT('',(0.,-10.,0.));
#95 = DIRECTION('',(0.,1.,2.2E-16));
#96 = DIRECTION('',(0.,-2.2E-16,1.));
#97 = ADVANCED_FACE('',(#98),#118,.T.);
#98 = FACE_BOUND('',#99,.T.);
#99 = EDGE_LOOP('',(#100,#109,#110,#111));
#100 = ORIENTED_EDGE('',*,*,#101,.F.);
#101 = EDGE_CURVE('',#40,#102,#104,.T.);
#102 = VERTEX_POINT('',#103);
#103 = CARTESIAN_POINT('',(3.5,-9.5,5.));
#104 = CIRCLE('',#105,0.5);
#105 = AXIS2_PLACEMENT_3D('',#106,#107,#108);
#106 = CARTESIAN_POINT('',(4.,-9.5,5.));
#107 = DIRECTION('',(-2.9E-16,-0.,-1.));
#108 = DIRECTION('',(1.,0.,-2.9E-16));
#109 = ORIENTED_EDGE('',*,*,#39,.T.);
#110 = ORIENTED_EDGE('',*,*,#101,.T.);
#111 = ORIENTED_EDGE('',*,*,#112,.F.);
#112 = EDGE_CURVE('',#102,#102,#113,.T.);
#113 = CIRCLE('',#114,3.5);
#114 = AXIS2_PLACEMENT_3D('',#115,#116,#117);
#115 = CARTESIAN_POINT('',(0.,-9.5,5.));
#116 = DIRECTION('',(0.,-1.,0.));
#117 = DIRECTION('',(1.,0.,-2.9E-16));
#118 = TOROIDAL_SURFACE('',#119,4.,0.5);
#119 = AXIS2_PLACEMENT_3D('',#120,#121,#122);
#120 = CARTESIAN_POINT('',(0.,-9.5,5.));
#121 = DIRECTION('',(0.,-1.,0.));
#122 = DIRECTION('',(1.,0.,-2.9E-16));
#123 = ADVANCED_FACE('',(#124),#151,.T.);
#124 = FACE_BOUND('',#125,.F.);
#125 = EDGE_LOOP('',(#126,#135,#136,#145));
#126 = ORIENTED_EDGE('',*,*,#127,.F.);
#127 = EDGE_CURVE('',#51,#128,#130,.T.);
#128 = VERTEX_POINT('',#129);
#129 = CARTESIAN_POINT('',(-20.,-9.5,24.5));
#130 = CIRCLE('',#131,0.5);
#131 = AXIS2_PLACEMENT_3D('',#132,#133,#134);
#132 = CARTESIAN_POINT('',(-19.5,-9.5,24.5));
#133 = DIRECTION('',(-7.11E-15,0.,-1.));
#134 = DIRECTION('',(-1.,0.,7.11E-15));
#135 = ORIENTED_EDGE('',*,*,#50,.T.);
#136 = ORIENTED_EDGE('',*,*,#137,.T.);
#137 = EDGE_CURVE('',#53,#138,#140,.T.);
#138 = VERTEX_POINT('',#139);
#139 = CARTESIAN_POINT('',(-20.,-9.5,-24.5));
#140 = CIRCLE('',#141,0.5);
#141 = AXIS2_PLACEMENT_3D('',#142,#143,#144);
#142 = CARTESIAN_POINT('',(-19.5,-9.5,-24.5));
#143 = DIRECTION('',(-7.11E-15,0.,-1.));
#144 = DIRECTION('',(-1.,0.,7.11E-15));
#145 = ORIENTED_EDGE('',*,*,#146,.F.);
#146 = EDGE_CURVE('',#128,#138,#147,.T.);
#147 = LINE('',#148,#149);
#148 = CARTESIAN_POINT('',(-20.,-9.5,25.));
#149 = VECTOR('',#150,1.);
#150 = DIRECTION('',(0.,-2.2E-16,-1.));
#151 = CYLINDRICAL_SURFACE('',#152,0.5);
#152 = AXIS2_PLACEMENT_3D('',#153,#154,#155);
#153 = CARTESIAN_POINT('',(-19.5,-9.5,25.));
#154 = DIRECTION('',(0.,-2.2E-16,-1.));
#155 = DIRECTION('',(-1.,0.,0.));
#156 = ADVANCED_FACE('',(#157),#184,.T.);
#157 = FACE_BOUND('',#158,.F.);
#158 = EDGE_LOOP('',(#159,#168,#169,#178));
#159 = ORIENTED_EDGE('',*,*,#160,.F.);
#160 = EDGE_CURVE('',#61,#161,#163,.T.);
#161 = VERTEX_POINT('',#162);
#162 = CARTESIAN_POINT('',(19.5,-9.5,25.));
#163 = CIRCLE('',#164,0.5);
#164 = AXIS2_PLACEMENT_3D('',#165,#166,#167);
#165 = CARTESIAN_POINT('',(19.5,-9.5,24.5));
#166 = DIRECTION('',(-1.,0.,2.8E-16));
#167 = DIRECTION('',(2.8E-16,0.,1.));
#168 = ORIENTED_EDGE('',*,*,#60,.T.);
#169 = ORIENTED_EDGE('',*,*,#170,.T.);
#170 = EDGE_CURVE('',#51,#171,#173,.T.);
#171 = VERTEX_POINT('',#172);
#172 = CARTESIAN_POINT('',(-19.5,-9.5,25.));
#173 = CIRCLE('',#174,0.5);
#174 = AXIS2_PLACEMENT_3D('',#175,#176,#177);
#175 = CARTESIAN_POINT('',(-19.5,-9.5,24.5));
#176 = DIRECTION('',(-1.,0.,-2.8E-16));
#177 = DIRECTION('',(-2.8E-16,0.,1.));
#178 = ORIENTED_EDGE('',*,*,#179,.F.);
#179 = EDGE_CURVE('',#161,#171,#180,.T.);
#180 = LINE('',#181,#182);
#181 = CARTESIAN_POINT('',(20.,-9.5,25.));
#182 = VECTOR('',#183,1.);
#183 = DIRECTION('',(-1.,0.,0.));
#184 = CYLINDRICAL_SURFACE('',#185,0.5);
#185 = AXIS2_PLACEMENT_3D('',#186,#187,#188);
#186 = CARTESIAN_POINT('',(20.,-9.5,24.5));
#187 = DIRECTION('',(-1.,0.,0.));
#188 = DIRECTION('',(0.,2.2E-16,1.));
#189 = ADVANCED_FACE('',(#190),#217,.T.);
#190 = FACE_BOUND('',#191,.F.);
#191 = EDGE_LOOP('',(#192,#201,#202,#211));
#192 = ORIENTED_EDGE('',*,*,#193,.F.);
#193 = EDGE_CURVE('',#53,#194,#196,.T.);
#194 = VERTEX_POINT('',#195);
#195 = CARTESIAN_POINT('',(-19.5,-9.5,-25.));
#196 = CIRCLE('',#197,0.5);
#197 = AXIS2_PLACEMENT_3D('',#198,#199,#200);
#198 = CARTESIAN_POINT('',(-19.5,-9.5,-24.5));
#199 = DIRECTION('',(1.,-0.,1.6E-16));
#200 = DIRECTION('',(1.6E-16,0.,-1.));
#201 = ORIENTED_EDGE('',*,*,#76,.T.);
#202 = ORIENTED_EDGE('',*,*,#203,.T.);
#203 = EDGE_CURVE('',#69,#204,#206,.T.);
#204 = VERTEX_POINT('',#205);
#205 = CARTESIAN_POINT('',(19.5,-9.5,-25.));
#206 = CIRCLE('',#207,0.5);
#207 = AXIS2_PLACEMENT_3D('',#208,#209,#210);
#208 = CARTESIAN_POINT('',(19.5,-9.5,-24.5));
#209 = DIRECTION('',(1.,-0.,0.));
#210 = DIRECTION('',(0.,0.,-1.));
#211 = ORIENTED_EDGE('',*,*,#212,.F.);
#212 = EDGE_CURVE('',#194,#204,#213,.T.);
#213 = LINE('',#214,#215);
#214 = CARTESIAN_POINT('',(-20.,-9.5,-25.));
#215 = VECTOR('',#216,1.);
#216 = DIRECTION('',(1.,0.,0.));
#217 = CYLINDRICAL_SURFACE('',#218,0.5);
#218 = AXIS2_PLACEMENT_3D('',#219,#220,#221);
#219 = CARTESIAN_POINT('',(-20.,-9.5,-24.5));
#220 = DIRECTION('',(1.,0.,0.));
#221 = DIRECTION('',(0.,-2.2E-16,-1.));
#222 = ADVANCED_FACE('',(#223),#250,.T.);
#223 = FACE_BOUND('',#224,.F.);
#224 = EDGE_LOOP('',(#225,#234,#235,#244));
#225 = ORIENTED_EDGE('',*,*,#226,.F.);
#226 = EDGE_CURVE('',#69,#227,#229,.T.);
#227 = VERTEX_POINT('',#228);
#228 = CARTESIAN_POINT('',(20.,-9.5,-24.5));
#229 = CIRCLE('',#230,0.5);
#230 = AXIS2_PLACEMENT_3D('',#231,#232,#233);
#231 = CARTESIAN_POINT('',(19.5,-9.5,-24.5));
#232 = DIRECTION('',(6.E-17,-0.,1.));
#233 = DIRECTION('',(1.,0.,-6.E-17));
#234 = ORIENTED_EDGE('',*,*,#68,.T.);
#235 = ORIENTED_EDGE('',*,*,#236,.T.);
#236 = EDGE_CURVE('',#61,#237,#239,.T.);
#237 = VERTEX_POINT('',#238);
#238 = CARTESIAN_POINT('',(20.,-9.5,24.5));
#239 = CIRCLE('',#240,0.5);
#240 = AXIS2_PLACEMENT_3D('',#241,#242,#243);
#241 = CARTESIAN_POINT('',(19.5,-9.5,24.5));
#242 = DIRECTION('',(-7.11E-15,0.,1.));
#243 = DIRECTION('',(1.,0.,7.11E-15));
#244 = ORIENTED_EDGE('',*,*,#245,.F.);
#245 = EDGE_CURVE('',#227,#237,#246,.T.);
#246 = LINE('',#247,#248);
#247 = CARTESIAN_POINT('',(20.,-9.5,-25.));
#248 = VECTOR('',#249,1.);
#249 = DIRECTION('',(0.,2.2E-16,1.));
#250 = CYLINDRICAL_SURFACE('',#251,0.5);
#251 = AXIS2_PLACEMENT_3D('',#252,#253,#254);
#252 = CARTESIAN_POINT('',(19.5,-9.5,-25.));
#253 = DIRECTION('',(0.,2.2E-16,1.));
#254 = DIRECTION('',(1.,0.,0.));
#255 = ADVANCED_FACE('',(#256),#276,.T.);
#256 = FACE_BOUND('',#257,.T.);
#257 = EDGE_LOOP('',(#258,#267,#268,#269));
#258 = ORIENTED_EDGE('',*,*,#259,.F.);
#259 = EDGE_CURVE('',#85,#260,#262,.T.);
#260 = VERTEX_POINT('',#261);
#261 = CARTESIAN_POINT('',(3.5,-9.5,-5.));
#262 = CIRCLE('',#263,0.5);
#263 = AXIS2_PLACEMENT_3D('',#264,#265,#266);
#264 = CARTESIAN_POINT('',(4.,-9.5,-5.));
#265 = DIRECTION('',(2.2E-16,0.,-1.));
#266 = DIRECTION('',(1.,0.,2.2E-16));
#267 = ORIENTED_EDGE('',*,*,#84,.T.);
#268 = ORIENTED_EDGE('',*,*,#259,.T.);
#269 = ORIENTED_EDGE('',*,*,#270,.F.);
#270 = EDGE_CURVE('',#260,#260,#271,.T.);
#271 = CIRCLE('',#272,3.5);
#272 = AXIS2_PLACEMENT_3D('',#273,#274,#275);
#273 = CARTESIAN_POINT('',(0.,-9.5,-5.));
#274 = DIRECTION('',(0.,-1.,0.));
#275 = DIRECTION('',(1.,0.,2.2E-16));
#276 = TOROIDAL_SURFACE('',#277,4.,0.5);
#277 = AXIS2_PLACEMENT_3D('',#278,#279,#280);
#278 = CARTESIAN_POINT('',(0.,-9.5,-5.));
#279 = DIRECTION('',(0.,-1.,0.));
#280 = DIRECTION('',(1.,0.,2.2E-16));
#281 = ADVANCED_FACE('',(#282),#301,.F.);
#282 = FACE_BOUND('',#283,.F.);
#283 = EDGE_LOOP('',(#284,#292,#299,#300));
#284 = ORIENTED_EDGE('',*,*,#285,.T.);
#285 = EDGE_CURVE('',#102,#286,#288,.T.);
#286 = VERTEX_POINT('',#287);
#287 = CARTESIAN_POINT('',(3.5,-6.,5.));
#288 = LINE('',#289,#290);
#289 = CARTESIAN_POINT('',(3.5,-10.,5.));
#290 = VECTOR('',#291,1.);
#291 = DIRECTION('',(0.,1.,-2.2E-16));
#292 = ORIENTED_EDGE('',*,*,#293,.T.);
#293 = EDGE_CURVE('',#286,#286,#294,.T.);
#294 = CIRCLE('',#295,3.5);
#295 = AXIS2_PLACEMENT_3D('',#296,#297,#298);
#296 = CARTESIAN_POINT('',(0.,-6.,5.));
#297 = DIRECTION('',(0.,-1.,-2.2E-16));
#298 = DIRECTION('',(1.,0.,0.));
#299 = ORIENTED_EDGE('',*,*,#285,.F.);
#300 = ORIENTED_EDGE('',*,*,#112,.F.);
#301 = CYLINDRICAL_SURFACE('',#302,3.5);
#302 = AXIS2_PLACEMENT_3D('',#303,#304,#305);
#303 = CARTESIAN_POINT('',(0.,-10.,5.));
#304 = DIRECTION('',(0.,-1.,2.2E-16));
#305 = DIRECTION('',(1.,0.,0.));
#306 = ADVANCED_FACE('',(#307),#318,.T.);
#307 = FACE_BOUND('',#308,.T.);
#308 = EDGE_LOOP('',(#309,#310,#311));
#309 = ORIENTED_EDGE('',*,*,#127,.F.);
#310 = ORIENTED_EDGE('',*,*,#170,.T.);
#311 = ORIENTED_EDGE('',*,*,#312,.F.);
#312 = EDGE_CURVE('',#128,#171,#313,.T.);
#313 = CIRCLE('',#314,0.5);
#314 = AXIS2_PLACEMENT_3D('',#315,#316,#317);
#315 = CARTESIAN_POINT('',(-19.5,-9.5,24.5));
#316 = DIRECTION('',(0.,1.,-0.));
#317 = DIRECTION('',(-1.,0.,7.11E-15));
#318 = SPHERICAL_SURFACE('',#319,0.5);
#319 = AXIS2_PLACEMENT_3D('',#320,#321,#322);
#320 = CARTESIAN_POINT('',(-19.5,-9.5,24.5));
#321 = DIRECTION('',(0.,1.,0.));
#322 = DIRECTION('',(-1.,0.,7.11E-15));
#323 = ADVANCED_FACE('',(#324),#349,.F.);
#324 = FACE_BOUND('',#325,.F.);
#325 = EDGE_LOOP('',(#326,#334,#335,#343));
#326 = ORIENTED_EDGE('',*,*,#327,.T.);
#327 = EDGE_CURVE('',#328,#128,#330,.T.);
#328 = VERTEX_POINT('',#329);
#329 = CARTESIAN_POINT('',(-20.,-0.5,24.5));
#330 = LINE('',#331,#332);
#331 = CARTESIAN_POINT('',(-20.,5.44E-15,24.5));
#332 = VECTOR('',#333,1.);
#333 = DIRECTION('',(0.,-1.,2.2E-16));
#334 = ORIENTED_EDGE('',*,*,#146,.T.);
#335 = ORIENTED_EDGE('',*,*,#336,.F.);
#336 = EDGE_CURVE('',#337,#138,#339,.T.);
#337 = VERTEX_POINT('',#338);
#338 = CARTESIAN_POINT('',(-20.,-0.5,-24.5));
#339 = LINE('',#340,#341);
#340 = CARTESIAN_POINT('',(-20.,-5.44E-15,-24.5));
#341 = VECTOR('',#342,1.);
#342 = DIRECTION('',(0.,-1.,2.2E-16));
#343 = ORIENTED_EDGE('',*,*,#344,.F.);
#344 = EDGE_CURVE('',#328,#337,#345,.T.);
#345 = LINE('',#346,#347);
#346 = CARTESIAN_POINT('',(-20.,-0.5,25.));
#347 = VECTOR('',#348,1.);
#348 = DIRECTION('',(0.,-2.2E-16,-1.));
#349 = PLANE('',#350);
#350 = AXIS2_PLACEMENT_3D('',#351,#352,#353);
#351 = CARTESIAN_POINT('',(-20.,5.55E-15,25.));
#352 = DIRECTION('',(1.,0.,0.));
#353 = DIRECTION('',(0.,-2.2E-16,-1.));
#354 = ADVANCED_FACE('',(#355),#366,.T.);
#355 = FACE_BOUND('',#356,.F.);
#356 = EDGE_LOOP('',(#357,#358,#359));
#357 = ORIENTED_EDGE('',*,*,#137,.F.);
#358 = ORIENTED_EDGE('',*,*,#193,.T.);
#359 = ORIENTED_EDGE('',*,*,#360,.F.);
#360 = EDGE_CURVE('',#138,#194,#361,.T.);
#361 = CIRCLE('',#362,0.5);
#362 = AXIS2_PLACEMENT_3D('',#363,#364,#365);
#363 = CARTESIAN_POINT('',(-19.5,-9.5,-24.5));
#364 = DIRECTION('',(-0.,-1.,0.));
#365 = DIRECTION('',(-1.,0.,7.11E-15));
#366 = SPHERICAL_SURFACE('',#367,0.5);
#367 = AXIS2_PLACEMENT_3D('',#368,#369,#370);
#368 = CARTESIAN_POINT('',(-19.5,-9.5,-24.5));
#369 = DIRECTION('',(0.,1.,0.));
#370 = DIRECTION('',(-1.,0.,7.11E-15));
#371 = ADVANCED_FACE('',(#372),#383,.T.);
#372 = FACE_BOUND('',#373,.F.);
#373 = EDGE_LOOP('',(#374,#375,#376));
#374 = ORIENTED_EDGE('',*,*,#236,.F.);
#375 = ORIENTED_EDGE('',*,*,#160,.T.);
#376 = ORIENTED_EDGE('',*,*,#377,.F.);
#377 = EDGE_CURVE('',#237,#161,#378,.T.);
#378 = CIRCLE('',#379,0.5);
#379 = AXIS2_PLACEMENT_3D('',#380,#381,#382);
#380 = CARTESIAN_POINT('',(19.5,-9.5,24.5));
#381 = DIRECTION('',(0.,-1.,0.));
#382 = DIRECTION('',(1.,0.,7.11E-15));
#383 = SPHERICAL_SURFACE('',#384,0.5);
#384 = AXIS2_PLACEMENT_3D('',#385,#386,#387);
#385 = CARTESIAN_POINT('',(19.5,-9.5,24.5));
#386 = DIRECTION('',(0.,1.,0.));
#387 = DIRECTION('',(1.,0.,7.11E-15));
#388 = ADVANCED_FACE('',(#389),#414,.F.);
#389 = FACE_BOUND('',#390,.F.);
#390 = EDGE_LOOP('',(#391,#399,#407,#413));
#391 = ORIENTED_EDGE('',*,*,#392,.F.);
#392 = EDGE_CURVE('',#393,#171,#395,.T.);
#393 = VERTEX_POINT('',#394);
#394 = CARTESIAN_POINT('',(-19.5,-0.5,25.));
#395 = LINE('',#396,#397);
#396 = CARTESIAN_POINT('',(-19.5,5.55E-15,25.));
#397 = VECTOR('',#398,1.);
#398 = DIRECTION('',(0.,-1.,2.2E-16));
#399 = ORIENTED_EDGE('',*,*,#400,.F.);
#400 = EDGE_CURVE('',#401,#393,#403,.T.);
#401 = VERTEX_POINT('',#402);
#402 = CARTESIAN_POINT('',(19.5,-0.5,25.));
#403 = LINE('',#404,#405);
#404 = CARTESIAN_POINT('',(20.,-0.5,25.));
#405 = VECTOR('',#406,1.);
#406 = DIRECTION('',(-1.,0.,0.));
#407 = ORIENTED_EDGE('',*,*,#408,.T.);
#408 = EDGE_CURVE('',#401,#161,#409,.T.);
#409 = LINE('',#410,#411);
#410 = CARTESIAN_POINT('',(19.5,5.55E-15,25.));
#411 = VECTOR('',#412,1.);
#412 = DIRECTION('',(0.,-1.,2.2E-16));
#413 = ORIENTED_EDGE('',*,*,#179,.T.);
#414 = PLANE('',#415);
#415 = AXIS2_PLACEMENT_3D('',#416,#417,#418);
#416 = CARTESIAN_POINT('',(20.,5.55E-15,25.));
#417 = DIRECTION('',(0.,-2.2E-16,-1.));
#418 = DIRECTION('',(-1.,0.,0.));
#419 = ADVANCED_FACE('',(#420),#445,.F.);
#420 = FACE_BOUND('',#421,.F.);
#421 = EDGE_LOOP('',(#422,#430,#431,#439));
#422 = ORIENTED_EDGE('',*,*,#423,.T.);
#423 = EDGE_CURVE('',#424,#194,#426,.T.);
#424 = VERTEX_POINT('',#425);
#425 = CARTESIAN_POINT('',(-19.5,-0.5,-25.));
#426 = LINE('',#427,#428);
#427 = CARTESIAN_POINT('',(-19.5,-5.55E-15,-25.));
#428 = VECTOR('',#429,1.);
#429 = DIRECTION('',(0.,-1.,2.2E-16));
#430 = ORIENTED_EDGE('',*,*,#212,.T.);
#431 = ORIENTED_EDGE('',*,*,#432,.F.);
#432 = EDGE_CURVE('',#433,#204,#435,.T.);
#433 = VERTEX_POINT('',#434);
#434 = CARTESIAN_POINT('',(19.5,-0.5,-25.));
#435 = LINE('',#436,#437);
#436 = CARTESIAN_POINT('',(19.5,-5.55E-15,-25.));
#437 = VECTOR('',#438,1.);
#438 = DIRECTION('',(0.,-1.,2.2E-16));
#439 = ORIENTED_EDGE('',*,*,#440,.F.);
#440 = EDGE_CURVE('',#424,#433,#441,.T.);
#441 = LINE('',#442,#443);
#442 = CARTESIAN_POINT('',(-20.,-0.5,-25.));
#443 = VECTOR('',#444,1.);
#444 = DIRECTION('',(1.,0.,0.));
#445 = PLANE('',#446);
#446 = AXIS2_PLACEMENT_3D('',#447,#448,#449);
#447 = CARTESIAN_POINT('',(-20.,-5.55E-15,-25.));
#448 = DIRECTION('',(0.,2.2E-16,1.));
#449 = DIRECTION('',(1.,0.,0.));
#450 = ADVANCED_FACE('',(#451),#462,.T.);
#451 = FACE_BOUND('',#452,.F.);
#452 = EDGE_LOOP('',(#453,#454,#455));
#453 = ORIENTED_EDGE('',*,*,#203,.F.);
#454 = ORIENTED_EDGE('',*,*,#226,.T.);
#455 = ORIENTED_EDGE('',*,*,#456,.F.);
#456 = EDGE_CURVE('',#204,#227,#457,.T.);
#457 = CIRCLE('',#458,0.5);
#458 = AXIS2_PLACEMENT_3D('',#459,#460,#461);
#459 = CARTESIAN_POINT('',(19.5,-9.5,-24.5));
#460 = DIRECTION('',(0.,-1.,0.));
#461 = DIRECTION('',(0.,0.,-1.));
#462 = SPHERICAL_SURFACE('',#463,0.5);
#463 = AXIS2_PLACEMENT_3D('',#464,#465,#466);
#464 = CARTESIAN_POINT('',(19.5,-9.5,-24.5));
#465 = DIRECTION('',(0.,1.,0.));
#466 = DIRECTION('',(0.,0.,-1.));
#467 = ADVANCED_FACE('',(#468),#493,.F.);
#468 = FACE_BOUND('',#469,.F.);
#469 = EDGE_LOOP('',(#470,#478,#479,#487));
#470 = ORIENTED_EDGE('',*,*,#471,.T.);
#471 = EDGE_CURVE('',#472,#227,#474,.T.);
#472 = VERTEX_POINT('',#473);
#473 = CARTESIAN_POINT('',(20.,-0.5,-24.5));
#474 = LINE('',#475,#476);
#475 = CARTESIAN_POINT('',(20.,-5.44E-15,-24.5));
#476 = VECTOR('',#477,1.);
#477 = DIRECTION('',(0.,-1.,2.2E-16));
#478 = ORIENTED_EDGE('',*,*,#245,.T.);
#479 = ORIENTED_EDGE('',*,*,#480,.F.);
#480 = EDGE_CURVE('',#481,#237,#483,.T.);
#481 = VERTEX_POINT('',#482);
#482 = CARTESIAN_POINT('',(20.,-0.5,24.5));
#483 = LINE('',#484,#485);
#484 = CARTESIAN_POINT('',(20.,5.44E-15,24.5));
#485 = VECTOR('',#486,1.);
#486 = DIRECTION('',(0.,-1.,2.2E-16));
#487 = ORIENTED_EDGE('',*,*,#488,.F.);
#488 = EDGE_CURVE('',#472,#481,#489,.T.);
#489 = LINE('',#490,#491);
#490 = CARTESIAN_POINT('',(20.,-0.5,-25.));
#491 = VECTOR('',#492,1.);
#492 = DIRECTION('',(0.,2.2E-16,1.));
#493 = PLANE('',#494);
#494 = AXIS2_PLACEMENT_3D('',#495,#496,#497);
#495 = CARTESIAN_POINT('',(20.,-5.55E-15,-25.));
#496 = DIRECTION('',(-1.,0.,0.));
#497 = DIRECTION('',(0.,2.2E-16,1.));
#498 = ADVANCED_FACE('',(#499),#518,.F.);
#499 = FACE_BOUND('',#500,.F.);
#500 = EDGE_LOOP('',(#501,#509,#516,#517));
#501 = ORIENTED_EDGE('',*,*,#502,.T.);
#502 = EDGE_CURVE('',#260,#503,#505,.T.);
#503 = VERTEX_POINT('',#504);
#504 = CARTESIAN_POINT('',(3.5,-6.,-5.));
#505 = LINE('',#506,#507);
#506 = CARTESIAN_POINT('',(3.5,-10.,-5.));
#507 = VECTOR('',#508,1.);
#508 = DIRECTION('',(0.,1.,-2.2E-16));
#509 = ORIENTED_EDGE('',*,*,#510,.T.);
#510 = EDGE_CURVE('',#503,#503,#511,.T.);
#511 = CIRCLE('',#512,3.5);
#512 = AXIS2_PLACEMENT_3D('',#513,#514,#515);
#513 = CARTESIAN_POINT('',(0.,-6.,-5.));
#514 = DIRECTION('',(0.,-1.,-2.2E-16));
#515 = DIRECTION('',(1.,0.,0.));
#516 = ORIENTED_EDGE('',*,*,#502,.F.);
#517 = ORIENTED_EDGE('',*,*,#270,.F.);
#518 = CYLINDRICAL_SURFACE('',#519,3.5);
#519 = AXIS2_PLACEMENT_3D('',#520,#521,#522);
#520 = CARTESIAN_POINT('',(0.,-10.,-5.));
#521 = DIRECTION('',(0.,-1.,2.2E-16));
#522 = DIRECTION('',(1.,0.,0.));
#523 = ADVANCED_FACE('',(#524,#527),#538,.F.);
#524 = FACE_BOUND('',#525,.F.);
#525 = EDGE_LOOP('',(#526));
#526 = ORIENTED_EDGE('',*,*,#293,.F.);
#527 = FACE_BOUND('',#528,.F.);
#528 = EDGE_LOOP('',(#529));
#529 = ORIENTED_EDGE('',*,*,#530,.T.);
#530 = EDGE_CURVE('',#531,#531,#533,.T.);
#531 = VERTEX_POINT('',#532);
#532 = CARTESIAN_POINT('',(1.7,-6.,5.));
#533 = CIRCLE('',#534,1.7);
#534 = AXIS2_PLACEMENT_3D('',#535,#536,#537);
#535 = CARTESIAN_POINT('',(0.,-6.,5.));
#536 = DIRECTION('',(0.,-1.,2.2E-16));
#537 = DIRECTION('',(1.,0.,0.));
#538 = PLANE('',#539);
#539 = AXIS2_PLACEMENT_3D('',#540,#541,#542);
#540 = CARTESIAN_POINT('',(-2.9E-16,-6.,-1.7763568394E-15));
#541 = DIRECTION('',(0.,1.,-3.E-17));
#542 = DIRECTION('',(0.,3.E-17,1.));
#543 = ADVANCED_FACE('',(#544),#556,.T.);
#544 = FACE_BOUND('',#545,.F.);
#545 = EDGE_LOOP('',(#546,#547,#554,#555));
#546 = ORIENTED_EDGE('',*,*,#327,.F.);
#547 = ORIENTED_EDGE('',*,*,#548,.T.);
#548 = EDGE_CURVE('',#328,#393,#549,.T.);
#549 = CIRCLE('',#550,0.5);
#550 = AXIS2_PLACEMENT_3D('',#551,#552,#553);
#551 = CARTESIAN_POINT('',(-19.5,-0.5,24.5));
#552 = DIRECTION('',(0.,1.,-0.));
#553 = DIRECTION('',(-1.,0.,0.));
#554 = ORIENTED_EDGE('',*,*,#392,.T.);
#555 = ORIENTED_EDGE('',*,*,#312,.F.);
#556 = CYLINDRICAL_SURFACE('',#557,0.5);
#557 = AXIS2_PLACEMENT_3D('',#558,#559,#560);
#558 = CARTESIAN_POINT('',(-19.5,5.44E-15,24.5));
#559 = DIRECTION('',(0.,-1.,2.2E-16));
#560 = DIRECTION('',(-1.,0.,0.));
#561 = ADVANCED_FACE('',(#562),#589,.T.);
#562 = FACE_BOUND('',#563,.T.);
#563 = EDGE_LOOP('',(#564,#573,#581,#588));
#564 = ORIENTED_EDGE('',*,*,#565,.F.);
#565 = EDGE_CURVE('',#566,#328,#568,.T.);
#566 = VERTEX_POINT('',#567);
#567 = CARTESIAN_POINT('',(-19.5,-5.E-15,24.5));
#568 = CIRCLE('',#569,0.5);
#569 = AXIS2_PLACEMENT_3D('',#570,#571,#572);
#570 = CARTESIAN_POINT('',(-19.5,-0.5,24.5));
#571 = DIRECTION('',(0.,0.,1.));
#572 = DIRECTION('',(-1.,0.,0.));
#573 = ORIENTED_EDGE('',*,*,#574,.T.);
#574 = EDGE_CURVE('',#566,#575,#577,.T.);
#575 = VERTEX_POINT('',#576);
#576 = CARTESIAN_POINT('',(-19.5,5.E-15,-24.5));
#577 = LINE('',#578,#579);
#578 = CARTESIAN_POINT('',(-19.5,1.1E-16,25.));
#579 = VECTOR('',#580,1.);
#580 = DIRECTION('',(0.,-2.2E-16,-1.));
#581 = ORIENTED_EDGE('',*,*,#582,.T.);
#582 = EDGE_CURVE('',#575,#337,#583,.T.);
#583 = CIRCLE('',#584,0.5);
#584 = AXIS2_PLACEMENT_3D('',#585,#586,#587);
#585 = CARTESIAN_POINT('',(-19.5,-0.5,-24.5));
#586 = DIRECTION('',(0.,0.,1.));
#587 = DIRECTION('',(-1.,0.,0.));
#588 = ORIENTED_EDGE('',*,*,#344,.F.);
#589 = CYLINDRICAL_SURFACE('',#590,0.5);
#590 = AXIS2_PLACEMENT_3D('',#591,#592,#593);
#591 = CARTESIAN_POINT('',(-19.5,-0.5,25.));
#592 = DIRECTION('',(0.,-2.2E-16,-1.));
#593 = DIRECTION('',(-1.,0.,0.));
#594 = ADVANCED_FACE('',(#595),#607,.T.);
#595 = FACE_BOUND('',#596,.T.);
#596 = EDGE_LOOP('',(#597,#598,#605,#606));
#597 = ORIENTED_EDGE('',*,*,#336,.F.);
#598 = ORIENTED_EDGE('',*,*,#599,.T.);
#599 = EDGE_CURVE('',#337,#424,#600,.T.);
#600 = CIRCLE('',#601,0.5);
#601 = AXIS2_PLACEMENT_3D('',#602,#603,#604);
#602 = CARTESIAN_POINT('',(-19.5,-0.5,-24.5));
#603 = DIRECTION('',(-0.,-1.,-0.));
#604 = DIRECTION('',(-1.,0.,0.));
#605 = ORIENTED_EDGE('',*,*,#423,.T.);
#606 = ORIENTED_EDGE('',*,*,#360,.F.);
#607 = CYLINDRICAL_SURFACE('',#608,0.5);
#608 = AXIS2_PLACEMENT_3D('',#609,#610,#611);
#609 = CARTESIAN_POINT('',(-19.5,-5.44E-15,-24.5));
#610 = DIRECTION('',(0.,-1.,2.2E-16));
#611 = DIRECTION('',(-1.,0.,0.));
#612 = ADVANCED_FACE('',(#613),#625,.T.);
#613 = FACE_BOUND('',#614,.T.);
#614 = EDGE_LOOP('',(#615,#616,#623,#624));
#615 = ORIENTED_EDGE('',*,*,#480,.F.);
#616 = ORIENTED_EDGE('',*,*,#617,.T.);
#617 = EDGE_CURVE('',#481,#401,#618,.T.);
#618 = CIRCLE('',#619,0.5);
#619 = AXIS2_PLACEMENT_3D('',#620,#621,#622);
#620 = CARTESIAN_POINT('',(19.5,-0.5,24.5));
#621 = DIRECTION('',(0.,-1.,0.));
#622 = DIRECTION('',(1.,0.,0.));
#623 = ORIENTED_EDGE('',*,*,#408,.T.);
#624 = ORIENTED_EDGE('',*,*,#377,.F.);
#625 = CYLINDRICAL_SURFACE('',#626,0.5);
#626 = AXIS2_PLACEMENT_3D('',#627,#628,#629);
#627 = CARTESIAN_POINT('',(19.5,5.44E-15,24.5));
#628 = DIRECTION('',(0.,-1.,2.2E-16));
#629 = DIRECTION('',(1.,0.,0.));
#630 = ADVANCED_FACE('',(#631),#656,.T.);
#631 = FACE_BOUND('',#632,.T.);
#632 = EDGE_LOOP('',(#633,#642,#648,#655));
#633 = ORIENTED_EDGE('',*,*,#634,.F.);
#634 = EDGE_CURVE('',#635,#401,#637,.T.);
#635 = VERTEX_POINT('',#636);
#636 = CARTESIAN_POINT('',(19.5,-5.E-15,24.5));
#637 = CIRCLE('',#638,0.5);
#638 = AXIS2_PLACEMENT_3D('',#639,#640,#641);
#639 = CARTESIAN_POINT('',(19.5,-0.5,24.5));
#640 = DIRECTION('',(1.,0.,1.6E-16));
#641 = DIRECTION('',(-1.6E-16,0.,1.));
#642 = ORIENTED_EDGE('',*,*,#643,.T.);
#643 = EDGE_CURVE('',#635,#566,#644,.T.);
#644 = LINE('',#645,#646);
#645 = CARTESIAN_POINT('',(20.,0.,24.5));
#646 = VECTOR('',#647,1.);
#647 = DIRECTION('',(-1.,0.,0.));
#648 = ORIENTED_EDGE('',*,*,#649,.T.);
#649 = EDGE_CURVE('',#566,#393,#650,.T.);
#650 = CIRCLE('',#651,0.5);
#651 = AXIS2_PLACEMENT_3D('',#652,#653,#654);
#652 = CARTESIAN_POINT('',(-19.5,-0.5,24.5));
#653 = DIRECTION('',(1.,0.,-1.6E-16));
#654 = DIRECTION('',(1.6E-16,0.,1.));
#655 = ORIENTED_EDGE('',*,*,#400,.F.);
#656 = CYLINDRICAL_SURFACE('',#657,0.5);
#657 = AXIS2_PLACEMENT_3D('',#658,#659,#660);
#658 = CARTESIAN_POINT('',(20.,-0.5,24.5));
#659 = DIRECTION('',(-1.,0.,0.));
#660 = DIRECTION('',(0.,2.2E-16,1.));
#661 = ADVANCED_FACE('',(#662),#687,.T.);
#662 = FACE_BOUND('',#663,.T.);
#663 = EDGE_LOOP('',(#664,#671,#679,#686));
#664 = ORIENTED_EDGE('',*,*,#665,.F.);
#665 = EDGE_CURVE('',#575,#424,#666,.T.);
#666 = CIRCLE('',#667,0.5);
#667 = AXIS2_PLACEMENT_3D('',#668,#669,#670);
#668 = CARTESIAN_POINT('',(-19.5,-0.5,-24.5));
#669 = DIRECTION('',(-1.,0.,2.8E-16));
#670 = DIRECTION('',(-2.8E-16,0.,-1.));
#671 = ORIENTED_EDGE('',*,*,#672,.T.);
#672 = EDGE_CURVE('',#575,#673,#675,.T.);
#673 = VERTEX_POINT('',#674);
#674 = CARTESIAN_POINT('',(19.5,5.E-15,-24.5));
#675 = LINE('',#676,#677);
#676 = CARTESIAN_POINT('',(-20.,1.1E-16,-24.5));
#677 = VECTOR('',#678,1.);
#678 = DIRECTION('',(1.,0.,0.));
#679 = ORIENTED_EDGE('',*,*,#680,.T.);
#680 = EDGE_CURVE('',#673,#433,#681,.T.);
#681 = CIRCLE('',#682,0.5);
#682 = AXIS2_PLACEMENT_3D('',#683,#684,#685);
#683 = CARTESIAN_POINT('',(19.5,-0.5,-24.5));
#684 = DIRECTION('',(-1.,-0.,-0.));
#685 = DIRECTION('',(0.,0.,-1.));
#686 = ORIENTED_EDGE('',*,*,#440,.F.);
#687 = CYLINDRICAL_SURFACE('',#688,0.5);
#688 = AXIS2_PLACEMENT_3D('',#689,#690,#691);
#689 = CARTESIAN_POINT('',(-20.,-0.5,-24.5));
#690 = DIRECTION('',(1.,0.,0.));
#691 = DIRECTION('',(0.,-2.2E-16,-1.));
#692 = ADVANCED_FACE('',(#693),#705,.T.);
#693 = FACE_BOUND('',#694,.T.);
#694 = EDGE_LOOP('',(#695,#696,#703,#704));
#695 = ORIENTED_EDGE('',*,*,#432,.F.);
#696 = ORIENTED_EDGE('',*,*,#697,.T.);
#697 = EDGE_CURVE('',#433,#472,#698,.T.);
#698 = CIRCLE('',#699,0.5);
#699 = AXIS2_PLACEMENT_3D('',#700,#701,#702);
#700 = CARTESIAN_POINT('',(19.5,-0.5,-24.5));
#701 = DIRECTION('',(0.,-1.,0.));
#702 = DIRECTION('',(0.,0.,-1.));
#703 = ORIENTED_EDGE('',*,*,#471,.T.);
#704 = ORIENTED_EDGE('',*,*,#456,.F.);
#705 = CYLINDRICAL_SURFACE('',#706,0.5);
#706 = AXIS2_PLACEMENT_3D('',#707,#708,#709);
#707 = CARTESIAN_POINT('',(19.5,-5.44E-15,-24.5));
#708 = DIRECTION('',(0.,-1.,2.2E-16));
#709 = DIRECTION('',(0.,-2.2E-16,-1.));
#710 = ADVANCED_FACE('',(#711),#734,.T.);
#711 = FACE_BOUND('',#712,.T.);
#712 = EDGE_LOOP('',(#713,#720,#726,#733));
#713 = ORIENTED_EDGE('',*,*,#714,.F.);
#714 = EDGE_CURVE('',#673,#472,#715,.T.);
#715 = CIRCLE('',#716,0.5);
#716 = AXIS2_PLACEMENT_3D('',#717,#718,#719);
#717 = CARTESIAN_POINT('',(19.5,-0.5,-24.5));
#718 = DIRECTION('',(-6.E-17,-0.,-1.));
#719 = DIRECTION('',(1.,0.,-6.E-17));
#720 = ORIENTED_EDGE('',*,*,#721,.T.);
#721 = EDGE_CURVE('',#673,#635,#722,.T.);
#722 = LINE('',#723,#724);
#723 = CARTESIAN_POINT('',(19.5,1.1E-16,-25.));
#724 = VECTOR('',#725,1.);
#725 = DIRECTION('',(0.,2.2E-16,1.));
#726 = ORIENTED_EDGE('',*,*,#727,.T.);
#727 = EDGE_CURVE('',#635,#481,#728,.T.);
#728 = CIRCLE('',#729,0.5);
#729 = AXIS2_PLACEMENT_3D('',#730,#731,#732);
#730 = CARTESIAN_POINT('',(19.5,-0.5,24.5));
#731 = DIRECTION('',(0.,0.,-1.));
#732 = DIRECTION('',(1.,0.,0.));
#733 = ORIENTED_EDGE('',*,*,#488,.F.);
#734 = CYLINDRICAL_SURFACE('',#735,0.5);
#735 = AXIS2_PLACEMENT_3D('',#736,#737,#738);
#736 = CARTESIAN_POINT('',(19.5,-0.5,-25.));
#737 = DIRECTION('',(0.,2.2E-16,1.));
#738 = DIRECTION('',(1.,0.,0.));
#739 = ADVANCED_FACE('',(#740,#743),#754,.F.);
#740 = FACE_BOUND('',#741,.F.);
#741 = EDGE_LOOP('',(#742));
#742 = ORIENTED_EDGE('',*,*,#510,.F.);
#743 = FACE_BOUND('',#744,.F.);
#744 = EDGE_LOOP('',(#745));
#745 = ORIENTED_EDGE('',*,*,#746,.T.);
#746 = EDGE_CURVE('',#747,#747,#749,.T.);
#747 = VERTEX_POINT('',#748);
#748 = CARTESIAN_POINT('',(1.7,-6.,-5.));
#749 = CIRCLE('',#750,1.7);
#750 = AXIS2_PLACEMENT_3D('',#751,#752,#753);
#751 = CARTESIAN_POINT('',(0.,-6.,-5.));
#752 = DIRECTION('',(0.,-1.,2.2E-16));
#753 = DIRECTION('',(1.,0.,0.));
#754 = PLANE('',#755);
#755 = AXIS2_PLACEMENT_3D('',#756,#757,#758);
#756 = CARTESIAN_POINT('',(-2.9E-16,-6.,-1.7763568394E-15));
#757 = DIRECTION('',(0.,1.,-3.E-17));
#758 = DIRECTION('',(0.,3.E-17,1.));
#759 = ADVANCED_FACE('',(#760),#779,.F.);
#760 = FACE_BOUND('',#761,.F.);
#761 = EDGE_LOOP('',(#762,#763,#771,#778));
#762 = ORIENTED_EDGE('',*,*,#530,.F.);
#763 = ORIENTED_EDGE('',*,*,#764,.T.);
#764 = EDGE_CURVE('',#531,#765,#767,.T.);
#765 = VERTEX_POINT('',#766);
#766 = CARTESIAN_POINT('',(1.7,0.,5.));
#767 = LINE('',#768,#769);
#768 = CARTESIAN_POINT('',(1.7,-10.,5.));
#769 = VECTOR('',#770,1.);
#770 = DIRECTION('',(0.,1.,-2.2E-16));
#771 = ORIENTED_EDGE('',*,*,#772,.T.);
#772 = EDGE_CURVE('',#765,#765,#773,.T.);
#773 = CIRCLE('',#774,1.7);
#774 = AXIS2_PLACEMENT_3D('',#775,#776,#777);
#775 = CARTESIAN_POINT('',(0.,6.7E-16,5.));
#776 = DIRECTION('',(0.,-1.,2.2E-16));
#777 = DIRECTION('',(1.,0.,0.));
#778 = ORIENTED_EDGE('',*,*,#764,.F.);
#779 = CYLINDRICAL_SURFACE('',#780,1.7);
#780 = AXIS2_PLACEMENT_3D('',#781,#782,#783);
#781 = CARTESIAN_POINT('',(0.,-10.,5.));
#782 = DIRECTION('',(0.,-1.,2.2E-16));
#783 = DIRECTION('',(1.,0.,0.));
#784 = ADVANCED_FACE('',(#785),#790,.T.);
#785 = FACE_BOUND('',#786,.F.);
#786 = EDGE_LOOP('',(#787,#788,#789));
#787 = ORIENTED_EDGE('',*,*,#565,.F.);
#788 = ORIENTED_EDGE('',*,*,#649,.T.);
#789 = ORIENTED_EDGE('',*,*,#548,.F.);
#790 = SPHERICAL_SURFACE('',#791,0.5);
#791 = AXIS2_PLACEMENT_3D('',#792,#793,#794);
#792 = CARTESIAN_POINT('',(-19.5,-0.5,24.5));
#793 = DIRECTION('',(0.,-1.,0.));
#794 = DIRECTION('',(-1.,0.,0.));
#795 = ADVANCED_FACE('',(#796,#802,#813),#816,.T.);
#796 = FACE_BOUND('',#797,.T.);
#797 = EDGE_LOOP('',(#798,#799,#800,#801));
#798 = ORIENTED_EDGE('',*,*,#574,.F.);
#799 = ORIENTED_EDGE('',*,*,#643,.F.);
#800 = ORIENTED_EDGE('',*,*,#721,.F.);
#801 = ORIENTED_EDGE('',*,*,#672,.F.);
#802 = FACE_BOUND('',#803,.T.);
#803 = EDGE_LOOP('',(#804));
#804 = ORIENTED_EDGE('',*,*,#805,.T.);
#805 = EDGE_CURVE('',#806,#806,#808,.T.);
#806 = VERTEX_POINT('',#807);
#807 = CARTESIAN_POINT('',(1.7,0.,-5.));
#808 = CIRCLE('',#809,1.7);
#809 = AXIS2_PLACEMENT_3D('',#810,#811,#812);
#810 = CARTESIAN_POINT('',(0.,-6.7E-16,-5.));
#811 = DIRECTION('',(0.,-1.,2.2E-16));
#812 = DIRECTION('',(1.,0.,0.));
#813 = FACE_BOUND('',#814,.T.);
#814 = EDGE_LOOP('',(#815));
#815 = ORIENTED_EDGE('',*,*,#772,.T.);
#816 = PLANE('',#817);
#817 = AXIS2_PLACEMENT_3D('',#818,#819,#820);
#818 = CARTESIAN_POINT('',(0.,0.,0.));
#819 = DIRECTION('',(0.,1.,2.2E-16));
#820 = DIRECTION('',(0.,-2.2E-16,1.));
#821 = ADVANCED_FACE('',(#822),#827,.T.);
#822 = FACE_BOUND('',#823,.T.);
#823 = EDGE_LOOP('',(#824,#825,#826));
#824 = ORIENTED_EDGE('',*,*,#582,.F.);
#825 = ORIENTED_EDGE('',*,*,#665,.T.);
#826 = ORIENTED_EDGE('',*,*,#599,.F.);
#827 = SPHERICAL_SURFACE('',#828,0.5);
#828 = AXIS2_PLACEMENT_3D('',#829,#830,#831);
#829 = CARTESIAN_POINT('',(-19.5,-0.5,-24.5));
#830 = DIRECTION('',(0.,-1.,0.));
#831 = DIRECTION('',(-1.,0.,0.));
#832 = ADVANCED_FACE('',(#833),#838,.T.);
#833 = FACE_BOUND('',#834,.T.);
#834 = EDGE_LOOP('',(#835,#836,#837));
#835 = ORIENTED_EDGE('',*,*,#727,.F.);
#836 = ORIENTED_EDGE('',*,*,#634,.T.);
#837 = ORIENTED_EDGE('',*,*,#617,.F.);
#838 = SPHERICAL_SURFACE('',#839,0.5);
#839 = AXIS2_PLACEMENT_3D('',#840,#841,#842);
#840 = CARTESIAN_POINT('',(19.5,-0.5,24.5));
#841 = DIRECTION('',(0.,-1.,0.));
#842 = DIRECTION('',(1.,0.,0.));
#843 = ADVANCED_FACE('',(#844),#849,.T.);
#844 = FACE_BOUND('',#845,.T.);
#845 = EDGE_LOOP('',(#846,#847,#848));
#846 = ORIENTED_EDGE('',*,*,#680,.F.);
#847 = ORIENTED_EDGE('',*,*,#714,.T.);
#848 = ORIENTED_EDGE('',*,*,#697,.F.);
#849 = SPHERICAL_SURFACE('',#850,0.5);
#850 = AXIS2_PLACEMENT_3D('',#851,#852,#853);
#851 = CARTESIAN_POINT('',(19.5,-0.5,-24.5));
#852 = DIRECTION('',(0.,-1.,0.));
#853 = DIRECTION('',(0.,0.,-1.));
#854 = ADVANCED_FACE('',(#855),#866,.F.);
#855 = FACE_BOUND('',#856,.F.);
#856 = EDGE_LOOP('',(#857,#858,#864,#865));
#857 = ORIENTED_EDGE('',*,*,#746,.F.);
#858 = ORIENTED_EDGE('',*,*,#859,.T.);
#859 = EDGE_CURVE('',#747,#806,#860,.T.);
#860 = LINE('',#861,#862);
#861 = CARTESIAN_POINT('',(1.7,-10.,-5.));
#862 = VECTOR('',#863,1.);
#863 = DIRECTION('',(0.,1.,-2.2E-16));
#864 = ORIENTED_EDGE('',*,*,#805,.T.);
#865 = ORIENTED_EDGE('',*,*,#859,.F.);
#866 = CYLINDRICAL_SURFACE('',#867,1.7);
#867 = AXIS2_PLACEMENT_3D('',#868,#869,#870);
#868 = CARTESIAN_POINT('',(0.,-10.,-5.));
#869 = DIRECTION('',(0.,-1.,2.2E-16));
#870 = DIRECTION('',(1.,0.,0.));
#871 = ( GEOMETRIC_REPRESENTATION_CONTEXT(3) 
GLOBAL_UNCERTAINTY_ASSIGNED_CONTEXT((#875)) GLOBAL_UNIT_ASSIGNED_CONTEXT
((#872,#873,#874)) REPRESENTATION_CONTEXT('Context #1',
  '3D Context with UNIT and UNCERTAINTY') );
#872 = ( LENGTH_UNIT() NAMED_UNIT(*) SI_UNIT(.MILLI.,.METRE.) );
#873 = ( NAMED_UNIT(*) PLANE_ANGLE_UNIT() SI_UNIT($,.RADIAN.) );
#874 = ( NAMED_UNIT(*) SI_UNIT($,.STERADIAN.) SOLID_ANGLE_UNIT() );
#875 = UNCERTAINTY_MEASURE_WITH_UNIT(LENGTH_MEASURE(1.E-07),#872,
  'distance_accuracy_value','confusion accuracy');
#876 = CONTEXT_DEPENDENT_SHAPE_REPRESENTATION(#877,#879);
#877 = ( REPRESENTATION_RELATIONSHIP('','',#32,#10) 
REPRESENTATION_RELATIONSHIP_WITH_TRANSFORMATION(#878) 
SHAPE_REPRESENTATION_RELATIONSHIP() );
#878 = ITEM_DEFINED_TRANSFORMATION('','',#11,#15);
#879 = PRODUCT_DEFINITION_SHAPE('Placement','Placement of an item',#880
  );
#880 = NEXT_ASSEMBLY_USAGE_OCCURRENCE('3','Body','',#5,#27,$);
#881 = PRODUCT_RELATED_PRODUCT_CATEGORY('part',$,(#29));
#882 = MECHANICAL_DESIGN_GEOMETRIC_PRESENTATION_REPRESENTATION('',(#883)
  ,#871);
#883 = STYLED_ITEM('color',(#884),#33);
#884 = PRESENTATION_STYLE_ASSIGNMENT((#885,#891));
#885 = SURFACE_STYLE_USAGE(.BOTH.,#886);
#886 = SURFACE_SIDE_STYLE('',(#887));
#887 = SURFACE_STYLE_FILL_AREA(#888);
#888 = FILL_AREA_STYLE('',(#889));
#889 = FILL_AREA_STYLE_COLOUR('',#890);
#890 = COLOUR_RGB('',0.447058818107,0.474509808674,0.501960817233);
#891 = CURVE_STYLE('',#892,POSITIVE_LENGTH_MEASURE(0.1),#893);
#892 = DRAUGHTING_PRE_DEFINED_CURVE_FONT('continuous');
#893 = COLOUR_RGB('',9.803921802644E-02,9.803921802644E-02,
  9.803921802644E-02);
ENDSEC;
END-ISO-10303-21;
