ISO-10303-21;
HEADER;
FILE_DESCRIPTION(('FreeCAD Model'),'2;1');
FILE_NAME('Open CASCADE Shape Model','2025-10-16T04:52:13',(''),(''),
  'Open CASCADE STEP processor 7.8','FreeCAD','Unknown');
FILE_SCHEMA(('AUTOMOTIVE_DESIGN { 1 0 10303 214 1 1 1 1 }'));
ENDSEC;
DATA;
#1 = APPLICATION_PROTOCOL_DEFINITION('international standard',
  'automotive_design',2000,#2);
#2 = APPLICATION_CONTEXT(
  'core data for automotive mechanical design processes');
#3 = SHAPE_DEFINITION_REPRESENTATION(#4,#10);
#4 = PRODUCT_DEFINITION_SHAPE('','',#5);
#5 = PRODUCT_DEFINITION('design','',#6,#9);
#6 = PRODUCT_DEFINITION_FORMATION('','',#7);
#7 = PRODUCT('Part','Part','',(#8));
#8 = PRODUCT_CONTEXT('',#2,'mechanical');
#9 = PRODUCT_DEFINITION_CONTEXT('part definition',#2,'design');
#10 = SHAPE_REPRESENTATION('',(#11,#15),#19);
#11 = AXIS2_PLACEMENT_3D('',#12,#13,#14);
#12 = CARTESIAN_POINT('',(0.,0.,0.));
#13 = DIRECTION('',(0.,0.,1.));
#14 = DIRECTION('',(1.,0.,-0.));
#15 = AXIS2_PLACEMENT_3D('',#16,#17,#18);
#16 = CARTESIAN_POINT('',(0.,0.,0.));
#17 = DIRECTION('',(0.,0.,1.));
#18 = DIRECTION('',(1.,0.,0.));
#19 = ( GEOMETRIC_REPRESENTATION_CONTEXT(3) 
GLOBAL_UNCERTAINTY_ASSIGNED_CONTEXT((#23)) GLOBAL_UNIT_ASSIGNED_CONTEXT(
(#20,#21,#22)) REPRESENTATION_CONTEXT('Context #1',
  '3D Context with UNIT and UNCERTAINTY') );
#20 = ( LENGTH_UNIT() NAMED_UNIT(*) SI_UNIT(.MILLI.,.METRE.) );
#21 = ( NAMED_UNIT(*) PLANE_ANGLE_UNIT() SI_UNIT($,.RADIAN.) );
#22 = ( NAMED_UNIT(*) SI_UNIT($,.STERADIAN.) SOLID_ANGLE_UNIT() );
#23 = UNCERTAINTY_MEASURE_WITH_UNIT(LENGTH_MEASURE(1.E-07),#20,
  'distance_accuracy_value','confusion accuracy');
#24 = PRODUCT_RELATED_PRODUCT_CATEGORY('part',$,(#7));
#25 = SHAPE_DEFINITION_REPRESENTATION(#26,#32);
#26 = PRODUCT_DEFINITION_SHAPE('','',#27);
#27 = PRODUCT_DEFINITION('design','',#28,#31);
#28 = PRODUCT_DEFINITION_FORMATION('','',#29);
#29 = PRODUCT('Body','Body','',(#30));
#30 = PRODUCT_CONTEXT('',#2,'mechanical');
#31 = PRODUCT_DEFINITION_CONTEXT('part definition',#2,'design');
#32 = ADVANCED_BREP_SHAPE_REPRESENTATION('',(#11,#33),#879);
#33 = MANIFOLD_SOLID_BREP('',#34);
#34 = CLOSED_SHELL('',(#35,#75,#220,#245,#270,#303,#327,#351,#376,#401,
    #418,#443,#468,#499,#523,#547,#564,#589,#614,#631,#648,#725,#743,
    #761,#778,#795,#807,#831,#849,#867));
#35 = ADVANCED_FACE('',(#36),#70,.F.);
#36 = FACE_BOUND('',#37,.F.);
#37 = EDGE_LOOP('',(#38,#48,#56,#64));
#38 = ORIENTED_EDGE('',*,*,#39,.F.);
#39 = EDGE_CURVE('',#40,#42,#44,.T.);
#40 = VERTEX_POINT('',#41);
#41 = CARTESIAN_POINT('',(-36.,3.E-15,15.5));
#42 = VERTEX_POINT('',#43);
#43 = CARTESIAN_POINT('',(-36.,-3.E-15,-15.5));
#44 = LINE('',#45,#46);
#45 = CARTESIAN_POINT('',(-36.,0.,16.5));
#46 = VECTOR('',#47,1.);
#47 = DIRECTION('',(0.,0.,-1.));
#48 = ORIENTED_EDGE('',*,*,#49,.T.);
#49 = EDGE_CURVE('',#40,#50,#52,.T.);
#50 = VERTEX_POINT('',#51);
#51 = CARTESIAN_POINT('',(-36.,-2.,15.5));
#52 = LINE('',#53,#54);
#53 = CARTESIAN_POINT('',(-36.,3.44E-15,15.5));
#54 = VECTOR('',#55,1.);
#55 = DIRECTION('',(0.,-1.,2.2E-16));
#56 = ORIENTED_EDGE('',*,*,#57,.T.);
#57 = EDGE_CURVE('',#50,#58,#60,.T.);
#58 = VERTEX_POINT('',#59);
#59 = CARTESIAN_POINT('',(-36.,-2.,-15.5));
#60 = LINE('',#61,#62);
#61 = CARTESIAN_POINT('',(-36.,-2.,16.5));
#62 = VECTOR('',#63,1.);
#63 = DIRECTION('',(0.,-2.2E-16,-1.));
#64 = ORIENTED_EDGE('',*,*,#65,.F.);
#65 = EDGE_CURVE('',#42,#58,#66,.T.);
#66 = LINE('',#67,#68);
#67 = CARTESIAN_POINT('',(-36.,-3.44E-15,-15.5));
#68 = VECTOR('',#69,1.);
#69 = DIRECTION('',(0.,-1.,2.2E-16));
#70 = PLANE('',#71);
#71 = AXIS2_PLACEMENT_3D('',#72,#73,#74);
#72 = CARTESIAN_POINT('',(-36.,3.66E-15,16.5));
#73 = DIRECTION('',(1.,0.,0.));
#74 = DIRECTION('',(0.,-2.2E-16,-1.));
#75 = ADVANCED_FACE('',(#76,#137,#148,#159,#193,#204),#215,.T.);
#76 = FACE_BOUND('',#77,.T.);
#77 = EDGE_LOOP('',(#78,#79,#88,#96,#105,#113,#122,#130));
#78 = ORIENTED_EDGE('',*,*,#39,.F.);
#79 = ORIENTED_EDGE('',*,*,#80,.T.);
#80 = EDGE_CURVE('',#40,#81,#83,.T.);
#81 = VERTEX_POINT('',#82);
#82 = CARTESIAN_POINT('',(-35.,4.E-15,16.5));
#83 = CIRCLE('',#84,1.);
#84 = AXIS2_PLACEMENT_3D('',#85,#86,#87);
#85 = CARTESIAN_POINT('',(-35.,0.,15.5));
#86 = DIRECTION('',(0.,1.,-2.2E-16));
#87 = DIRECTION('',(0.,-2.2E-16,-1.));
#88 = ORIENTED_EDGE('',*,*,#89,.F.);
#89 = EDGE_CURVE('',#90,#81,#92,.T.);
#90 = VERTEX_POINT('',#91);
#91 = CARTESIAN_POINT('',(35.,4.E-15,16.5));
#92 = LINE('',#93,#94);
#93 = CARTESIAN_POINT('',(36.,0.,16.5));
#94 = VECTOR('',#95,1.);
#95 = DIRECTION('',(-1.,0.,0.));
#96 = ORIENTED_EDGE('',*,*,#97,.F.);
#97 = EDGE_CURVE('',#98,#90,#100,.T.);
#98 = VERTEX_POINT('',#99);
#99 = CARTESIAN_POINT('',(36.,3.E-15,15.5));
#100 = CIRCLE('',#101,1.);
#101 = AXIS2_PLACEMENT_3D('',#102,#103,#104);
#102 = CARTESIAN_POINT('',(35.,0.,15.5));
#103 = DIRECTION('',(0.,-1.,2.2E-16));
#104 = DIRECTION('',(0.,-2.2E-16,-1.));
#105 = ORIENTED_EDGE('',*,*,#106,.F.);
#106 = EDGE_CURVE('',#107,#98,#109,.T.);
#107 = VERTEX_POINT('',#108);
#108 = CARTESIAN_POINT('',(36.,-3.E-15,-15.5));
#109 = LINE('',#110,#111);
#110 = CARTESIAN_POINT('',(36.,0.,-16.5));
#111 = VECTOR('',#112,1.);
#112 = DIRECTION('',(0.,0.,1.));
#113 = ORIENTED_EDGE('',*,*,#114,.F.);
#114 = EDGE_CURVE('',#115,#107,#117,.T.);
#115 = VERTEX_POINT('',#116);
#116 = CARTESIAN_POINT('',(35.,-4.E-15,-16.5));
#117 = CIRCLE('',#118,1.);
#118 = AXIS2_PLACEMENT_3D('',#119,#120,#121);
#119 = CARTESIAN_POINT('',(35.,0.,-15.5));
#120 = DIRECTION('',(0.,-1.,2.2E-16));
#121 = DIRECTION('',(0.,-2.2E-16,-1.));
#122 = ORIENTED_EDGE('',*,*,#123,.F.);
#123 = EDGE_CURVE('',#124,#115,#126,.T.);
#124 = VERTEX_POINT('',#125);
#125 = CARTESIAN_POINT('',(-35.,-4.E-15,-16.5));
#126 = LINE('',#127,#128);
#127 = CARTESIAN_POINT('',(-36.,0.,-16.5));
#128 = VECTOR('',#129,1.);
#129 = DIRECTION('',(1.,0.,0.));
#130 = ORIENTED_EDGE('',*,*,#131,.F.);
#131 = EDGE_CURVE('',#42,#124,#132,.T.);
#132 = CIRCLE('',#133,1.);
#133 = AXIS2_PLACEMENT_3D('',#134,#135,#136);
#134 = CARTESIAN_POINT('',(-35.,0.,-15.5));
#135 = DIRECTION('',(0.,-1.,2.2E-16));
#136 = DIRECTION('',(0.,-2.2E-16,-1.));
#137 = FACE_BOUND('',#138,.T.);
#138 = EDGE_LOOP('',(#139));
#139 = ORIENTED_EDGE('',*,*,#140,.F.);
#140 = EDGE_CURVE('',#141,#141,#143,.T.);
#141 = VERTEX_POINT('',#142);
#142 = CARTESIAN_POINT('',(-34.05,-3.E-15,-13.5));
#143 = CIRCLE('',#144,1.05);
#144 = AXIS2_PLACEMENT_3D('',#145,#146,#147);
#145 = CARTESIAN_POINT('',(-33.,0.,-13.5));
#146 = DIRECTION('',(0.,1.,-0.));
#147 = DIRECTION('',(-1.,0.,0.));
#148 = FACE_BOUND('',#149,.T.);
#149 = EDGE_LOOP('',(#150));
#150 = ORIENTED_EDGE('',*,*,#151,.F.);
#151 = EDGE_CURVE('',#152,#152,#154,.T.);
#152 = VERTEX_POINT('',#153);
#153 = CARTESIAN_POINT('',(-34.05,3.E-15,13.5));
#154 = CIRCLE('',#155,1.05);
#155 = AXIS2_PLACEMENT_3D('',#156,#157,#158);
#156 = CARTESIAN_POINT('',(-33.,0.,13.5));
#157 = DIRECTION('',(0.,1.,-0.));
#158 = DIRECTION('',(-1.,0.,0.));
#159 = FACE_BOUND('',#160,.T.);
#160 = EDGE_LOOP('',(#161,#171,#179,#187));
#161 = ORIENTED_EDGE('',*,*,#162,.T.);
#162 = EDGE_CURVE('',#163,#165,#167,.T.);
#163 = VERTEX_POINT('',#164);
#164 = CARTESIAN_POINT('',(-30.,3.E-15,13.5));
#165 = VERTEX_POINT('',#166);
#166 = CARTESIAN_POINT('',(-30.,-3.E-15,-13.5));
#167 = LINE('',#168,#169);
#168 = CARTESIAN_POINT('',(-30.,0.,13.5));
#169 = VECTOR('',#170,1.);
#170 = DIRECTION('',(0.,0.,-1.));
#171 = ORIENTED_EDGE('',*,*,#172,.T.);
#172 = EDGE_CURVE('',#165,#173,#175,.T.);
#173 = VERTEX_POINT('',#174);
#174 = CARTESIAN_POINT('',(30.,-3.E-15,-13.5));
#175 = LINE('',#176,#177);
#176 = CARTESIAN_POINT('',(-30.,0.,-13.5));
#177 = VECTOR('',#178,1.);
#178 = DIRECTION('',(1.,0.,0.));
#179 = ORIENTED_EDGE('',*,*,#180,.T.);
#180 = EDGE_CURVE('',#173,#181,#183,.T.);
#181 = VERTEX_POINT('',#182);
#182 = CARTESIAN_POINT('',(30.,3.E-15,13.5));
#183 = LINE('',#184,#185);
#184 = CARTESIAN_POINT('',(30.,0.,-13.5));
#185 = VECTOR('',#186,1.);
#186 = DIRECTION('',(0.,0.,1.));
#187 = ORIENTED_EDGE('',*,*,#188,.T.);
#188 = EDGE_CURVE('',#181,#163,#189,.T.);
#189 = LINE('',#190,#191);
#190 = CARTESIAN_POINT('',(30.,0.,13.5));
#191 = VECTOR('',#192,1.);
#192 = DIRECTION('',(-1.,0.,0.));
#193 = FACE_BOUND('',#194,.T.);
#194 = EDGE_LOOP('',(#195));
#195 = ORIENTED_EDGE('',*,*,#196,.F.);
#196 = EDGE_CURVE('',#197,#197,#199,.T.);
#197 = VERTEX_POINT('',#198);
#198 = CARTESIAN_POINT('',(31.95,-3.E-15,-13.5));
#199 = CIRCLE('',#200,1.05);
#200 = AXIS2_PLACEMENT_3D('',#201,#202,#203);
#201 = CARTESIAN_POINT('',(33.,0.,-13.5));
#202 = DIRECTION('',(0.,1.,-0.));
#203 = DIRECTION('',(-1.,0.,0.));
#204 = FACE_BOUND('',#205,.T.);
#205 = EDGE_LOOP('',(#206));
#206 = ORIENTED_EDGE('',*,*,#207,.F.);
#207 = EDGE_CURVE('',#208,#208,#210,.T.);
#208 = VERTEX_POINT('',#209);
#209 = CARTESIAN_POINT('',(31.95,3.E-15,13.5));
#210 = CIRCLE('',#211,1.05);
#211 = AXIS2_PLACEMENT_3D('',#212,#213,#214);
#212 = CARTESIAN_POINT('',(33.,0.,13.5));
#213 = DIRECTION('',(0.,1.,-0.));
#214 = DIRECTION('',(-1.,0.,0.));
#215 = PLANE('',#216);
#216 = AXIS2_PLACEMENT_3D('',#217,#218,#219);
#217 = CARTESIAN_POINT('',(-3.1205E-13,0.,1.924E-14));
#218 = DIRECTION('',(0.,1.,0.));
#219 = DIRECTION('',(0.,0.,1.));
#220 = ADVANCED_FACE('',(#221),#240,.T.);
#221 = FACE_BOUND('',#222,.F.);
#222 = EDGE_LOOP('',(#223,#224,#232,#239));
#223 = ORIENTED_EDGE('',*,*,#80,.T.);
#224 = ORIENTED_EDGE('',*,*,#225,.T.);
#225 = EDGE_CURVE('',#81,#226,#228,.T.);
#226 = VERTEX_POINT('',#227);
#227 = CARTESIAN_POINT('',(-35.,-2.,16.5));
#228 = LINE('',#229,#230);
#229 = CARTESIAN_POINT('',(-35.,3.66E-15,16.5));
#230 = VECTOR('',#231,1.);
#231 = DIRECTION('',(0.,-1.,2.2E-16));
#232 = ORIENTED_EDGE('',*,*,#233,.T.);
#233 = EDGE_CURVE('',#226,#50,#234,.T.);
#234 = CIRCLE('',#235,1.);
#235 = AXIS2_PLACEMENT_3D('',#236,#237,#238);
#236 = CARTESIAN_POINT('',(-35.,-2.,15.5));
#237 = DIRECTION('',(6.E-17,-1.,2.2E-16));
#238 = DIRECTION('',(-1.,-6.E-17,0.));
#239 = ORIENTED_EDGE('',*,*,#49,.F.);
#240 = CYLINDRICAL_SURFACE('',#241,1.);
#241 = AXIS2_PLACEMENT_3D('',#242,#243,#244);
#242 = CARTESIAN_POINT('',(-35.,3.44E-15,15.5));
#243 = DIRECTION('',(0.,-1.,2.2E-16));
#244 = DIRECTION('',(-1.,0.,0.));
#245 = ADVANCED_FACE('',(#246),#265,.T.);
#246 = FACE_BOUND('',#247,.T.);
#247 = EDGE_LOOP('',(#248,#249,#257,#264));
#248 = ORIENTED_EDGE('',*,*,#131,.T.);
#249 = ORIENTED_EDGE('',*,*,#250,.T.);
#250 = EDGE_CURVE('',#124,#251,#253,.T.);
#251 = VERTEX_POINT('',#252);
#252 = CARTESIAN_POINT('',(-35.,-2.,-16.5));
#253 = LINE('',#254,#255);
#254 = CARTESIAN_POINT('',(-35.,-3.66E-15,-16.5));
#255 = VECTOR('',#256,1.);
#256 = DIRECTION('',(0.,-1.,2.2E-16));
#257 = ORIENTED_EDGE('',*,*,#258,.T.);
#258 = EDGE_CURVE('',#251,#58,#259,.T.);
#259 = CIRCLE('',#260,1.);
#260 = AXIS2_PLACEMENT_3D('',#261,#262,#263);
#261 = CARTESIAN_POINT('',(-35.,-2.,-15.5));
#262 = DIRECTION('',(-6.E-17,1.,-2.2E-16));
#263 = DIRECTION('',(-1.,-6.E-17,0.));
#264 = ORIENTED_EDGE('',*,*,#65,.F.);
#265 = CYLINDRICAL_SURFACE('',#266,1.);
#266 = AXIS2_PLACEMENT_3D('',#267,#268,#269);
#267 = CARTESIAN_POINT('',(-35.,-3.44E-15,-15.5));
#268 = DIRECTION('',(0.,-1.,2.2E-16));
#269 = DIRECTION('',(-1.,0.,0.));
#270 = ADVANCED_FACE('',(#271),#298,.T.);
#271 = FACE_BOUND('',#272,.F.);
#272 = EDGE_LOOP('',(#273,#274,#283,#291));
#273 = ORIENTED_EDGE('',*,*,#57,.F.);
#274 = ORIENTED_EDGE('',*,*,#275,.F.);
#275 = EDGE_CURVE('',#276,#50,#278,.T.);
#276 = VERTEX_POINT('',#277);
#277 = CARTESIAN_POINT('',(-35.,-3.,15.5));
#278 = CIRCLE('',#279,1.);
#279 = AXIS2_PLACEMENT_3D('',#280,#281,#282);
#280 = CARTESIAN_POINT('',(-35.,-2.,15.5));
#281 = DIRECTION('',(-0.,-2.2E-16,-1.));
#282 = DIRECTION('',(0.,-1.,2.2E-16));
#283 = ORIENTED_EDGE('',*,*,#284,.T.);
#284 = EDGE_CURVE('',#276,#285,#287,.T.);
#285 = VERTEX_POINT('',#286);
#286 = CARTESIAN_POINT('',(-35.,-3.,-15.5));
#287 = LINE('',#288,#289);
#288 = CARTESIAN_POINT('',(-35.,-3.,16.5));
#289 = VECTOR('',#290,1.);
#290 = DIRECTION('',(0.,-2.2E-16,-1.));
#291 = ORIENTED_EDGE('',*,*,#292,.T.);
#292 = EDGE_CURVE('',#285,#58,#293,.T.);
#293 = CIRCLE('',#294,1.);
#294 = AXIS2_PLACEMENT_3D('',#295,#296,#297);
#295 = CARTESIAN_POINT('',(-35.,-2.,-15.5));
#296 = DIRECTION('',(-0.,-2.2E-16,-1.));
#297 = DIRECTION('',(0.,-1.,2.2E-16));
#298 = CYLINDRICAL_SURFACE('',#299,1.);
#299 = AXIS2_PLACEMENT_3D('',#300,#301,#302);
#300 = CARTESIAN_POINT('',(-35.,-2.,16.5));
#301 = DIRECTION('',(0.,-2.2E-16,-1.));
#302 = DIRECTION('',(-1.,0.,0.));
#303 = ADVANCED_FACE('',(#304),#322,.F.);
#304 = FACE_BOUND('',#305,.F.);
#305 = EDGE_LOOP('',(#306,#307,#315,#321));
#306 = ORIENTED_EDGE('',*,*,#89,.F.);
#307 = ORIENTED_EDGE('',*,*,#308,.T.);
#308 = EDGE_CURVE('',#90,#309,#311,.T.);
#309 = VERTEX_POINT('',#310);
#310 = CARTESIAN_POINT('',(35.,-2.,16.5));
#311 = LINE('',#312,#313);
#312 = CARTESIAN_POINT('',(35.,3.66E-15,16.5));
#313 = VECTOR('',#314,1.);
#314 = DIRECTION('',(0.,-1.,2.2E-16));
#315 = ORIENTED_EDGE('',*,*,#316,.T.);
#316 = EDGE_CURVE('',#309,#226,#317,.T.);
#317 = LINE('',#318,#319);
#318 = CARTESIAN_POINT('',(36.,-2.,16.5));
#319 = VECTOR('',#320,1.);
#320 = DIRECTION('',(-1.,0.,0.));
#321 = ORIENTED_EDGE('',*,*,#225,.F.);
#322 = PLANE('',#323);
#323 = AXIS2_PLACEMENT_3D('',#324,#325,#326);
#324 = CARTESIAN_POINT('',(36.,3.66E-15,16.5));
#325 = DIRECTION('',(-0.,-2.2E-16,-1.));
#326 = DIRECTION('',(-1.,0.,0.));
#327 = ADVANCED_FACE('',(#328),#346,.F.);
#328 = FACE_BOUND('',#329,.F.);
#329 = EDGE_LOOP('',(#330,#331,#332,#340));
#330 = ORIENTED_EDGE('',*,*,#123,.F.);
#331 = ORIENTED_EDGE('',*,*,#250,.T.);
#332 = ORIENTED_EDGE('',*,*,#333,.T.);
#333 = EDGE_CURVE('',#251,#334,#336,.T.);
#334 = VERTEX_POINT('',#335);
#335 = CARTESIAN_POINT('',(35.,-2.,-16.5));
#336 = LINE('',#337,#338);
#337 = CARTESIAN_POINT('',(-36.,-2.,-16.5));
#338 = VECTOR('',#339,1.);
#339 = DIRECTION('',(1.,0.,0.));
#340 = ORIENTED_EDGE('',*,*,#341,.F.);
#341 = EDGE_CURVE('',#115,#334,#342,.T.);
#342 = LINE('',#343,#344);
#343 = CARTESIAN_POINT('',(35.,-3.66E-15,-16.5));
#344 = VECTOR('',#345,1.);
#345 = DIRECTION('',(0.,-1.,2.2E-16));
#346 = PLANE('',#347);
#347 = AXIS2_PLACEMENT_3D('',#348,#349,#350);
#348 = CARTESIAN_POINT('',(-36.,-3.66E-15,-16.5));
#349 = DIRECTION('',(0.,2.2E-16,1.));
#350 = DIRECTION('',(1.,0.,0.));
#351 = ADVANCED_FACE('',(#352),#371,.T.);
#352 = FACE_BOUND('',#353,.T.);
#353 = EDGE_LOOP('',(#354,#355,#356,#365));
#354 = ORIENTED_EDGE('',*,*,#97,.T.);
#355 = ORIENTED_EDGE('',*,*,#308,.T.);
#356 = ORIENTED_EDGE('',*,*,#357,.T.);
#357 = EDGE_CURVE('',#309,#358,#360,.T.);
#358 = VERTEX_POINT('',#359);
#359 = CARTESIAN_POINT('',(36.,-2.,15.5));
#360 = CIRCLE('',#361,1.);
#361 = AXIS2_PLACEMENT_3D('',#362,#363,#364);
#362 = CARTESIAN_POINT('',(35.,-2.,15.5));
#363 = DIRECTION('',(6.E-17,1.,-2.2E-16));
#364 = DIRECTION('',(1.,-6.E-17,0.));
#365 = ORIENTED_EDGE('',*,*,#366,.F.);
#366 = EDGE_CURVE('',#98,#358,#367,.T.);
#367 = LINE('',#368,#369);
#368 = CARTESIAN_POINT('',(36.,3.44E-15,15.5));
#369 = VECTOR('',#370,1.);
#370 = DIRECTION('',(0.,-1.,2.2E-16));
#371 = CYLINDRICAL_SURFACE('',#372,1.);
#372 = AXIS2_PLACEMENT_3D('',#373,#374,#375);
#373 = CARTESIAN_POINT('',(35.,3.44E-15,15.5));
#374 = DIRECTION('',(0.,-1.,2.2E-16));
#375 = DIRECTION('',(1.,0.,0.));
#376 = ADVANCED_FACE('',(#377),#396,.T.);
#377 = FACE_BOUND('',#378,.T.);
#378 = EDGE_LOOP('',(#379,#380,#388,#395));
#379 = ORIENTED_EDGE('',*,*,#114,.T.);
#380 = ORIENTED_EDGE('',*,*,#381,.T.);
#381 = EDGE_CURVE('',#107,#382,#384,.T.);
#382 = VERTEX_POINT('',#383);
#383 = CARTESIAN_POINT('',(36.,-2.,-15.5));
#384 = LINE('',#385,#386);
#385 = CARTESIAN_POINT('',(36.,-3.44E-15,-15.5));
#386 = VECTOR('',#387,1.);
#387 = DIRECTION('',(0.,-1.,2.2E-16));
#388 = ORIENTED_EDGE('',*,*,#389,.T.);
#389 = EDGE_CURVE('',#382,#334,#390,.T.);
#390 = CIRCLE('',#391,1.);
#391 = AXIS2_PLACEMENT_3D('',#392,#393,#394);
#392 = CARTESIAN_POINT('',(35.,-2.,-15.5));
#393 = DIRECTION('',(0.,1.,-1.84E-15));
#394 = DIRECTION('',(0.,-1.84E-15,-1.));
#395 = ORIENTED_EDGE('',*,*,#341,.F.);
#396 = CYLINDRICAL_SURFACE('',#397,1.);
#397 = AXIS2_PLACEMENT_3D('',#398,#399,#400);
#398 = CARTESIAN_POINT('',(35.,-3.44E-15,-15.5));
#399 = DIRECTION('',(0.,-1.,2.2E-16));
#400 = DIRECTION('',(0.,-2.2E-16,-1.));
#401 = ADVANCED_FACE('',(#402),#413,.F.);
#402 = FACE_BOUND('',#403,.F.);
#403 = EDGE_LOOP('',(#404,#405,#406,#412));
#404 = ORIENTED_EDGE('',*,*,#106,.F.);
#405 = ORIENTED_EDGE('',*,*,#381,.T.);
#406 = ORIENTED_EDGE('',*,*,#407,.T.);
#407 = EDGE_CURVE('',#382,#358,#408,.T.);
#408 = LINE('',#409,#410);
#409 = CARTESIAN_POINT('',(36.,-2.,-16.5));
#410 = VECTOR('',#411,1.);
#411 = DIRECTION('',(0.,2.2E-16,1.));
#412 = ORIENTED_EDGE('',*,*,#366,.F.);
#413 = PLANE('',#414);
#414 = AXIS2_PLACEMENT_3D('',#415,#416,#417);
#415 = CARTESIAN_POINT('',(36.,-3.66E-15,-16.5));
#416 = DIRECTION('',(-1.,0.,0.));
#417 = DIRECTION('',(0.,2.2E-16,1.));
#418 = ADVANCED_FACE('',(#419),#438,.F.);
#419 = FACE_BOUND('',#420,.F.);
#420 = EDGE_LOOP('',(#421,#422,#430,#437));
#421 = ORIENTED_EDGE('',*,*,#140,.F.);
#422 = ORIENTED_EDGE('',*,*,#423,.T.);
#423 = EDGE_CURVE('',#141,#424,#426,.T.);
#424 = VERTEX_POINT('',#425);
#425 = CARTESIAN_POINT('',(-34.05,-3.,-13.5));
#426 = LINE('',#427,#428);
#427 = CARTESIAN_POINT('',(-34.05,-3.E-15,-13.5));
#428 = VECTOR('',#429,1.);
#429 = DIRECTION('',(0.,-1.,2.2E-16));
#430 = ORIENTED_EDGE('',*,*,#431,.T.);
#431 = EDGE_CURVE('',#424,#424,#432,.T.);
#432 = CIRCLE('',#433,1.05);
#433 = AXIS2_PLACEMENT_3D('',#434,#435,#436);
#434 = CARTESIAN_POINT('',(-33.,-3.,-13.5));
#435 = DIRECTION('',(0.,1.,-2.2E-16));
#436 = DIRECTION('',(-1.,0.,0.));
#437 = ORIENTED_EDGE('',*,*,#423,.F.);
#438 = CYLINDRICAL_SURFACE('',#439,1.05);
#439 = AXIS2_PLACEMENT_3D('',#440,#441,#442);
#440 = CARTESIAN_POINT('',(-33.,-3.E-15,-13.5));
#441 = DIRECTION('',(0.,1.,-2.2E-16));
#442 = DIRECTION('',(-1.,0.,0.));
#443 = ADVANCED_FACE('',(#444),#463,.F.);
#444 = FACE_BOUND('',#445,.F.);
#445 = EDGE_LOOP('',(#446,#447,#455,#462));
#446 = ORIENTED_EDGE('',*,*,#151,.F.);
#447 = ORIENTED_EDGE('',*,*,#448,.T.);
#448 = EDGE_CURVE('',#152,#449,#451,.T.);
#449 = VERTEX_POINT('',#450);
#450 = CARTESIAN_POINT('',(-34.05,-3.,13.5));
#451 = LINE('',#452,#453);
#452 = CARTESIAN_POINT('',(-34.05,3.E-15,13.5));
#453 = VECTOR('',#454,1.);
#454 = DIRECTION('',(0.,-1.,2.2E-16));
#455 = ORIENTED_EDGE('',*,*,#456,.T.);
#456 = EDGE_CURVE('',#449,#449,#457,.T.);
#457 = CIRCLE('',#458,1.05);
#458 = AXIS2_PLACEMENT_3D('',#459,#460,#461);
#459 = CARTESIAN_POINT('',(-33.,-3.,13.5));
#460 = DIRECTION('',(0.,1.,-2.2E-16));
#461 = DIRECTION('',(-1.,0.,0.));
#462 = ORIENTED_EDGE('',*,*,#448,.F.);
#463 = CYLINDRICAL_SURFACE('',#464,1.05);
#464 = AXIS2_PLACEMENT_3D('',#465,#466,#467);
#465 = CARTESIAN_POINT('',(-33.,3.E-15,13.5));
#466 = DIRECTION('',(0.,1.,-2.2E-16));
#467 = DIRECTION('',(-1.,0.,0.));
#468 = ADVANCED_FACE('',(#469),#494,.T.);
#469 = FACE_BOUND('',#470,.T.);
#470 = EDGE_LOOP('',(#471,#479,#487,#493));
#471 = ORIENTED_EDGE('',*,*,#472,.T.);
#472 = EDGE_CURVE('',#163,#473,#475,.T.);
#473 = VERTEX_POINT('',#474);
#474 = CARTESIAN_POINT('',(-30.,-2.,13.5));
#475 = LINE('',#476,#477);
#476 = CARTESIAN_POINT('',(-30.,3.E-15,13.5));
#477 = VECTOR('',#478,1.);
#478 = DIRECTION('',(0.,-1.,2.2E-16));
#479 = ORIENTED_EDGE('',*,*,#480,.T.);
#480 = EDGE_CURVE('',#473,#481,#483,.T.);
#481 = VERTEX_POINT('',#482);
#482 = CARTESIAN_POINT('',(-30.,-2.,-13.5));
#483 = LINE('',#484,#485);
#484 = CARTESIAN_POINT('',(-30.,-2.,13.5));
#485 = VECTOR('',#486,1.);
#486 = DIRECTION('',(0.,-2.2E-16,-1.));
#487 = ORIENTED_EDGE('',*,*,#488,.F.);
#488 = EDGE_CURVE('',#165,#481,#489,.T.);
#489 = LINE('',#490,#491);
#490 = CARTESIAN_POINT('',(-30.,-3.E-15,-13.5));
#491 = VECTOR('',#492,1.);
#492 = DIRECTION('',(0.,-1.,2.2E-16));
#493 = ORIENTED_EDGE('',*,*,#162,.F.);
#494 = PLANE('',#495);
#495 = AXIS2_PLACEMENT_3D('',#496,#497,#498);
#496 = CARTESIAN_POINT('',(-30.,3.E-15,13.5));
#497 = DIRECTION('',(1.,0.,0.));
#498 = DIRECTION('',(0.,-2.2E-16,-1.));
#499 = ADVANCED_FACE('',(#500),#518,.T.);
#500 = FACE_BOUND('',#501,.T.);
#501 = EDGE_LOOP('',(#502,#510,#516,#517));
#502 = ORIENTED_EDGE('',*,*,#503,.T.);
#503 = EDGE_CURVE('',#181,#504,#506,.T.);
#504 = VERTEX_POINT('',#505);
#505 = CARTESIAN_POINT('',(30.,-2.,13.5));
#506 = LINE('',#507,#508);
#507 = CARTESIAN_POINT('',(30.,3.E-15,13.5));
#508 = VECTOR('',#509,1.);
#509 = DIRECTION('',(0.,-1.,2.2E-16));
#510 = ORIENTED_EDGE('',*,*,#511,.T.);
#511 = EDGE_CURVE('',#504,#473,#512,.T.);
#512 = LINE('',#513,#514);
#513 = CARTESIAN_POINT('',(30.,-2.,13.5));
#514 = VECTOR('',#515,1.);
#515 = DIRECTION('',(-1.,0.,0.));
#516 = ORIENTED_EDGE('',*,*,#472,.F.);
#517 = ORIENTED_EDGE('',*,*,#188,.F.);
#518 = PLANE('',#519);
#519 = AXIS2_PLACEMENT_3D('',#520,#521,#522);
#520 = CARTESIAN_POINT('',(30.,3.E-15,13.5));
#521 = DIRECTION('',(-0.,-2.2E-16,-1.));
#522 = DIRECTION('',(-1.,0.,0.));
#523 = ADVANCED_FACE('',(#524),#542,.T.);
#524 = FACE_BOUND('',#525,.T.);
#525 = EDGE_LOOP('',(#526,#527,#535,#541));
#526 = ORIENTED_EDGE('',*,*,#488,.T.);
#527 = ORIENTED_EDGE('',*,*,#528,.T.);
#528 = EDGE_CURVE('',#481,#529,#531,.T.);
#529 = VERTEX_POINT('',#530);
#530 = CARTESIAN_POINT('',(30.,-2.,-13.5));
#531 = LINE('',#532,#533);
#532 = CARTESIAN_POINT('',(-30.,-2.,-13.5));
#533 = VECTOR('',#534,1.);
#534 = DIRECTION('',(1.,0.,0.));
#535 = ORIENTED_EDGE('',*,*,#536,.F.);
#536 = EDGE_CURVE('',#173,#529,#537,.T.);
#537 = LINE('',#538,#539);
#538 = CARTESIAN_POINT('',(30.,-3.E-15,-13.5));
#539 = VECTOR('',#540,1.);
#540 = DIRECTION('',(0.,-1.,2.2E-16));
#541 = ORIENTED_EDGE('',*,*,#172,.F.);
#542 = PLANE('',#543);
#543 = AXIS2_PLACEMENT_3D('',#544,#545,#546);
#544 = CARTESIAN_POINT('',(-30.,-3.E-15,-13.5));
#545 = DIRECTION('',(0.,2.2E-16,1.));
#546 = DIRECTION('',(1.,0.,0.));
#547 = ADVANCED_FACE('',(#548),#559,.T.);
#548 = FACE_BOUND('',#549,.T.);
#549 = EDGE_LOOP('',(#550,#551,#557,#558));
#550 = ORIENTED_EDGE('',*,*,#536,.T.);
#551 = ORIENTED_EDGE('',*,*,#552,.T.);
#552 = EDGE_CURVE('',#529,#504,#553,.T.);
#553 = LINE('',#554,#555);
#554 = CARTESIAN_POINT('',(30.,-2.,-13.5));
#555 = VECTOR('',#556,1.);
#556 = DIRECTION('',(0.,2.2E-16,1.));
#557 = ORIENTED_EDGE('',*,*,#503,.F.);
#558 = ORIENTED_EDGE('',*,*,#180,.F.);
#559 = PLANE('',#560);
#560 = AXIS2_PLACEMENT_3D('',#561,#562,#563);
#561 = CARTESIAN_POINT('',(30.,-3.E-15,-13.5));
#562 = DIRECTION('',(-1.,0.,0.));
#563 = DIRECTION('',(0.,2.2E-16,1.));
#564 = ADVANCED_FACE('',(#565),#584,.F.);
#565 = FACE_BOUND('',#566,.F.);
#566 = EDGE_LOOP('',(#567,#568,#576,#583));
#567 = ORIENTED_EDGE('',*,*,#196,.F.);
#568 = ORIENTED_EDGE('',*,*,#569,.T.);
#569 = EDGE_CURVE('',#197,#570,#572,.T.);
#570 = VERTEX_POINT('',#571);
#571 = CARTESIAN_POINT('',(31.95,-3.,-13.5));
#572 = LINE('',#573,#574);
#573 = CARTESIAN_POINT('',(31.95,-3.E-15,-13.5));
#574 = VECTOR('',#575,1.);
#575 = DIRECTION('',(0.,-1.,2.2E-16));
#576 = ORIENTED_EDGE('',*,*,#577,.T.);
#577 = EDGE_CURVE('',#570,#570,#578,.T.);
#578 = CIRCLE('',#579,1.05);
#579 = AXIS2_PLACEMENT_3D('',#580,#581,#582);
#580 = CARTESIAN_POINT('',(33.,-3.,-13.5));
#581 = DIRECTION('',(0.,1.,-2.2E-16));
#582 = DIRECTION('',(-1.,0.,0.));
#583 = ORIENTED_EDGE('',*,*,#569,.F.);
#584 = CYLINDRICAL_SURFACE('',#585,1.05);
#585 = AXIS2_PLACEMENT_3D('',#586,#587,#588);
#586 = CARTESIAN_POINT('',(33.,-3.E-15,-13.5));
#587 = DIRECTION('',(0.,1.,-2.2E-16));
#588 = DIRECTION('',(-1.,0.,0.));
#589 = ADVANCED_FACE('',(#590),#609,.F.);
#590 = FACE_BOUND('',#591,.F.);
#591 = EDGE_LOOP('',(#592,#593,#601,#608));
#592 = ORIENTED_EDGE('',*,*,#207,.F.);
#593 = ORIENTED_EDGE('',*,*,#594,.T.);
#594 = EDGE_CURVE('',#208,#595,#597,.T.);
#595 = VERTEX_POINT('',#596);
#596 = CARTESIAN_POINT('',(31.95,-3.,13.5));
#597 = LINE('',#598,#599);
#598 = CARTESIAN_POINT('',(31.95,3.E-15,13.5));
#599 = VECTOR('',#600,1.);
#600 = DIRECTION('',(0.,-1.,2.2E-16));
#601 = ORIENTED_EDGE('',*,*,#602,.T.);
#602 = EDGE_CURVE('',#595,#595,#603,.T.);
#603 = CIRCLE('',#604,1.05);
#604 = AXIS2_PLACEMENT_3D('',#605,#606,#607);
#605 = CARTESIAN_POINT('',(33.,-3.,13.5));
#606 = DIRECTION('',(0.,1.,-2.2E-16));
#607 = DIRECTION('',(-1.,0.,0.));
#608 = ORIENTED_EDGE('',*,*,#594,.F.);
#609 = CYLINDRICAL_SURFACE('',#610,1.05);
#610 = AXIS2_PLACEMENT_3D('',#611,#612,#613);
#611 = CARTESIAN_POINT('',(33.,3.E-15,13.5));
#612 = DIRECTION('',(0.,1.,-2.2E-16));
#613 = DIRECTION('',(-1.,0.,0.));
#614 = ADVANCED_FACE('',(#615),#626,.T.);
#615 = FACE_BOUND('',#616,.T.);
#616 = EDGE_LOOP('',(#617,#624,#625));
#617 = ORIENTED_EDGE('',*,*,#618,.F.);
#618 = EDGE_CURVE('',#226,#276,#619,.T.);
#619 = CIRCLE('',#620,1.);
#620 = AXIS2_PLACEMENT_3D('',#621,#622,#623);
#621 = CARTESIAN_POINT('',(-35.,-2.,15.5));
#622 = DIRECTION('',(1.,0.,0.));
#623 = DIRECTION('',(0.,-1.,2.2E-16));
#624 = ORIENTED_EDGE('',*,*,#233,.T.);
#625 = ORIENTED_EDGE('',*,*,#275,.F.);
#626 = SPHERICAL_SURFACE('',#627,1.);
#627 = AXIS2_PLACEMENT_3D('',#628,#629,#630);
#628 = CARTESIAN_POINT('',(-35.,-2.,15.5));
#629 = DIRECTION('',(-0.,-2.2E-16,-1.));
#630 = DIRECTION('',(0.,-1.,2.2E-16));
#631 = ADVANCED_FACE('',(#632),#643,.T.);
#632 = FACE_BOUND('',#633,.F.);
#633 = EDGE_LOOP('',(#634,#641,#642));
#634 = ORIENTED_EDGE('',*,*,#635,.F.);
#635 = EDGE_CURVE('',#251,#285,#636,.T.);
#636 = CIRCLE('',#637,1.);
#637 = AXIS2_PLACEMENT_3D('',#638,#639,#640);
#638 = CARTESIAN_POINT('',(-35.,-2.,-15.5));
#639 = DIRECTION('',(-1.,0.,0.));
#640 = DIRECTION('',(0.,-1.,2.2E-16));
#641 = ORIENTED_EDGE('',*,*,#258,.T.);
#642 = ORIENTED_EDGE('',*,*,#292,.F.);
#643 = SPHERICAL_SURFACE('',#644,1.);
#644 = AXIS2_PLACEMENT_3D('',#645,#646,#647);
#645 = CARTESIAN_POINT('',(-35.,-2.,-15.5));
#646 = DIRECTION('',(0.,2.2E-16,1.));
#647 = DIRECTION('',(0.,-1.,2.2E-16));
#648 = ADVANCED_FACE('',(#649,#674,#677,#680,#714,#717),#720,.F.);
#649 = FACE_BOUND('',#650,.F.);
#650 = EDGE_LOOP('',(#651,#652,#660,#668));
#651 = ORIENTED_EDGE('',*,*,#284,.F.);
#652 = ORIENTED_EDGE('',*,*,#653,.F.);
#653 = EDGE_CURVE('',#654,#276,#656,.T.);
#654 = VERTEX_POINT('',#655);
#655 = CARTESIAN_POINT('',(35.,-3.,15.5));
#656 = LINE('',#657,#658);
#657 = CARTESIAN_POINT('',(36.,-3.,15.5));
#658 = VECTOR('',#659,1.);
#659 = DIRECTION('',(-1.,0.,0.));
#660 = ORIENTED_EDGE('',*,*,#661,.F.);
#661 = EDGE_CURVE('',#662,#654,#664,.T.);
#662 = VERTEX_POINT('',#663);
#663 = CARTESIAN_POINT('',(35.,-3.,-15.5));
#664 = LINE('',#665,#666);
#665 = CARTESIAN_POINT('',(35.,-3.,-16.5));
#666 = VECTOR('',#667,1.);
#667 = DIRECTION('',(0.,2.2E-16,1.));
#668 = ORIENTED_EDGE('',*,*,#669,.F.);
#669 = EDGE_CURVE('',#285,#662,#670,.T.);
#670 = LINE('',#671,#672);
#671 = CARTESIAN_POINT('',(-36.,-3.,-15.5));
#672 = VECTOR('',#673,1.);
#673 = DIRECTION('',(1.,0.,0.));
#674 = FACE_BOUND('',#675,.F.);
#675 = EDGE_LOOP('',(#676));
#676 = ORIENTED_EDGE('',*,*,#431,.F.);
#677 = FACE_BOUND('',#678,.F.);
#678 = EDGE_LOOP('',(#679));
#679 = ORIENTED_EDGE('',*,*,#456,.F.);
#680 = FACE_BOUND('',#681,.F.);
#681 = EDGE_LOOP('',(#682,#692,#700,#708));
#682 = ORIENTED_EDGE('',*,*,#683,.T.);
#683 = EDGE_CURVE('',#684,#686,#688,.T.);
#684 = VERTEX_POINT('',#685);
#685 = CARTESIAN_POINT('',(-31.,-3.,14.5));
#686 = VERTEX_POINT('',#687);
#687 = CARTESIAN_POINT('',(-31.,-3.,-14.5));
#688 = LINE('',#689,#690);
#689 = CARTESIAN_POINT('',(-31.,-3.,13.5));
#690 = VECTOR('',#691,1.);
#691 = DIRECTION('',(0.,-2.2E-16,-1.));
#692 = ORIENTED_EDGE('',*,*,#693,.T.);
#693 = EDGE_CURVE('',#686,#694,#696,.T.);
#694 = VERTEX_POINT('',#695);
#695 = CARTESIAN_POINT('',(31.,-3.,-14.5));
#696 = LINE('',#697,#698);
#697 = CARTESIAN_POINT('',(-30.,-3.,-14.5));
#698 = VECTOR('',#699,1.);
#699 = DIRECTION('',(1.,0.,0.));
#700 = ORIENTED_EDGE('',*,*,#701,.T.);
#701 = EDGE_CURVE('',#694,#702,#704,.T.);
#702 = VERTEX_POINT('',#703);
#703 = CARTESIAN_POINT('',(31.,-3.,14.5));
#704 = LINE('',#705,#706);
#705 = CARTESIAN_POINT('',(31.,-3.,-13.5));
#706 = VECTOR('',#707,1.);
#707 = DIRECTION('',(0.,2.2E-16,1.));
#708 = ORIENTED_EDGE('',*,*,#709,.T.);
#709 = EDGE_CURVE('',#702,#684,#710,.T.);
#710 = LINE('',#711,#712);
#711 = CARTESIAN_POINT('',(30.,-3.,14.5));
#712 = VECTOR('',#713,1.);
#713 = DIRECTION('',(-1.,0.,0.));
#714 = FACE_BOUND('',#715,.F.);
#715 = EDGE_LOOP('',(#716));
#716 = ORIENTED_EDGE('',*,*,#577,.F.);
#717 = FACE_BOUND('',#718,.F.);
#718 = EDGE_LOOP('',(#719));
#719 = ORIENTED_EDGE('',*,*,#602,.F.);
#720 = PLANE('',#721);
#721 = AXIS2_PLACEMENT_3D('',#722,#723,#724);
#722 = CARTESIAN_POINT('',(-3.1205E-13,-3.,2.024E-14));
#723 = DIRECTION('',(0.,1.,0.));
#724 = DIRECTION('',(0.,0.,1.));
#725 = ADVANCED_FACE('',(#726),#738,.T.);
#726 = FACE_BOUND('',#727,.F.);
#727 = EDGE_LOOP('',(#728,#735,#736,#737));
#728 = ORIENTED_EDGE('',*,*,#729,.T.);
#729 = EDGE_CURVE('',#309,#654,#730,.T.);
#730 = CIRCLE('',#731,1.);
#731 = AXIS2_PLACEMENT_3D('',#732,#733,#734);
#732 = CARTESIAN_POINT('',(35.,-2.,15.5));
#733 = DIRECTION('',(1.,0.,0.));
#734 = DIRECTION('',(0.,-1.,2.2E-16));
#735 = ORIENTED_EDGE('',*,*,#653,.T.);
#736 = ORIENTED_EDGE('',*,*,#618,.F.);
#737 = ORIENTED_EDGE('',*,*,#316,.F.);
#738 = CYLINDRICAL_SURFACE('',#739,1.);
#739 = AXIS2_PLACEMENT_3D('',#740,#741,#742);
#740 = CARTESIAN_POINT('',(36.,-2.,15.5));
#741 = DIRECTION('',(-1.,0.,0.));
#742 = DIRECTION('',(0.,2.2E-16,1.));
#743 = ADVANCED_FACE('',(#744),#756,.T.);
#744 = FACE_BOUND('',#745,.F.);
#745 = EDGE_LOOP('',(#746,#747,#748,#755));
#746 = ORIENTED_EDGE('',*,*,#635,.T.);
#747 = ORIENTED_EDGE('',*,*,#669,.T.);
#748 = ORIENTED_EDGE('',*,*,#749,.T.);
#749 = EDGE_CURVE('',#662,#334,#750,.T.);
#750 = CIRCLE('',#751,1.);
#751 = AXIS2_PLACEMENT_3D('',#752,#753,#754);
#752 = CARTESIAN_POINT('',(35.,-2.,-15.5));
#753 = DIRECTION('',(1.,0.,0.));
#754 = DIRECTION('',(0.,-1.,0.));
#755 = ORIENTED_EDGE('',*,*,#333,.F.);
#756 = CYLINDRICAL_SURFACE('',#757,1.);
#757 = AXIS2_PLACEMENT_3D('',#758,#759,#760);
#758 = CARTESIAN_POINT('',(-36.,-2.,-15.5));
#759 = DIRECTION('',(1.,0.,0.));
#760 = DIRECTION('',(0.,-2.2E-16,-1.));
#761 = ADVANCED_FACE('',(#762),#773,.T.);
#762 = FACE_BOUND('',#763,.F.);
#763 = EDGE_LOOP('',(#764,#765,#766));
#764 = ORIENTED_EDGE('',*,*,#729,.F.);
#765 = ORIENTED_EDGE('',*,*,#357,.T.);
#766 = ORIENTED_EDGE('',*,*,#767,.F.);
#767 = EDGE_CURVE('',#654,#358,#768,.T.);
#768 = CIRCLE('',#769,1.);
#769 = AXIS2_PLACEMENT_3D('',#770,#771,#772);
#770 = CARTESIAN_POINT('',(35.,-2.,15.5));
#771 = DIRECTION('',(-0.,2.2E-16,1.));
#772 = DIRECTION('',(0.,-1.,2.2E-16));
#773 = SPHERICAL_SURFACE('',#774,1.);
#774 = AXIS2_PLACEMENT_3D('',#775,#776,#777);
#775 = CARTESIAN_POINT('',(35.,-2.,15.5));
#776 = DIRECTION('',(-0.,-2.2E-16,-1.));
#777 = DIRECTION('',(0.,-1.,2.2E-16));
#778 = ADVANCED_FACE('',(#779),#790,.T.);
#779 = FACE_BOUND('',#780,.F.);
#780 = EDGE_LOOP('',(#781,#788,#789));
#781 = ORIENTED_EDGE('',*,*,#782,.F.);
#782 = EDGE_CURVE('',#382,#662,#783,.T.);
#783 = CIRCLE('',#784,1.);
#784 = AXIS2_PLACEMENT_3D('',#785,#786,#787);
#785 = CARTESIAN_POINT('',(35.,-2.,-15.5));
#786 = DIRECTION('',(-0.,-0.,-1.));
#787 = DIRECTION('',(0.,-1.,0.));
#788 = ORIENTED_EDGE('',*,*,#389,.T.);
#789 = ORIENTED_EDGE('',*,*,#749,.F.);
#790 = SPHERICAL_SURFACE('',#791,1.);
#791 = AXIS2_PLACEMENT_3D('',#792,#793,#794);
#792 = CARTESIAN_POINT('',(35.,-2.,-15.5));
#793 = DIRECTION('',(-1.,0.,0.));
#794 = DIRECTION('',(0.,-1.,0.));
#795 = ADVANCED_FACE('',(#796),#802,.T.);
#796 = FACE_BOUND('',#797,.F.);
#797 = EDGE_LOOP('',(#798,#799,#800,#801));
#798 = ORIENTED_EDGE('',*,*,#782,.T.);
#799 = ORIENTED_EDGE('',*,*,#661,.T.);
#800 = ORIENTED_EDGE('',*,*,#767,.T.);
#801 = ORIENTED_EDGE('',*,*,#407,.F.);
#802 = CYLINDRICAL_SURFACE('',#803,1.);
#803 = AXIS2_PLACEMENT_3D('',#804,#805,#806);
#804 = CARTESIAN_POINT('',(35.,-2.,-16.5));
#805 = DIRECTION('',(0.,2.2E-16,1.));
#806 = DIRECTION('',(1.,0.,0.));
#807 = ADVANCED_FACE('',(#808),#826,.T.);
#808 = FACE_BOUND('',#809,.T.);
#809 = EDGE_LOOP('',(#810,#817,#818,#825));
#810 = ORIENTED_EDGE('',*,*,#811,.T.);
#811 = EDGE_CURVE('',#473,#684,#812,.T.);
#812 = ELLIPSE('',#813,1.414213562373,1.);
#813 = AXIS2_PLACEMENT_3D('',#814,#815,#816);
#814 = CARTESIAN_POINT('',(-31.,-2.,14.5));
#815 = DIRECTION('',(-0.707106781187,-1.6E-16,-0.707106781187));
#816 = DIRECTION('',(0.707106781187,-1.6E-16,-0.707106781187));
#817 = ORIENTED_EDGE('',*,*,#683,.T.);
#818 = ORIENTED_EDGE('',*,*,#819,.F.);
#819 = EDGE_CURVE('',#481,#686,#820,.T.);
#820 = ELLIPSE('',#821,1.414213562373,1.);
#821 = AXIS2_PLACEMENT_3D('',#822,#823,#824);
#822 = CARTESIAN_POINT('',(-31.,-2.,-14.5));
#823 = DIRECTION('',(0.707106781187,-1.6E-16,-0.707106781187));
#824 = DIRECTION('',(-0.707106781187,-1.6E-16,-0.707106781187));
#825 = ORIENTED_EDGE('',*,*,#480,.F.);
#826 = CYLINDRICAL_SURFACE('',#827,1.);
#827 = AXIS2_PLACEMENT_3D('',#828,#829,#830);
#828 = CARTESIAN_POINT('',(-31.,-2.,13.5));
#829 = DIRECTION('',(0.,-2.2E-16,-1.));
#830 = DIRECTION('',(1.,0.,0.));
#831 = ADVANCED_FACE('',(#832),#844,.T.);
#832 = FACE_BOUND('',#833,.T.);
#833 = EDGE_LOOP('',(#834,#841,#842,#843));
#834 = ORIENTED_EDGE('',*,*,#835,.T.);
#835 = EDGE_CURVE('',#504,#702,#836,.T.);
#836 = ELLIPSE('',#837,1.414213562373,1.);
#837 = AXIS2_PLACEMENT_3D('',#838,#839,#840);
#838 = CARTESIAN_POINT('',(31.,-2.,14.5));
#839 = DIRECTION('',(-0.707106781187,1.6E-16,0.707106781187));
#840 = DIRECTION('',(0.707106781187,1.6E-16,0.707106781187));
#841 = ORIENTED_EDGE('',*,*,#709,.T.);
#842 = ORIENTED_EDGE('',*,*,#811,.F.);
#843 = ORIENTED_EDGE('',*,*,#511,.F.);
#844 = CYLINDRICAL_SURFACE('',#845,1.);
#845 = AXIS2_PLACEMENT_3D('',#846,#847,#848);
#846 = CARTESIAN_POINT('',(30.,-2.,14.5));
#847 = DIRECTION('',(-1.,0.,0.));
#848 = DIRECTION('',(-0.,-2.2E-16,-1.));
#849 = ADVANCED_FACE('',(#850),#862,.T.);
#850 = FACE_BOUND('',#851,.T.);
#851 = EDGE_LOOP('',(#852,#853,#854,#861));
#852 = ORIENTED_EDGE('',*,*,#819,.T.);
#853 = ORIENTED_EDGE('',*,*,#693,.T.);
#854 = ORIENTED_EDGE('',*,*,#855,.F.);
#855 = EDGE_CURVE('',#529,#694,#856,.T.);
#856 = ELLIPSE('',#857,1.414213562373,1.);
#857 = AXIS2_PLACEMENT_3D('',#858,#859,#860);
#858 = CARTESIAN_POINT('',(31.,-2.,-14.5));
#859 = DIRECTION('',(0.707106781187,1.6E-16,0.707106781187));
#860 = DIRECTION('',(0.707106781187,-1.6E-16,-0.707106781187));
#861 = ORIENTED_EDGE('',*,*,#528,.F.);
#862 = CYLINDRICAL_SURFACE('',#863,1.);
#863 = AXIS2_PLACEMENT_3D('',#864,#865,#866);
#864 = CARTESIAN_POINT('',(-30.,-2.,-14.5));
#865 = DIRECTION('',(1.,0.,0.));
#866 = DIRECTION('',(0.,2.2E-16,1.));
#867 = ADVANCED_FACE('',(#868),#874,.T.);
#868 = FACE_BOUND('',#869,.T.);
#869 = EDGE_LOOP('',(#870,#871,#872,#873));
#870 = ORIENTED_EDGE('',*,*,#855,.T.);
#871 = ORIENTED_EDGE('',*,*,#701,.T.);
#872 = ORIENTED_EDGE('',*,*,#835,.F.);
#873 = ORIENTED_EDGE('',*,*,#552,.F.);
#874 = CYLINDRICAL_SURFACE('',#875,1.);
#875 = AXIS2_PLACEMENT_3D('',#876,#877,#878);
#876 = CARTESIAN_POINT('',(31.,-2.,-13.5));
#877 = DIRECTION('',(0.,2.2E-16,1.));
#878 = DIRECTION('',(-1.,0.,0.));
#879 = ( GEOMETRIC_REPRESENTATION_CONTEXT(3) 
GLOBAL_UNCERTAINTY_ASSIGNED_CONTEXT((#883)) GLOBAL_UNIT_ASSIGNED_CONTEXT
((#880,#881,#882)) REPRESENTATION_CONTEXT('Context #1',
  '3D Context with UNIT and UNCERTAINTY') );
#880 = ( LENGTH_UNIT() NAMED_UNIT(*) SI_UNIT(.MILLI.,.METRE.) );
#881 = ( NAMED_UNIT(*) PLANE_ANGLE_UNIT() SI_UNIT($,.RADIAN.) );
#882 = ( NAMED_UNIT(*) SI_UNIT($,.STERADIAN.) SOLID_ANGLE_UNIT() );
#883 = UNCERTAINTY_MEASURE_WITH_UNIT(LENGTH_MEASURE(1.E-07),#880,
  'distance_accuracy_value','confusion accuracy');
#884 = CONTEXT_DEPENDENT_SHAPE_REPRESENTATION(#885,#887);
#885 = ( REPRESENTATION_RELATIONSHIP('','',#32,#10) 
REPRESENTATION_RELATIONSHIP_WITH_TRANSFORMATION(#886) 
SHAPE_REPRESENTATION_RELATIONSHIP() );
#886 = ITEM_DEFINED_TRANSFORMATION('','',#11,#15);
#887 = PRODUCT_DEFINITION_SHAPE('Placement','Placement of an item',#888
  );
#888 = NEXT_ASSEMBLY_USAGE_OCCURRENCE('2','Body','',#5,#27,$);
#889 = PRODUCT_RELATED_PRODUCT_CATEGORY('part',$,(#29));
#890 = MECHANICAL_DESIGN_GEOMETRIC_PRESENTATION_REPRESENTATION('',(#891)
  ,#879);
#891 = STYLED_ITEM('color',(#892),#33);
#892 = PRESENTATION_STYLE_ASSIGNMENT((#893,#899));
#893 = SURFACE_STYLE_USAGE(.BOTH.,#894);
#894 = SURFACE_SIDE_STYLE('',(#895));
#895 = SURFACE_STYLE_FILL_AREA(#896);
#896 = FILL_AREA_STYLE('',(#897));
#897 = FILL_AREA_STYLE_COLOUR('',#898);
#898 = COLOUR_RGB('',0.447058818107,0.474509808674,0.501960817233);
#899 = CURVE_STYLE('',#900,POSITIVE_LENGTH_MEASURE(0.1),#901);
#900 = DRAUGHTING_PRE_DEFINED_CURVE_FONT('continuous');
#901 = COLOUR_RGB('',9.803921802644E-02,9.803921802644E-02,
  9.803921802644E-02);
ENDSEC;
END-ISO-10303-21;
