ISO-10303-21;
HEADER;
FILE_DESCRIPTION(('FreeCAD Model'),'2;1');
FILE_NAME('Open CASCADE Shape Model','2025-10-16T04:40:35',(''),(''),
  'Open CASCADE STEP processor 7.8','FreeCAD','Unknown');
FILE_SCHEMA(('AUTOMOTIVE_DESIGN { 1 0 10303 214 1 1 1 1 }'));
ENDSEC;
DATA;
#1 = APPLICATION_PROTOCOL_DEFINITION('international standard',
  'automotive_design',2000,#2);
#2 = APPLICATION_CONTEXT(
  'core data for automotive mechanical design processes');
#3 = SHAPE_DEFINITION_REPRESENTATION(#4,#10);
#4 = PRODUCT_DEFINITION_SHAPE('','',#5);
#5 = PRODUCT_DEFINITION('design','',#6,#9);
#6 = PRODUCT_DEFINITION_FORMATION('','',#7);
#7 = PRODUCT('Part','Part','',(#8));
#8 = PRODUCT_CONTEXT('',#2,'mechanical');
#9 = PRODUCT_DEFINITION_CONTEXT('part definition',#2,'design');
#10 = SHAPE_REPRESENTATION('',(#11,#15),#19);
#11 = AXIS2_PLACEMENT_3D('',#12,#13,#14);
#12 = CARTESIAN_POINT('',(0.,0.,0.));
#13 = DIRECTION('',(0.,0.,1.));
#14 = DIRECTION('',(1.,0.,-0.));
#15 = AXIS2_PLACEMENT_3D('',#16,#17,#18);
#16 = CARTESIAN_POINT('',(0.,0.,0.));
#17 = DIRECTION('',(0.,0.,1.));
#18 = DIRECTION('',(1.,0.,0.));
#19 = ( GEOMETRIC_REPRESENTATION_CONTEXT(3) 
GLOBAL_UNCERTAINTY_ASSIGNED_CONTEXT((#23)) GLOBAL_UNIT_ASSIGNED_CONTEXT(
(#20,#21,#22)) REPRESENTATION_CONTEXT('Context #1',
  '3D Context with UNIT and UNCERTAINTY') );
#20 = ( LENGTH_UNIT() NAMED_UNIT(*) SI_UNIT(.MILLI.,.METRE.) );
#21 = ( NAMED_UNIT(*) PLANE_ANGLE_UNIT() SI_UNIT($,.RADIAN.) );
#22 = ( NAMED_UNIT(*) SI_UNIT($,.STERADIAN.) SOLID_ANGLE_UNIT() );
#23 = UNCERTAINTY_MEASURE_WITH_UNIT(LENGTH_MEASURE(1.E-07),#20,
  'distance_accuracy_value','confusion accuracy');
#24 = PRODUCT_RELATED_PRODUCT_CATEGORY('part',$,(#7));
#25 = SHAPE_DEFINITION_REPRESENTATION(#26,#32);
#26 = PRODUCT_DEFINITION_SHAPE('','',#27);
#27 = PRODUCT_DEFINITION('design','',#28,#31);
#28 = PRODUCT_DEFINITION_FORMATION('','',#29);
#29 = PRODUCT('Body','Body','',(#30));
#30 = PRODUCT_CONTEXT('',#2,'mechanical');
#31 = PRODUCT_DEFINITION_CONTEXT('part definition',#2,'design');
#32 = ADVANCED_BREP_SHAPE_REPRESENTATION('',(#11,#33),#1609);
#33 = MANIFOLD_SOLID_BREP('',#34);
#34 = CLOSED_SHELL('',(#35,#97,#128,#159,#190,#221,#246,#271,#287,#303,
    #368,#384,#415,#431,#484,#549,#574,#599,#616,#633,#664,#695,#719,
    #743,#760,#777,#806,#823,#852,#877,#902,#929,#960,#984,#1008,#1025,
    #1045,#1065,#1076,#1087,#1121,#1165,#1182,#1221,#1255,#1266,#1277,
    #1302,#1327,#1344,#1361,#1386,#1411,#1436,#1461,#1486,#1511,#1523,
    #1535,#1560,#1585,#1597));
#35 = ADVANCED_FACE('',(#36,#70,#81),#92,.F.);
#36 = FACE_BOUND('',#37,.F.);
#37 = EDGE_LOOP('',(#38,#48,#56,#64));
#38 = ORIENTED_EDGE('',*,*,#39,.T.);
#39 = EDGE_CURVE('',#40,#42,#44,.T.);
#40 = VERTEX_POINT('',#41);
#41 = CARTESIAN_POINT('',(-13.5,-10.5,21.05));
#42 = VERTEX_POINT('',#43);
#43 = CARTESIAN_POINT('',(-13.5,-10.5,-21.05));
#44 = LINE('',#45,#46);
#45 = CARTESIAN_POINT('',(-13.5,-10.5,21.35));
#46 = VECTOR('',#47,1.);
#47 = DIRECTION('',(0.,-2.2E-16,-1.));
#48 = ORIENTED_EDGE('',*,*,#49,.F.);
#49 = EDGE_CURVE('',#50,#42,#52,.T.);
#50 = VERTEX_POINT('',#51);
#51 = CARTESIAN_POINT('',(-13.5,10.5,-21.05));
#52 = LINE('',#53,#54);
#53 = CARTESIAN_POINT('',(-13.5,10.8,-21.05));
#54 = VECTOR('',#55,1.);
#55 = DIRECTION('',(0.,-1.,2.2E-16));
#56 = ORIENTED_EDGE('',*,*,#57,.F.);
#57 = EDGE_CURVE('',#58,#50,#60,.T.);
#58 = VERTEX_POINT('',#59);
#59 = CARTESIAN_POINT('',(-13.5,10.5,21.05));
#60 = LINE('',#61,#62);
#61 = CARTESIAN_POINT('',(-13.5,10.5,21.35));
#62 = VECTOR('',#63,1.);
#63 = DIRECTION('',(0.,-2.2E-16,-1.));
#64 = ORIENTED_EDGE('',*,*,#65,.T.);
#65 = EDGE_CURVE('',#58,#40,#66,.T.);
#66 = LINE('',#67,#68);
#67 = CARTESIAN_POINT('',(-13.5,10.8,21.05));
#68 = VECTOR('',#69,1.);
#69 = DIRECTION('',(0.,-1.,2.2E-16));
#70 = FACE_BOUND('',#71,.F.);
#71 = EDGE_LOOP('',(#72));
#72 = ORIENTED_EDGE('',*,*,#73,.T.);
#73 = EDGE_CURVE('',#74,#74,#76,.T.);
#74 = VERTEX_POINT('',#75);
#75 = CARTESIAN_POINT('',(-13.5,-5.,4.05));
#76 = CIRCLE('',#77,3.8);
#77 = AXIS2_PLACEMENT_3D('',#78,#79,#80);
#78 = CARTESIAN_POINT('',(-13.5,-5.,7.85));
#79 = DIRECTION('',(-1.,-0.,0.));
#80 = DIRECTION('',(0.,-3.E-17,-1.));
#81 = FACE_BOUND('',#82,.F.);
#82 = EDGE_LOOP('',(#83));
#83 = ORIENTED_EDGE('',*,*,#84,.T.);
#84 = EDGE_CURVE('',#85,#85,#87,.T.);
#85 = VERTEX_POINT('',#86);
#86 = CARTESIAN_POINT('',(-13.5,5.,4.05));
#87 = CIRCLE('',#88,3.8);
#88 = AXIS2_PLACEMENT_3D('',#89,#90,#91);
#89 = CARTESIAN_POINT('',(-13.5,5.,7.85));
#90 = DIRECTION('',(-1.,0.,-0.));
#91 = DIRECTION('',(0.,2.2E-16,-1.));
#92 = PLANE('',#93);
#93 = AXIS2_PLACEMENT_3D('',#94,#95,#96);
#94 = CARTESIAN_POINT('',(-13.5,10.8,21.35));
#95 = DIRECTION('',(1.,0.,0.));
#96 = DIRECTION('',(0.,-2.2E-16,-1.));
#97 = ADVANCED_FACE('',(#98),#123,.T.);
#98 = FACE_BOUND('',#99,.T.);
#99 = EDGE_LOOP('',(#100,#101,#109,#117));
#100 = ORIENTED_EDGE('',*,*,#39,.T.);
#101 = ORIENTED_EDGE('',*,*,#102,.F.);
#102 = EDGE_CURVE('',#103,#42,#105,.T.);
#103 = VERTEX_POINT('',#104);
#104 = CARTESIAN_POINT('',(-13.2,-10.8,-21.05));
#105 = LINE('',#106,#107);
#106 = CARTESIAN_POINT('',(-13.35,-10.65,-21.05));
#107 = VECTOR('',#108,1.);
#108 = DIRECTION('',(-0.707106781187,0.707106781187,-1.234E-14));
#109 = ORIENTED_EDGE('',*,*,#110,.F.);
#110 = EDGE_CURVE('',#111,#103,#113,.T.);
#111 = VERTEX_POINT('',#112);
#112 = CARTESIAN_POINT('',(-13.2,-10.8,21.05));
#113 = LINE('',#114,#115);
#114 = CARTESIAN_POINT('',(-13.2,-10.8,21.35));
#115 = VECTOR('',#116,1.);
#116 = DIRECTION('',(0.,-2.2E-16,-1.));
#117 = ORIENTED_EDGE('',*,*,#118,.T.);
#118 = EDGE_CURVE('',#111,#40,#119,.T.);
#119 = LINE('',#120,#121);
#120 = CARTESIAN_POINT('',(-13.35,-10.65,21.05));
#121 = VECTOR('',#122,1.);
#122 = DIRECTION('',(-0.707106781187,0.707106781187,-4.07E-15));
#123 = PLANE('',#124);
#124 = AXIS2_PLACEMENT_3D('',#125,#126,#127);
#125 = CARTESIAN_POINT('',(-13.35,-10.65,21.35));
#126 = DIRECTION('',(-0.707106781187,-0.707106781187,9.E-17));
#127 = DIRECTION('',(5.136038969321E-17,-1.786396103068E-16,-1.));
#128 = ADVANCED_FACE('',(#129),#154,.T.);
#129 = FACE_BOUND('',#130,.T.);
#130 = EDGE_LOOP('',(#131,#132,#140,#148));
#131 = ORIENTED_EDGE('',*,*,#65,.T.);
#132 = ORIENTED_EDGE('',*,*,#133,.F.);
#133 = EDGE_CURVE('',#134,#40,#136,.T.);
#134 = VERTEX_POINT('',#135);
#135 = CARTESIAN_POINT('',(-13.2,-10.5,21.35));
#136 = LINE('',#137,#138);
#137 = CARTESIAN_POINT('',(-13.275,-10.5,21.275));
#138 = VECTOR('',#139,1.);
#139 = DIRECTION('',(-0.707106781187,1.6E-16,-0.707106781187));
#140 = ORIENTED_EDGE('',*,*,#141,.F.);
#141 = EDGE_CURVE('',#142,#134,#144,.T.);
#142 = VERTEX_POINT('',#143);
#143 = CARTESIAN_POINT('',(-13.2,10.5,21.35));
#144 = LINE('',#145,#146);
#145 = CARTESIAN_POINT('',(-13.2,10.8,21.35));
#146 = VECTOR('',#147,1.);
#147 = DIRECTION('',(0.,-1.,2.2E-16));
#148 = ORIENTED_EDGE('',*,*,#149,.F.);
#149 = EDGE_CURVE('',#58,#142,#150,.T.);
#150 = LINE('',#151,#152);
#151 = CARTESIAN_POINT('',(-13.35,10.5,21.2));
#152 = VECTOR('',#153,1.);
#153 = DIRECTION('',(0.707106781187,3.88E-15,0.707106781187));
#154 = PLANE('',#155);
#155 = AXIS2_PLACEMENT_3D('',#156,#157,#158);
#156 = CARTESIAN_POINT('',(-13.35,10.8,21.2));
#157 = DIRECTION('',(-0.707106781187,9.E-17,0.707106781187));
#158 = DIRECTION('',(5.136038969321E-17,-1.,1.786396103068E-16));
#159 = ADVANCED_FACE('',(#160),#185,.T.);
#160 = FACE_BOUND('',#161,.F.);
#161 = EDGE_LOOP('',(#162,#163,#171,#179));
#162 = ORIENTED_EDGE('',*,*,#49,.T.);
#163 = ORIENTED_EDGE('',*,*,#164,.F.);
#164 = EDGE_CURVE('',#165,#42,#167,.T.);
#165 = VERTEX_POINT('',#166);
#166 = CARTESIAN_POINT('',(-13.2,-10.5,-21.35));
#167 = LINE('',#168,#169);
#168 = CARTESIAN_POINT('',(-13.275,-10.5,-21.275));
#169 = VECTOR('',#170,1.);
#170 = DIRECTION('',(-0.707106781187,-4.39E-15,0.707106781187));
#171 = ORIENTED_EDGE('',*,*,#172,.F.);
#172 = EDGE_CURVE('',#173,#165,#175,.T.);
#173 = VERTEX_POINT('',#174);
#174 = CARTESIAN_POINT('',(-13.2,10.5,-21.35));
#175 = LINE('',#176,#177);
#176 = CARTESIAN_POINT('',(-13.2,10.8,-21.35));
#177 = VECTOR('',#178,1.);
#178 = DIRECTION('',(0.,-1.,2.2E-16));
#179 = ORIENTED_EDGE('',*,*,#180,.T.);
#180 = EDGE_CURVE('',#173,#50,#181,.T.);
#181 = LINE('',#182,#183);
#182 = CARTESIAN_POINT('',(-13.35,10.5,-21.2));
#183 = VECTOR('',#184,1.);
#184 = DIRECTION('',(-0.707106781187,-2.535E-14,0.707106781187));
#185 = PLANE('',#186);
#186 = AXIS2_PLACEMENT_3D('',#187,#188,#189);
#187 = CARTESIAN_POINT('',(-13.35,10.8,-21.2));
#188 = DIRECTION('',(-0.707106781187,-9.E-17,-0.707106781187));
#189 = DIRECTION('',(5.136038969321E-17,1.,-1.786396103068E-16));
#190 = ADVANCED_FACE('',(#191),#216,.F.);
#191 = FACE_BOUND('',#192,.F.);
#192 = EDGE_LOOP('',(#193,#201,#202,#210));
#193 = ORIENTED_EDGE('',*,*,#194,.T.);
#194 = EDGE_CURVE('',#195,#58,#197,.T.);
#195 = VERTEX_POINT('',#196);
#196 = CARTESIAN_POINT('',(-13.2,10.8,21.05));
#197 = LINE('',#198,#199);
#198 = CARTESIAN_POINT('',(-13.275,10.725,21.05));
#199 = VECTOR('',#200,1.);
#200 = DIRECTION('',(-0.707106781187,-0.707106781187,-1.6E-16));
#201 = ORIENTED_EDGE('',*,*,#57,.T.);
#202 = ORIENTED_EDGE('',*,*,#203,.F.);
#203 = EDGE_CURVE('',#204,#50,#206,.T.);
#204 = VERTEX_POINT('',#205);
#205 = CARTESIAN_POINT('',(-13.2,10.8,-21.05));
#206 = LINE('',#207,#208);
#207 = CARTESIAN_POINT('',(-13.275,10.725,-21.05));
#208 = VECTOR('',#209,1.);
#209 = DIRECTION('',(-0.707106781187,-0.707106781187,1.244E-14));
#210 = ORIENTED_EDGE('',*,*,#211,.F.);
#211 = EDGE_CURVE('',#195,#204,#212,.T.);
#212 = LINE('',#213,#214);
#213 = CARTESIAN_POINT('',(-13.2,10.8,21.35));
#214 = VECTOR('',#215,1.);
#215 = DIRECTION('',(0.,-2.2E-16,-1.));
#216 = PLANE('',#217);
#217 = AXIS2_PLACEMENT_3D('',#218,#219,#220);
#218 = CARTESIAN_POINT('',(-13.35,10.65,21.35));
#219 = DIRECTION('',(0.707106781187,-0.707106781187,9.E-17));
#220 = DIRECTION('',(-5.136038969321E-17,-1.786396103068E-16,-1.));
#221 = ADVANCED_FACE('',(#222),#241,.F.);
#222 = FACE_BOUND('',#223,.T.);
#223 = EDGE_LOOP('',(#224,#232,#233,#234));
#224 = ORIENTED_EDGE('',*,*,#225,.F.);
#225 = EDGE_CURVE('',#74,#226,#228,.T.);
#226 = VERTEX_POINT('',#227);
#227 = CARTESIAN_POINT('',(-13.2,-5.,4.35));
#228 = LINE('',#229,#230);
#229 = CARTESIAN_POINT('',(-13.2,-5.,4.35));
#230 = VECTOR('',#231,1.);
#231 = DIRECTION('',(0.707106781187,2.E-17,0.707106781187));
#232 = ORIENTED_EDGE('',*,*,#73,.T.);
#233 = ORIENTED_EDGE('',*,*,#225,.T.);
#234 = ORIENTED_EDGE('',*,*,#235,.F.);
#235 = EDGE_CURVE('',#226,#226,#236,.T.);
#236 = CIRCLE('',#237,3.5);
#237 = AXIS2_PLACEMENT_3D('',#238,#239,#240);
#238 = CARTESIAN_POINT('',(-13.2,-5.,7.85));
#239 = DIRECTION('',(-1.,-0.,0.));
#240 = DIRECTION('',(0.,-3.E-17,-1.));
#241 = CONICAL_SURFACE('',#242,3.5,0.785398163397);
#242 = AXIS2_PLACEMENT_3D('',#243,#244,#245);
#243 = CARTESIAN_POINT('',(-13.2,-5.,7.85));
#244 = DIRECTION('',(-1.,-0.,-0.));
#245 = DIRECTION('',(0.,-3.E-17,-1.));
#246 = ADVANCED_FACE('',(#247),#266,.F.);
#247 = FACE_BOUND('',#248,.T.);
#248 = EDGE_LOOP('',(#249,#257,#258,#259));
#249 = ORIENTED_EDGE('',*,*,#250,.F.);
#250 = EDGE_CURVE('',#85,#251,#253,.T.);
#251 = VERTEX_POINT('',#252);
#252 = CARTESIAN_POINT('',(-13.2,5.,4.35));
#253 = LINE('',#254,#255);
#254 = CARTESIAN_POINT('',(-13.2,5.,4.35));
#255 = VECTOR('',#256,1.);
#256 = DIRECTION('',(0.707106781187,-1.6E-16,0.707106781187));
#257 = ORIENTED_EDGE('',*,*,#84,.T.);
#258 = ORIENTED_EDGE('',*,*,#250,.T.);
#259 = ORIENTED_EDGE('',*,*,#260,.F.);
#260 = EDGE_CURVE('',#251,#251,#261,.T.);
#261 = CIRCLE('',#262,3.5);
#262 = AXIS2_PLACEMENT_3D('',#263,#264,#265);
#263 = CARTESIAN_POINT('',(-13.2,5.,7.85));
#264 = DIRECTION('',(-1.,0.,-0.));
#265 = DIRECTION('',(0.,2.2E-16,-1.));
#266 = CONICAL_SURFACE('',#267,3.5,0.785398163397);
#267 = AXIS2_PLACEMENT_3D('',#268,#269,#270);
#268 = CARTESIAN_POINT('',(-13.2,5.,7.85));
#269 = DIRECTION('',(-1.,-0.,-0.));
#270 = DIRECTION('',(0.,2.2E-16,-1.));
#271 = ADVANCED_FACE('',(#272),#282,.T.);
#272 = FACE_BOUND('',#273,.T.);
#273 = EDGE_LOOP('',(#274,#280,#281));
#274 = ORIENTED_EDGE('',*,*,#275,.F.);
#275 = EDGE_CURVE('',#134,#111,#276,.T.);
#276 = LINE('',#277,#278);
#277 = CARTESIAN_POINT('',(-13.2,-10.575,21.275));
#278 = VECTOR('',#279,1.);
#279 = DIRECTION('',(-4.23E-15,-0.707106781187,-0.707106781187));
#280 = ORIENTED_EDGE('',*,*,#133,.T.);
#281 = ORIENTED_EDGE('',*,*,#118,.F.);
#282 = PLANE('',#283);
#283 = AXIS2_PLACEMENT_3D('',#284,#285,#286);
#284 = CARTESIAN_POINT('',(-13.2,-10.5,21.35));
#285 = DIRECTION('',(-0.57735026919,-0.57735026919,0.57735026919));
#286 = DIRECTION('',(-0.707106781187,0.707106781187,8.326672684689E-17)
  );
#287 = ADVANCED_FACE('',(#288),#298,.F.);
#288 = FACE_BOUND('',#289,.F.);
#289 = EDGE_LOOP('',(#290,#296,#297));
#290 = ORIENTED_EDGE('',*,*,#291,.F.);
#291 = EDGE_CURVE('',#165,#103,#292,.T.);
#292 = LINE('',#293,#294);
#293 = CARTESIAN_POINT('',(-13.2,-10.575,-21.275));
#294 = VECTOR('',#295,1.);
#295 = DIRECTION('',(8.27E-15,-0.707106781187,0.707106781187));
#296 = ORIENTED_EDGE('',*,*,#164,.T.);
#297 = ORIENTED_EDGE('',*,*,#102,.F.);
#298 = PLANE('',#299);
#299 = AXIS2_PLACEMENT_3D('',#300,#301,#302);
#300 = CARTESIAN_POINT('',(-13.2,-10.5,-21.35));
#301 = DIRECTION('',(0.57735026919,0.57735026919,0.57735026919));
#302 = DIRECTION('',(-0.707106781187,0.707106781187,1.665334536938E-16)
  );
#303 = ADVANCED_FACE('',(#304,#329),#363,.F.);
#304 = FACE_BOUND('',#305,.F.);
#305 = EDGE_LOOP('',(#306,#307,#315,#323));
#306 = ORIENTED_EDGE('',*,*,#110,.F.);
#307 = ORIENTED_EDGE('',*,*,#308,.F.);
#308 = EDGE_CURVE('',#309,#111,#311,.T.);
#309 = VERTEX_POINT('',#310);
#310 = CARTESIAN_POINT('',(13.2,-10.8,21.05));
#311 = LINE('',#312,#313);
#312 = CARTESIAN_POINT('',(13.5,-10.8,21.05));
#313 = VECTOR('',#314,1.);
#314 = DIRECTION('',(-1.,-0.,0.));
#315 = ORIENTED_EDGE('',*,*,#316,.F.);
#316 = EDGE_CURVE('',#317,#309,#319,.T.);
#317 = VERTEX_POINT('',#318);
#318 = CARTESIAN_POINT('',(13.2,-10.8,-21.05));
#319 = LINE('',#320,#321);
#320 = CARTESIAN_POINT('',(13.2,-10.8,-21.35));
#321 = VECTOR('',#322,1.);
#322 = DIRECTION('',(0.,2.2E-16,1.));
#323 = ORIENTED_EDGE('',*,*,#324,.F.);
#324 = EDGE_CURVE('',#103,#317,#325,.T.);
#325 = LINE('',#326,#327);
#326 = CARTESIAN_POINT('',(-13.5,-10.8,-21.05));
#327 = VECTOR('',#328,1.);
#328 = DIRECTION('',(1.,0.,0.));
#329 = FACE_BOUND('',#330,.F.);
#330 = EDGE_LOOP('',(#331,#341,#349,#357));
#331 = ORIENTED_EDGE('',*,*,#332,.T.);
#332 = EDGE_CURVE('',#333,#335,#337,.T.);
#333 = VERTEX_POINT('',#334);
#334 = CARTESIAN_POINT('',(-6.8,-10.8,14.65));
#335 = VERTEX_POINT('',#336);
#336 = CARTESIAN_POINT('',(-6.8,-10.8,-14.65));
#337 = LINE('',#338,#339);
#338 = CARTESIAN_POINT('',(-6.8,-10.8,14.35));
#339 = VECTOR('',#340,1.);
#340 = DIRECTION('',(0.,-2.2E-16,-1.));
#341 = ORIENTED_EDGE('',*,*,#342,.T.);
#342 = EDGE_CURVE('',#335,#343,#345,.T.);
#343 = VERTEX_POINT('',#344);
#344 = CARTESIAN_POINT('',(6.8,-10.8,-14.65));
#345 = LINE('',#346,#347);
#346 = CARTESIAN_POINT('',(-6.5,-10.8,-14.65));
#347 = VECTOR('',#348,1.);
#348 = DIRECTION('',(1.,0.,0.));
#349 = ORIENTED_EDGE('',*,*,#350,.T.);
#350 = EDGE_CURVE('',#343,#351,#353,.T.);
#351 = VERTEX_POINT('',#352);
#352 = CARTESIAN_POINT('',(6.8,-10.8,14.65));
#353 = LINE('',#354,#355);
#354 = CARTESIAN_POINT('',(6.8,-10.8,-14.35));
#355 = VECTOR('',#356,1.);
#356 = DIRECTION('',(0.,2.2E-16,1.));
#357 = ORIENTED_EDGE('',*,*,#358,.T.);
#358 = EDGE_CURVE('',#351,#333,#359,.T.);
#359 = LINE('',#360,#361);
#360 = CARTESIAN_POINT('',(6.5,-10.8,14.65));
#361 = VECTOR('',#362,1.);
#362 = DIRECTION('',(-1.,-0.,0.));
#363 = PLANE('',#364);
#364 = AXIS2_PLACEMENT_3D('',#365,#366,#367);
#365 = CARTESIAN_POINT('',(0.,-10.8,0.));
#366 = DIRECTION('',(0.,1.,2.2E-16));
#367 = DIRECTION('',(0.,-2.2E-16,1.));
#368 = ADVANCED_FACE('',(#369),#379,.F.);
#369 = FACE_BOUND('',#370,.F.);
#370 = EDGE_LOOP('',(#371,#372,#378));
#371 = ORIENTED_EDGE('',*,*,#194,.F.);
#372 = ORIENTED_EDGE('',*,*,#373,.T.);
#373 = EDGE_CURVE('',#195,#142,#374,.T.);
#374 = LINE('',#375,#376);
#375 = CARTESIAN_POINT('',(-13.2,10.725,21.125));
#376 = VECTOR('',#377,1.);
#377 = DIRECTION('',(-4.04E-15,-0.707106781187,0.707106781187));
#378 = ORIENTED_EDGE('',*,*,#149,.F.);
#379 = PLANE('',#380);
#380 = AXIS2_PLACEMENT_3D('',#381,#382,#383);
#381 = CARTESIAN_POINT('',(-13.2,10.8,21.05));
#382 = DIRECTION('',(0.57735026919,-0.57735026919,-0.57735026919));
#383 = DIRECTION('',(0.707106781187,4.024558464266E-15,0.707106781187));
#384 = ADVANCED_FACE('',(#385),#410,.F.);
#385 = FACE_BOUND('',#386,.F.);
#386 = EDGE_LOOP('',(#387,#395,#396,#404));
#387 = ORIENTED_EDGE('',*,*,#388,.T.);
#388 = EDGE_CURVE('',#389,#134,#391,.T.);
#389 = VERTEX_POINT('',#390);
#390 = CARTESIAN_POINT('',(13.2,-10.5,21.35));
#391 = LINE('',#392,#393);
#392 = CARTESIAN_POINT('',(13.5,-10.5,21.35));
#393 = VECTOR('',#394,1.);
#394 = DIRECTION('',(-1.,-0.,0.));
#395 = ORIENTED_EDGE('',*,*,#141,.F.);
#396 = ORIENTED_EDGE('',*,*,#397,.F.);
#397 = EDGE_CURVE('',#398,#142,#400,.T.);
#398 = VERTEX_POINT('',#399);
#399 = CARTESIAN_POINT('',(13.2,10.5,21.35));
#400 = LINE('',#401,#402);
#401 = CARTESIAN_POINT('',(13.5,10.5,21.35));
#402 = VECTOR('',#403,1.);
#403 = DIRECTION('',(-1.,-0.,0.));
#404 = ORIENTED_EDGE('',*,*,#405,.T.);
#405 = EDGE_CURVE('',#398,#389,#406,.T.);
#406 = LINE('',#407,#408);
#407 = CARTESIAN_POINT('',(13.2,10.8,21.35));
#408 = VECTOR('',#409,1.);
#409 = DIRECTION('',(0.,-1.,2.2E-16));
#410 = PLANE('',#411);
#411 = AXIS2_PLACEMENT_3D('',#412,#413,#414);
#412 = CARTESIAN_POINT('',(13.5,10.8,21.35));
#413 = DIRECTION('',(0.,-2.2E-16,-1.));
#414 = DIRECTION('',(-1.,0.,0.));
#415 = ADVANCED_FACE('',(#416),#426,.F.);
#416 = FACE_BOUND('',#417,.F.);
#417 = EDGE_LOOP('',(#418,#424,#425));
#418 = ORIENTED_EDGE('',*,*,#419,.F.);
#419 = EDGE_CURVE('',#204,#173,#420,.T.);
#420 = LINE('',#421,#422);
#421 = CARTESIAN_POINT('',(-13.2,10.725,-21.125));
#422 = VECTOR('',#423,1.);
#423 = DIRECTION('',(-1.26E-14,-0.707106781187,-0.707106781187));
#424 = ORIENTED_EDGE('',*,*,#203,.T.);
#425 = ORIENTED_EDGE('',*,*,#180,.F.);
#426 = PLANE('',#427);
#427 = AXIS2_PLACEMENT_3D('',#428,#429,#430);
#428 = CARTESIAN_POINT('',(-13.2,10.8,-21.05));
#429 = DIRECTION('',(0.57735026919,-0.57735026919,0.57735026919));
#430 = DIRECTION('',(-0.707106781187,-1.68753899743E-14,0.707106781187)
  );
#431 = ADVANCED_FACE('',(#432,#457,#468),#479,.F.);
#432 = FACE_BOUND('',#433,.F.);
#433 = EDGE_LOOP('',(#434,#442,#450,#456));
#434 = ORIENTED_EDGE('',*,*,#435,.T.);
#435 = EDGE_CURVE('',#165,#436,#438,.T.);
#436 = VERTEX_POINT('',#437);
#437 = CARTESIAN_POINT('',(13.2,-10.5,-21.35));
#438 = LINE('',#439,#440);
#439 = CARTESIAN_POINT('',(-13.5,-10.5,-21.35));
#440 = VECTOR('',#441,1.);
#441 = DIRECTION('',(1.,0.,0.));
#442 = ORIENTED_EDGE('',*,*,#443,.F.);
#443 = EDGE_CURVE('',#444,#436,#446,.T.);
#444 = VERTEX_POINT('',#445);
#445 = CARTESIAN_POINT('',(13.2,10.5,-21.35));
#446 = LINE('',#447,#448);
#447 = CARTESIAN_POINT('',(13.2,10.8,-21.35));
#448 = VECTOR('',#449,1.);
#449 = DIRECTION('',(0.,-1.,2.2E-16));
#450 = ORIENTED_EDGE('',*,*,#451,.F.);
#451 = EDGE_CURVE('',#173,#444,#452,.T.);
#452 = LINE('',#453,#454);
#453 = CARTESIAN_POINT('',(-13.5,10.5,-21.35));
#454 = VECTOR('',#455,1.);
#455 = DIRECTION('',(1.,0.,0.));
#456 = ORIENTED_EDGE('',*,*,#172,.T.);
#457 = FACE_BOUND('',#458,.F.);
#458 = EDGE_LOOP('',(#459));
#459 = ORIENTED_EDGE('',*,*,#460,.T.);
#460 = EDGE_CURVE('',#461,#461,#463,.T.);
#461 = VERTEX_POINT('',#462);
#462 = CARTESIAN_POINT('',(3.8,-5.,-21.35));
#463 = CIRCLE('',#464,3.8);
#464 = AXIS2_PLACEMENT_3D('',#465,#466,#467);
#465 = CARTESIAN_POINT('',(0.,-5.,-21.35));
#466 = DIRECTION('',(0.,-2.2E-16,-1.));
#467 = DIRECTION('',(1.,-2.5E-16,5.5E-32));
#468 = FACE_BOUND('',#469,.F.);
#469 = EDGE_LOOP('',(#470));
#470 = ORIENTED_EDGE('',*,*,#471,.T.);
#471 = EDGE_CURVE('',#472,#472,#474,.T.);
#472 = VERTEX_POINT('',#473);
#473 = CARTESIAN_POINT('',(3.8,5.,-21.35));
#474 = CIRCLE('',#475,3.8);
#475 = AXIS2_PLACEMENT_3D('',#476,#477,#478);
#476 = CARTESIAN_POINT('',(0.,5.,-21.35));
#477 = DIRECTION('',(0.,-2.2E-16,-1.));
#478 = DIRECTION('',(1.,-2.5E-16,5.5E-32));
#479 = PLANE('',#480);
#480 = AXIS2_PLACEMENT_3D('',#481,#482,#483);
#481 = CARTESIAN_POINT('',(-13.5,10.8,-21.35));
#482 = DIRECTION('',(0.,2.2E-16,1.));
#483 = DIRECTION('',(1.,0.,0.));
#484 = ADVANCED_FACE('',(#485,#510),#544,.T.);
#485 = FACE_BOUND('',#486,.T.);
#486 = EDGE_LOOP('',(#487,#497,#503,#504));
#487 = ORIENTED_EDGE('',*,*,#488,.F.);
#488 = EDGE_CURVE('',#489,#491,#493,.T.);
#489 = VERTEX_POINT('',#490);
#490 = CARTESIAN_POINT('',(13.2,10.8,-21.05));
#491 = VERTEX_POINT('',#492);
#492 = CARTESIAN_POINT('',(13.2,10.8,21.05));
#493 = LINE('',#494,#495);
#494 = CARTESIAN_POINT('',(13.2,10.8,-21.35));
#495 = VECTOR('',#496,1.);
#496 = DIRECTION('',(0.,2.2E-16,1.));
#497 = ORIENTED_EDGE('',*,*,#498,.F.);
#498 = EDGE_CURVE('',#204,#489,#499,.T.);
#499 = LINE('',#500,#501);
#500 = CARTESIAN_POINT('',(-13.5,10.8,-21.05));
#501 = VECTOR('',#502,1.);
#502 = DIRECTION('',(1.,0.,0.));
#503 = ORIENTED_EDGE('',*,*,#211,.F.);
#504 = ORIENTED_EDGE('',*,*,#505,.F.);
#505 = EDGE_CURVE('',#491,#195,#506,.T.);
#506 = LINE('',#507,#508);
#507 = CARTESIAN_POINT('',(13.5,10.8,21.05));
#508 = VECTOR('',#509,1.);
#509 = DIRECTION('',(-1.,-0.,0.));
#510 = FACE_BOUND('',#511,.T.);
#511 = EDGE_LOOP('',(#512,#522,#530,#538));
#512 = ORIENTED_EDGE('',*,*,#513,.T.);
#513 = EDGE_CURVE('',#514,#516,#518,.T.);
#514 = VERTEX_POINT('',#515);
#515 = CARTESIAN_POINT('',(-6.8,10.8,14.65));
#516 = VERTEX_POINT('',#517);
#517 = CARTESIAN_POINT('',(-6.8,10.8,-14.65));
#518 = LINE('',#519,#520);
#519 = CARTESIAN_POINT('',(-6.8,10.8,14.35));
#520 = VECTOR('',#521,1.);
#521 = DIRECTION('',(0.,-2.2E-16,-1.));
#522 = ORIENTED_EDGE('',*,*,#523,.T.);
#523 = EDGE_CURVE('',#516,#524,#526,.T.);
#524 = VERTEX_POINT('',#525);
#525 = CARTESIAN_POINT('',(6.8,10.8,-14.65));
#526 = LINE('',#527,#528);
#527 = CARTESIAN_POINT('',(-6.5,10.8,-14.65));
#528 = VECTOR('',#529,1.);
#529 = DIRECTION('',(1.,0.,0.));
#530 = ORIENTED_EDGE('',*,*,#531,.T.);
#531 = EDGE_CURVE('',#524,#532,#534,.T.);
#532 = VERTEX_POINT('',#533);
#533 = CARTESIAN_POINT('',(6.8,10.8,14.65));
#534 = LINE('',#535,#536);
#535 = CARTESIAN_POINT('',(6.8,10.8,-14.35));
#536 = VECTOR('',#537,1.);
#537 = DIRECTION('',(0.,2.2E-16,1.));
#538 = ORIENTED_EDGE('',*,*,#539,.T.);
#539 = EDGE_CURVE('',#532,#514,#540,.T.);
#540 = LINE('',#541,#542);
#541 = CARTESIAN_POINT('',(6.5,10.8,14.65));
#542 = VECTOR('',#543,1.);
#543 = DIRECTION('',(-1.,-0.,0.));
#544 = PLANE('',#545);
#545 = AXIS2_PLACEMENT_3D('',#546,#547,#548);
#546 = CARTESIAN_POINT('',(0.,10.8,0.));
#547 = DIRECTION('',(0.,1.,2.2E-16));
#548 = DIRECTION('',(0.,-2.2E-16,1.));
#549 = ADVANCED_FACE('',(#550),#569,.F.);
#550 = FACE_BOUND('',#551,.F.);
#551 = EDGE_LOOP('',(#552,#560,#567,#568));
#552 = ORIENTED_EDGE('',*,*,#553,.T.);
#553 = EDGE_CURVE('',#226,#554,#556,.T.);
#554 = VERTEX_POINT('',#555);
#555 = CARTESIAN_POINT('',(-9.5,-5.,4.35));
#556 = LINE('',#557,#558);
#557 = CARTESIAN_POINT('',(-13.5,-5.,4.35));
#558 = VECTOR('',#559,1.);
#559 = DIRECTION('',(1.,0.,2.2E-16));
#560 = ORIENTED_EDGE('',*,*,#561,.T.);
#561 = EDGE_CURVE('',#554,#554,#562,.T.);
#562 = CIRCLE('',#563,3.5);
#563 = AXIS2_PLACEMENT_3D('',#564,#565,#566);
#564 = CARTESIAN_POINT('',(-9.5,-5.,7.85));
#565 = DIRECTION('',(-1.,2.2E-16,-2.2E-16));
#566 = DIRECTION('',(2.2E-16,2.2E-16,-1.));
#567 = ORIENTED_EDGE('',*,*,#553,.F.);
#568 = ORIENTED_EDGE('',*,*,#235,.F.);
#569 = CYLINDRICAL_SURFACE('',#570,3.5);
#570 = AXIS2_PLACEMENT_3D('',#571,#572,#573);
#571 = CARTESIAN_POINT('',(-13.5,-5.,7.85));
#572 = DIRECTION('',(-1.,0.,-2.2E-16));
#573 = DIRECTION('',(2.2E-16,0.,-1.));
#574 = ADVANCED_FACE('',(#575),#594,.F.);
#575 = FACE_BOUND('',#576,.F.);
#576 = EDGE_LOOP('',(#577,#585,#592,#593));
#577 = ORIENTED_EDGE('',*,*,#578,.T.);
#578 = EDGE_CURVE('',#251,#579,#581,.T.);
#579 = VERTEX_POINT('',#580);
#580 = CARTESIAN_POINT('',(-9.5,5.,4.35));
#581 = LINE('',#582,#583);
#582 = CARTESIAN_POINT('',(-13.5,5.,4.35));
#583 = VECTOR('',#584,1.);
#584 = DIRECTION('',(1.,0.,2.2E-16));
#585 = ORIENTED_EDGE('',*,*,#586,.T.);
#586 = EDGE_CURVE('',#579,#579,#587,.T.);
#587 = CIRCLE('',#588,3.5);
#588 = AXIS2_PLACEMENT_3D('',#589,#590,#591);
#589 = CARTESIAN_POINT('',(-9.5,5.,7.85));
#590 = DIRECTION('',(-1.,2.2E-16,-2.2E-16));
#591 = DIRECTION('',(2.2E-16,2.2E-16,-1.));
#592 = ORIENTED_EDGE('',*,*,#578,.F.);
#593 = ORIENTED_EDGE('',*,*,#260,.F.);
#594 = CYLINDRICAL_SURFACE('',#595,3.5);
#595 = AXIS2_PLACEMENT_3D('',#596,#597,#598);
#596 = CARTESIAN_POINT('',(-13.5,5.,7.85));
#597 = DIRECTION('',(-1.,0.,-2.2E-16));
#598 = DIRECTION('',(2.2E-16,0.,-1.));
#599 = ADVANCED_FACE('',(#600),#611,.T.);
#600 = FACE_BOUND('',#601,.T.);
#601 = EDGE_LOOP('',(#602,#608,#609,#610));
#602 = ORIENTED_EDGE('',*,*,#603,.F.);
#603 = EDGE_CURVE('',#389,#309,#604,.T.);
#604 = LINE('',#605,#606);
#605 = CARTESIAN_POINT('',(13.2,-10.575,21.275));
#606 = VECTOR('',#607,1.);
#607 = DIRECTION('',(1.683E-14,-0.707106781187,-0.707106781187));
#608 = ORIENTED_EDGE('',*,*,#388,.T.);
#609 = ORIENTED_EDGE('',*,*,#275,.T.);
#610 = ORIENTED_EDGE('',*,*,#308,.F.);
#611 = PLANE('',#612);
#612 = AXIS2_PLACEMENT_3D('',#613,#614,#615);
#613 = CARTESIAN_POINT('',(13.5,-10.65,21.2));
#614 = DIRECTION('',(0.,-0.707106781187,0.707106781187));
#615 = DIRECTION('',(-1.,0.,0.));
#616 = ADVANCED_FACE('',(#617),#628,.T.);
#617 = FACE_BOUND('',#618,.F.);
#618 = EDGE_LOOP('',(#619,#620,#621,#627));
#619 = ORIENTED_EDGE('',*,*,#291,.T.);
#620 = ORIENTED_EDGE('',*,*,#324,.T.);
#621 = ORIENTED_EDGE('',*,*,#622,.T.);
#622 = EDGE_CURVE('',#317,#436,#623,.T.);
#623 = LINE('',#624,#625);
#624 = CARTESIAN_POINT('',(13.2,-10.65,-21.2));
#625 = VECTOR('',#626,1.);
#626 = DIRECTION('',(4.04E-15,0.707106781187,-0.707106781187));
#627 = ORIENTED_EDGE('',*,*,#435,.F.);
#628 = PLANE('',#629);
#629 = AXIS2_PLACEMENT_3D('',#630,#631,#632);
#630 = CARTESIAN_POINT('',(-13.5,-10.65,-21.2));
#631 = DIRECTION('',(0.,-0.707106781187,-0.707106781187));
#632 = DIRECTION('',(-1.,-0.,-0.));
#633 = ADVANCED_FACE('',(#634),#659,.T.);
#634 = FACE_BOUND('',#635,.F.);
#635 = EDGE_LOOP('',(#636,#644,#645,#653));
#636 = ORIENTED_EDGE('',*,*,#637,.T.);
#637 = EDGE_CURVE('',#638,#317,#640,.T.);
#638 = VERTEX_POINT('',#639);
#639 = CARTESIAN_POINT('',(13.5,-10.5,-21.05));
#640 = LINE('',#641,#642);
#641 = CARTESIAN_POINT('',(13.425,-10.575,-21.05));
#642 = VECTOR('',#643,1.);
#643 = DIRECTION('',(-0.707106781187,-0.707106781187,-1.6E-16));
#644 = ORIENTED_EDGE('',*,*,#316,.T.);
#645 = ORIENTED_EDGE('',*,*,#646,.T.);
#646 = EDGE_CURVE('',#309,#647,#649,.T.);
#647 = VERTEX_POINT('',#648);
#648 = CARTESIAN_POINT('',(13.5,-10.5,21.05));
#649 = LINE('',#650,#651);
#650 = CARTESIAN_POINT('',(13.35,-10.65,21.05));
#651 = VECTOR('',#652,1.);
#652 = DIRECTION('',(0.707106781187,0.707106781187,-4.07E-15));
#653 = ORIENTED_EDGE('',*,*,#654,.F.);
#654 = EDGE_CURVE('',#638,#647,#655,.T.);
#655 = LINE('',#656,#657);
#656 = CARTESIAN_POINT('',(13.5,-10.5,-21.35));
#657 = VECTOR('',#658,1.);
#658 = DIRECTION('',(0.,2.2E-16,1.));
#659 = PLANE('',#660);
#660 = AXIS2_PLACEMENT_3D('',#661,#662,#663);
#661 = CARTESIAN_POINT('',(13.35,-10.65,-21.35));
#662 = DIRECTION('',(0.707106781187,-0.707106781187,-3.E-17));
#663 = DIRECTION('',(-1.312132034356E-16,-8.87867965644E-17,-1.));
#664 = ADVANCED_FACE('',(#665),#690,.F.);
#665 = FACE_BOUND('',#666,.T.);
#666 = EDGE_LOOP('',(#667,#675,#676,#684));
#667 = ORIENTED_EDGE('',*,*,#668,.F.);
#668 = EDGE_CURVE('',#333,#669,#671,.T.);
#669 = VERTEX_POINT('',#670);
#670 = CARTESIAN_POINT('',(-6.5,-10.5,14.35));
#671 = LINE('',#672,#673);
#672 = CARTESIAN_POINT('',(-4.433333333333,-8.433333333333,
    12.283333333333));
#673 = VECTOR('',#674,1.);
#674 = DIRECTION('',(0.57735026919,0.57735026919,-0.57735026919));
#675 = ORIENTED_EDGE('',*,*,#332,.T.);
#676 = ORIENTED_EDGE('',*,*,#677,.T.);
#677 = EDGE_CURVE('',#335,#678,#680,.T.);
#678 = VERTEX_POINT('',#679);
#679 = CARTESIAN_POINT('',(-6.5,-10.5,-14.35));
#680 = LINE('',#681,#682);
#681 = CARTESIAN_POINT('',(-1.816666666667,-5.816666666667,
    -9.666666666667));
#682 = VECTOR('',#683,1.);
#683 = DIRECTION('',(0.57735026919,0.57735026919,0.57735026919));
#684 = ORIENTED_EDGE('',*,*,#685,.F.);
#685 = EDGE_CURVE('',#669,#678,#686,.T.);
#686 = LINE('',#687,#688);
#687 = CARTESIAN_POINT('',(-6.5,-10.5,14.35));
#688 = VECTOR('',#689,1.);
#689 = DIRECTION('',(0.,-2.2E-16,-1.));
#690 = PLANE('',#691);
#691 = AXIS2_PLACEMENT_3D('',#692,#693,#694);
#692 = CARTESIAN_POINT('',(-6.65,-10.65,14.35));
#693 = DIRECTION('',(-0.707106781187,0.707106781187,3.E-17));
#694 = DIRECTION('',(1.312132034356E-16,8.87867965644E-17,1.));
#695 = ADVANCED_FACE('',(#696),#714,.F.);
#696 = FACE_BOUND('',#697,.T.);
#697 = EDGE_LOOP('',(#698,#706,#707,#708));
#698 = ORIENTED_EDGE('',*,*,#699,.F.);
#699 = EDGE_CURVE('',#351,#700,#702,.T.);
#700 = VERTEX_POINT('',#701);
#701 = CARTESIAN_POINT('',(6.5,-10.5,14.35));
#702 = LINE('',#703,#704);
#703 = CARTESIAN_POINT('',(1.816666666667,-5.816666666667,9.666666666667
    ));
#704 = VECTOR('',#705,1.);
#705 = DIRECTION('',(-0.57735026919,0.57735026919,-0.57735026919));
#706 = ORIENTED_EDGE('',*,*,#358,.T.);
#707 = ORIENTED_EDGE('',*,*,#668,.T.);
#708 = ORIENTED_EDGE('',*,*,#709,.F.);
#709 = EDGE_CURVE('',#700,#669,#710,.T.);
#710 = LINE('',#711,#712);
#711 = CARTESIAN_POINT('',(6.5,-10.5,14.35));
#712 = VECTOR('',#713,1.);
#713 = DIRECTION('',(-1.,-0.,0.));
#714 = PLANE('',#715);
#715 = AXIS2_PLACEMENT_3D('',#716,#717,#718);
#716 = CARTESIAN_POINT('',(6.5,-10.65,14.5));
#717 = DIRECTION('',(0.,0.707106781187,0.707106781187));
#718 = DIRECTION('',(1.,-0.,-0.));
#719 = ADVANCED_FACE('',(#720),#738,.F.);
#720 = FACE_BOUND('',#721,.T.);
#721 = EDGE_LOOP('',(#722,#723,#724,#732));
#722 = ORIENTED_EDGE('',*,*,#677,.F.);
#723 = ORIENTED_EDGE('',*,*,#342,.T.);
#724 = ORIENTED_EDGE('',*,*,#725,.T.);
#725 = EDGE_CURVE('',#343,#726,#728,.T.);
#726 = VERTEX_POINT('',#727);
#727 = CARTESIAN_POINT('',(6.5,-10.5,-14.35));
#728 = LINE('',#729,#730);
#729 = CARTESIAN_POINT('',(4.433333333333,-8.433333333333,
    -12.28333333333));
#730 = VECTOR('',#731,1.);
#731 = DIRECTION('',(-0.57735026919,0.57735026919,0.57735026919));
#732 = ORIENTED_EDGE('',*,*,#733,.F.);
#733 = EDGE_CURVE('',#678,#726,#734,.T.);
#734 = LINE('',#735,#736);
#735 = CARTESIAN_POINT('',(-6.5,-10.5,-14.35));
#736 = VECTOR('',#737,1.);
#737 = DIRECTION('',(1.,0.,0.));
#738 = PLANE('',#739);
#739 = AXIS2_PLACEMENT_3D('',#740,#741,#742);
#740 = CARTESIAN_POINT('',(-6.5,-10.65,-14.5));
#741 = DIRECTION('',(0.,0.707106781187,-0.707106781187));
#742 = DIRECTION('',(-1.,-0.,-0.));
#743 = ADVANCED_FACE('',(#744),#755,.F.);
#744 = FACE_BOUND('',#745,.T.);
#745 = EDGE_LOOP('',(#746,#747,#748,#749));
#746 = ORIENTED_EDGE('',*,*,#725,.F.);
#747 = ORIENTED_EDGE('',*,*,#350,.T.);
#748 = ORIENTED_EDGE('',*,*,#699,.T.);
#749 = ORIENTED_EDGE('',*,*,#750,.F.);
#750 = EDGE_CURVE('',#726,#700,#751,.T.);
#751 = LINE('',#752,#753);
#752 = CARTESIAN_POINT('',(6.5,-10.5,-14.35));
#753 = VECTOR('',#754,1.);
#754 = DIRECTION('',(0.,2.2E-16,1.));
#755 = PLANE('',#756);
#756 = AXIS2_PLACEMENT_3D('',#757,#758,#759);
#757 = CARTESIAN_POINT('',(6.65,-10.65,-14.35));
#758 = DIRECTION('',(0.707106781187,0.707106781187,3.E-17));
#759 = DIRECTION('',(1.312132034356E-16,-8.87867965644E-17,-1.));
#760 = ADVANCED_FACE('',(#761),#772,.F.);
#761 = FACE_BOUND('',#762,.F.);
#762 = EDGE_LOOP('',(#763,#769,#770,#771));
#763 = ORIENTED_EDGE('',*,*,#764,.F.);
#764 = EDGE_CURVE('',#398,#491,#765,.T.);
#765 = LINE('',#766,#767);
#766 = CARTESIAN_POINT('',(13.2,10.575,21.275));
#767 = VECTOR('',#768,1.);
#768 = DIRECTION('',(-1.683E-14,0.707106781187,-0.707106781187));
#769 = ORIENTED_EDGE('',*,*,#397,.T.);
#770 = ORIENTED_EDGE('',*,*,#373,.F.);
#771 = ORIENTED_EDGE('',*,*,#505,.F.);
#772 = PLANE('',#773);
#773 = AXIS2_PLACEMENT_3D('',#774,#775,#776);
#774 = CARTESIAN_POINT('',(13.5,10.65,21.2));
#775 = DIRECTION('',(0.,-0.707106781187,-0.707106781187));
#776 = DIRECTION('',(-1.,-0.,0.));
#777 = ADVANCED_FACE('',(#778),#801,.T.);
#778 = FACE_BOUND('',#779,.T.);
#779 = EDGE_LOOP('',(#780,#788,#789,#795));
#780 = ORIENTED_EDGE('',*,*,#781,.F.);
#781 = EDGE_CURVE('',#398,#782,#784,.T.);
#782 = VERTEX_POINT('',#783);
#783 = CARTESIAN_POINT('',(13.5,10.5,21.05));
#784 = LINE('',#785,#786);
#785 = CARTESIAN_POINT('',(13.275,10.5,21.275));
#786 = VECTOR('',#787,1.);
#787 = DIRECTION('',(0.707106781187,1.6E-16,-0.707106781187));
#788 = ORIENTED_EDGE('',*,*,#405,.T.);
#789 = ORIENTED_EDGE('',*,*,#790,.T.);
#790 = EDGE_CURVE('',#389,#647,#791,.T.);
#791 = LINE('',#792,#793);
#792 = CARTESIAN_POINT('',(13.275,-10.5,21.275));
#793 = VECTOR('',#794,1.);
#794 = DIRECTION('',(0.707106781187,-1.244E-14,-0.707106781187));
#795 = ORIENTED_EDGE('',*,*,#796,.F.);
#796 = EDGE_CURVE('',#782,#647,#797,.T.);
#797 = LINE('',#798,#799);
#798 = CARTESIAN_POINT('',(13.5,10.8,21.05));
#799 = VECTOR('',#800,1.);
#800 = DIRECTION('',(0.,-1.,2.2E-16));
#801 = PLANE('',#802);
#802 = AXIS2_PLACEMENT_3D('',#803,#804,#805);
#803 = CARTESIAN_POINT('',(13.35,10.8,21.2));
#804 = DIRECTION('',(0.707106781187,9.E-17,0.707106781187));
#805 = DIRECTION('',(-5.136038969321E-17,-1.,1.786396103068E-16));
#806 = ADVANCED_FACE('',(#807),#818,.F.);
#807 = FACE_BOUND('',#808,.T.);
#808 = EDGE_LOOP('',(#809,#810,#811,#817));
#809 = ORIENTED_EDGE('',*,*,#419,.F.);
#810 = ORIENTED_EDGE('',*,*,#498,.T.);
#811 = ORIENTED_EDGE('',*,*,#812,.T.);
#812 = EDGE_CURVE('',#489,#444,#813,.T.);
#813 = LINE('',#814,#815);
#814 = CARTESIAN_POINT('',(13.2,10.725,-21.125));
#815 = VECTOR('',#816,1.);
#816 = DIRECTION('',(-4.23E-15,-0.707106781187,-0.707106781187));
#817 = ORIENTED_EDGE('',*,*,#451,.F.);
#818 = PLANE('',#819);
#819 = AXIS2_PLACEMENT_3D('',#820,#821,#822);
#820 = CARTESIAN_POINT('',(-13.5,10.65,-21.2));
#821 = DIRECTION('',(0.,-0.707106781187,0.707106781187));
#822 = DIRECTION('',(-1.,-0.,-0.));
#823 = ADVANCED_FACE('',(#824),#847,.T.);
#824 = FACE_BOUND('',#825,.F.);
#825 = EDGE_LOOP('',(#826,#827,#833,#841));
#826 = ORIENTED_EDGE('',*,*,#443,.T.);
#827 = ORIENTED_EDGE('',*,*,#828,.F.);
#828 = EDGE_CURVE('',#638,#436,#829,.T.);
#829 = LINE('',#830,#831);
#830 = CARTESIAN_POINT('',(13.425,-10.5,-21.125));
#831 = VECTOR('',#832,1.);
#832 = DIRECTION('',(-0.707106781187,-3.88E-15,-0.707106781187));
#833 = ORIENTED_EDGE('',*,*,#834,.F.);
#834 = EDGE_CURVE('',#835,#638,#837,.T.);
#835 = VERTEX_POINT('',#836);
#836 = CARTESIAN_POINT('',(13.5,10.5,-21.05));
#837 = LINE('',#838,#839);
#838 = CARTESIAN_POINT('',(13.5,10.8,-21.05));
#839 = VECTOR('',#840,1.);
#840 = DIRECTION('',(0.,-1.,2.2E-16));
#841 = ORIENTED_EDGE('',*,*,#842,.T.);
#842 = EDGE_CURVE('',#835,#444,#843,.T.);
#843 = LINE('',#844,#845);
#844 = CARTESIAN_POINT('',(13.35,10.5,-21.2));
#845 = VECTOR('',#846,1.);
#846 = DIRECTION('',(-0.707106781187,1.6E-16,-0.707106781187));
#847 = PLANE('',#848);
#848 = AXIS2_PLACEMENT_3D('',#849,#850,#851);
#849 = CARTESIAN_POINT('',(13.35,10.8,-21.2));
#850 = DIRECTION('',(0.707106781187,-9.E-17,-0.707106781187));
#851 = DIRECTION('',(-5.136038969321E-17,1.,-1.786396103068E-16));
#852 = ADVANCED_FACE('',(#853),#872,.F.);
#853 = FACE_BOUND('',#854,.T.);
#854 = EDGE_LOOP('',(#855,#863,#864,#865));
#855 = ORIENTED_EDGE('',*,*,#856,.F.);
#856 = EDGE_CURVE('',#461,#857,#859,.T.);
#857 = VERTEX_POINT('',#858);
#858 = CARTESIAN_POINT('',(3.5,-5.,-21.05));
#859 = LINE('',#860,#861);
#860 = CARTESIAN_POINT('',(3.5,-5.,-21.05));
#861 = VECTOR('',#862,1.);
#862 = DIRECTION('',(-0.707106781187,3.4E-16,0.707106781187));
#863 = ORIENTED_EDGE('',*,*,#460,.T.);
#864 = ORIENTED_EDGE('',*,*,#856,.T.);
#865 = ORIENTED_EDGE('',*,*,#866,.F.);
#866 = EDGE_CURVE('',#857,#857,#867,.T.);
#867 = CIRCLE('',#868,3.5);
#868 = AXIS2_PLACEMENT_3D('',#869,#870,#871);
#869 = CARTESIAN_POINT('',(0.,-5.,-21.05));
#870 = DIRECTION('',(0.,-2.2E-16,-1.));
#871 = DIRECTION('',(1.,-2.5E-16,5.5E-32));
#872 = CONICAL_SURFACE('',#873,3.5,0.785398163397);
#873 = AXIS2_PLACEMENT_3D('',#874,#875,#876);
#874 = CARTESIAN_POINT('',(0.,-5.,-21.05));
#875 = DIRECTION('',(-0.,-2.2E-16,-1.));
#876 = DIRECTION('',(1.,-2.5E-16,5.5E-32));
#877 = ADVANCED_FACE('',(#878),#897,.F.);
#878 = FACE_BOUND('',#879,.T.);
#879 = EDGE_LOOP('',(#880,#888,#889,#890));
#880 = ORIENTED_EDGE('',*,*,#881,.F.);
#881 = EDGE_CURVE('',#472,#882,#884,.T.);
#882 = VERTEX_POINT('',#883);
#883 = CARTESIAN_POINT('',(3.5,5.,-21.05));
#884 = LINE('',#885,#886);
#885 = CARTESIAN_POINT('',(3.5,5.,-21.05));
#886 = VECTOR('',#887,1.);
#887 = DIRECTION('',(-0.707106781187,3.4E-16,0.707106781187));
#888 = ORIENTED_EDGE('',*,*,#471,.T.);
#889 = ORIENTED_EDGE('',*,*,#881,.T.);
#890 = ORIENTED_EDGE('',*,*,#891,.F.);
#891 = EDGE_CURVE('',#882,#882,#892,.T.);
#892 = CIRCLE('',#893,3.5);
#893 = AXIS2_PLACEMENT_3D('',#894,#895,#896);
#894 = CARTESIAN_POINT('',(0.,5.,-21.05));
#895 = DIRECTION('',(0.,-2.2E-16,-1.));
#896 = DIRECTION('',(1.,-2.5E-16,5.5E-32));
#897 = CONICAL_SURFACE('',#898,3.5,0.785398163397);
#898 = AXIS2_PLACEMENT_3D('',#899,#900,#901);
#899 = CARTESIAN_POINT('',(0.,5.,-21.05));
#900 = DIRECTION('',(-0.,-2.2E-16,-1.));
#901 = DIRECTION('',(1.,-2.5E-16,5.5E-32));
#902 = ADVANCED_FACE('',(#903),#924,.F.);
#903 = FACE_BOUND('',#904,.T.);
#904 = EDGE_LOOP('',(#905,#911,#912,#918));
#905 = ORIENTED_EDGE('',*,*,#906,.F.);
#906 = EDGE_CURVE('',#489,#835,#907,.T.);
#907 = LINE('',#908,#909);
#908 = CARTESIAN_POINT('',(13.275,10.725,-21.05));
#909 = VECTOR('',#910,1.);
#910 = DIRECTION('',(0.707106781187,-0.707106781187,4.07E-15));
#911 = ORIENTED_EDGE('',*,*,#488,.T.);
#912 = ORIENTED_EDGE('',*,*,#913,.F.);
#913 = EDGE_CURVE('',#782,#491,#914,.T.);
#914 = LINE('',#915,#916);
#915 = CARTESIAN_POINT('',(13.35,10.65,21.05));
#916 = VECTOR('',#917,1.);
#917 = DIRECTION('',(-0.707106781187,0.707106781187,-1.667E-14));
#918 = ORIENTED_EDGE('',*,*,#919,.F.);
#919 = EDGE_CURVE('',#835,#782,#920,.T.);
#920 = LINE('',#921,#922);
#921 = CARTESIAN_POINT('',(13.5,10.5,-21.35));
#922 = VECTOR('',#923,1.);
#923 = DIRECTION('',(0.,2.2E-16,1.));
#924 = PLANE('',#925);
#925 = AXIS2_PLACEMENT_3D('',#926,#927,#928);
#926 = CARTESIAN_POINT('',(13.35,10.65,-21.35));
#927 = DIRECTION('',(-0.707106781187,-0.707106781187,-3.E-17));
#928 = DIRECTION('',(1.312132034356E-16,-8.87867965644E-17,-1.));
#929 = ADVANCED_FACE('',(#930),#955,.T.);
#930 = FACE_BOUND('',#931,.F.);
#931 = EDGE_LOOP('',(#932,#940,#941,#949));
#932 = ORIENTED_EDGE('',*,*,#933,.F.);
#933 = EDGE_CURVE('',#514,#934,#936,.T.);
#934 = VERTEX_POINT('',#935);
#935 = CARTESIAN_POINT('',(-6.5,10.5,14.35));
#936 = LINE('',#937,#938);
#937 = CARTESIAN_POINT('',(-4.433333333333,8.433333333333,
    12.283333333333));
#938 = VECTOR('',#939,1.);
#939 = DIRECTION('',(0.57735026919,-0.57735026919,-0.57735026919));
#940 = ORIENTED_EDGE('',*,*,#513,.T.);
#941 = ORIENTED_EDGE('',*,*,#942,.T.);
#942 = EDGE_CURVE('',#516,#943,#945,.T.);
#943 = VERTEX_POINT('',#944);
#944 = CARTESIAN_POINT('',(-6.5,10.5,-14.35));
#945 = LINE('',#946,#947);
#946 = CARTESIAN_POINT('',(-1.816666666667,5.816666666667,
    -9.666666666667));
#947 = VECTOR('',#948,1.);
#948 = DIRECTION('',(0.57735026919,-0.57735026919,0.57735026919));
#949 = ORIENTED_EDGE('',*,*,#950,.F.);
#950 = EDGE_CURVE('',#934,#943,#951,.T.);
#951 = LINE('',#952,#953);
#952 = CARTESIAN_POINT('',(-6.5,10.5,14.35));
#953 = VECTOR('',#954,1.);
#954 = DIRECTION('',(0.,-2.2E-16,-1.));
#955 = PLANE('',#956);
#956 = AXIS2_PLACEMENT_3D('',#957,#958,#959);
#957 = CARTESIAN_POINT('',(-6.65,10.65,14.35));
#958 = DIRECTION('',(0.707106781187,0.707106781187,3.E-17));
#959 = DIRECTION('',(-1.312132034356E-16,8.87867965644E-17,1.));
#960 = ADVANCED_FACE('',(#961),#979,.T.);
#961 = FACE_BOUND('',#962,.F.);
#962 = EDGE_LOOP('',(#963,#971,#972,#973));
#963 = ORIENTED_EDGE('',*,*,#964,.F.);
#964 = EDGE_CURVE('',#532,#965,#967,.T.);
#965 = VERTEX_POINT('',#966);
#966 = CARTESIAN_POINT('',(6.5,10.5,14.35));
#967 = LINE('',#968,#969);
#968 = CARTESIAN_POINT('',(1.816666666667,5.816666666667,9.666666666667)
  );
#969 = VECTOR('',#970,1.);
#970 = DIRECTION('',(-0.57735026919,-0.57735026919,-0.57735026919));
#971 = ORIENTED_EDGE('',*,*,#539,.T.);
#972 = ORIENTED_EDGE('',*,*,#933,.T.);
#973 = ORIENTED_EDGE('',*,*,#974,.F.);
#974 = EDGE_CURVE('',#965,#934,#975,.T.);
#975 = LINE('',#976,#977);
#976 = CARTESIAN_POINT('',(6.5,10.5,14.35));
#977 = VECTOR('',#978,1.);
#978 = DIRECTION('',(-1.,-0.,0.));
#979 = PLANE('',#980);
#980 = AXIS2_PLACEMENT_3D('',#981,#982,#983);
#981 = CARTESIAN_POINT('',(6.5,10.65,14.5));
#982 = DIRECTION('',(0.,0.707106781187,-0.707106781187));
#983 = DIRECTION('',(1.,-0.,0.));
#984 = ADVANCED_FACE('',(#985),#1003,.T.);
#985 = FACE_BOUND('',#986,.F.);
#986 = EDGE_LOOP('',(#987,#988,#989,#997));
#987 = ORIENTED_EDGE('',*,*,#942,.F.);
#988 = ORIENTED_EDGE('',*,*,#523,.T.);
#989 = ORIENTED_EDGE('',*,*,#990,.T.);
#990 = EDGE_CURVE('',#524,#991,#993,.T.);
#991 = VERTEX_POINT('',#992);
#992 = CARTESIAN_POINT('',(6.5,10.5,-14.35));
#993 = LINE('',#994,#995);
#994 = CARTESIAN_POINT('',(4.433333333333,8.433333333333,-12.28333333333
    ));
#995 = VECTOR('',#996,1.);
#996 = DIRECTION('',(-0.57735026919,-0.57735026919,0.57735026919));
#997 = ORIENTED_EDGE('',*,*,#998,.F.);
#998 = EDGE_CURVE('',#943,#991,#999,.T.);
#999 = LINE('',#1000,#1001);
#1000 = CARTESIAN_POINT('',(-6.5,10.5,-14.35));
#1001 = VECTOR('',#1002,1.);
#1002 = DIRECTION('',(1.,0.,0.));
#1003 = PLANE('',#1004);
#1004 = AXIS2_PLACEMENT_3D('',#1005,#1006,#1007);
#1005 = CARTESIAN_POINT('',(-6.5,10.65,-14.5));
#1006 = DIRECTION('',(0.,0.707106781187,0.707106781187));
#1007 = DIRECTION('',(-1.,-0.,0.));
#1008 = ADVANCED_FACE('',(#1009),#1020,.T.);
#1009 = FACE_BOUND('',#1010,.F.);
#1010 = EDGE_LOOP('',(#1011,#1012,#1013,#1014));
#1011 = ORIENTED_EDGE('',*,*,#990,.F.);
#1012 = ORIENTED_EDGE('',*,*,#531,.T.);
#1013 = ORIENTED_EDGE('',*,*,#964,.T.);
#1014 = ORIENTED_EDGE('',*,*,#1015,.F.);
#1015 = EDGE_CURVE('',#991,#965,#1016,.T.);
#1016 = LINE('',#1017,#1018);
#1017 = CARTESIAN_POINT('',(6.5,10.5,-14.35));
#1018 = VECTOR('',#1019,1.);
#1019 = DIRECTION('',(0.,2.2E-16,1.));
#1020 = PLANE('',#1021);
#1021 = AXIS2_PLACEMENT_3D('',#1022,#1023,#1024);
#1022 = CARTESIAN_POINT('',(6.65,10.65,-14.35));
#1023 = DIRECTION('',(-0.707106781187,0.707106781187,3.E-17));
#1024 = DIRECTION('',(-1.312132034356E-16,-8.87867965644E-17,-1.));
#1025 = ADVANCED_FACE('',(#1026,#1029),#1040,.F.);
#1026 = FACE_BOUND('',#1027,.F.);
#1027 = EDGE_LOOP('',(#1028));
#1028 = ORIENTED_EDGE('',*,*,#561,.F.);
#1029 = FACE_BOUND('',#1030,.F.);
#1030 = EDGE_LOOP('',(#1031));
#1031 = ORIENTED_EDGE('',*,*,#1032,.F.);
#1032 = EDGE_CURVE('',#1033,#1033,#1035,.T.);
#1033 = VERTEX_POINT('',#1034);
#1034 = CARTESIAN_POINT('',(-9.5,-5.,9.55));
#1035 = CIRCLE('',#1036,1.7);
#1036 = AXIS2_PLACEMENT_3D('',#1037,#1038,#1039);
#1037 = CARTESIAN_POINT('',(-9.5,-5.,7.85));
#1038 = DIRECTION('',(1.,0.,-2.2E-16));
#1039 = DIRECTION('',(2.2E-16,0.,1.));
#1040 = PLANE('',#1041);
#1041 = AXIS2_PLACEMENT_3D('',#1042,#1043,#1044);
#1042 = CARTESIAN_POINT('',(-9.5,-1.78E-15,7.85));
#1043 = DIRECTION('',(1.,0.,0.));
#1044 = DIRECTION('',(0.,-2.2E-16,1.));
#1045 = ADVANCED_FACE('',(#1046,#1049),#1060,.F.);
#1046 = FACE_BOUND('',#1047,.F.);
#1047 = EDGE_LOOP('',(#1048));
#1048 = ORIENTED_EDGE('',*,*,#586,.F.);
#1049 = FACE_BOUND('',#1050,.F.);
#1050 = EDGE_LOOP('',(#1051));
#1051 = ORIENTED_EDGE('',*,*,#1052,.F.);
#1052 = EDGE_CURVE('',#1053,#1053,#1055,.T.);
#1053 = VERTEX_POINT('',#1054);
#1054 = CARTESIAN_POINT('',(-9.5,5.,9.55));
#1055 = CIRCLE('',#1056,1.7);
#1056 = AXIS2_PLACEMENT_3D('',#1057,#1058,#1059);
#1057 = CARTESIAN_POINT('',(-9.5,5.,7.85));
#1058 = DIRECTION('',(1.,0.,-2.2E-16));
#1059 = DIRECTION('',(2.2E-16,0.,1.));
#1060 = PLANE('',#1061);
#1061 = AXIS2_PLACEMENT_3D('',#1062,#1063,#1064);
#1062 = CARTESIAN_POINT('',(-9.5,-1.78E-15,7.85));
#1063 = DIRECTION('',(1.,0.,0.));
#1064 = DIRECTION('',(0.,-2.2E-16,1.));
#1065 = ADVANCED_FACE('',(#1066),#1071,.F.);
#1066 = FACE_BOUND('',#1067,.F.);
#1067 = EDGE_LOOP('',(#1068,#1069,#1070));
#1068 = ORIENTED_EDGE('',*,*,#603,.F.);
#1069 = ORIENTED_EDGE('',*,*,#790,.T.);
#1070 = ORIENTED_EDGE('',*,*,#646,.F.);
#1071 = PLANE('',#1072);
#1072 = AXIS2_PLACEMENT_3D('',#1073,#1074,#1075);
#1073 = CARTESIAN_POINT('',(13.2,-10.5,21.35));
#1074 = DIRECTION('',(-0.57735026919,0.57735026919,-0.57735026919));
#1075 = DIRECTION('',(0.707106781187,0.707106781187,8.548717289614E-15)
  );
#1076 = ADVANCED_FACE('',(#1077),#1082,.F.);
#1077 = FACE_BOUND('',#1078,.F.);
#1078 = EDGE_LOOP('',(#1079,#1080,#1081));
#1079 = ORIENTED_EDGE('',*,*,#637,.F.);
#1080 = ORIENTED_EDGE('',*,*,#828,.T.);
#1081 = ORIENTED_EDGE('',*,*,#622,.F.);
#1082 = PLANE('',#1083);
#1083 = AXIS2_PLACEMENT_3D('',#1084,#1085,#1086);
#1084 = CARTESIAN_POINT('',(13.5,-10.5,-21.05));
#1085 = DIRECTION('',(-0.57735026919,0.57735026919,0.57735026919));
#1086 = DIRECTION('',(-8.326672684689E-17,0.707106781187,-0.707106781187
    ));
#1087 = ADVANCED_FACE('',(#1088,#1094,#1105),#1116,.F.);
#1088 = FACE_BOUND('',#1089,.F.);
#1089 = EDGE_LOOP('',(#1090,#1091,#1092,#1093));
#1090 = ORIENTED_EDGE('',*,*,#654,.T.);
#1091 = ORIENTED_EDGE('',*,*,#796,.F.);
#1092 = ORIENTED_EDGE('',*,*,#919,.F.);
#1093 = ORIENTED_EDGE('',*,*,#834,.T.);
#1094 = FACE_BOUND('',#1095,.F.);
#1095 = EDGE_LOOP('',(#1096));
#1096 = ORIENTED_EDGE('',*,*,#1097,.T.);
#1097 = EDGE_CURVE('',#1098,#1098,#1100,.T.);
#1098 = VERTEX_POINT('',#1099);
#1099 = CARTESIAN_POINT('',(13.5,-5.,11.65));
#1100 = CIRCLE('',#1101,3.8);
#1101 = AXIS2_PLACEMENT_3D('',#1102,#1103,#1104);
#1102 = CARTESIAN_POINT('',(13.5,-5.,7.85));
#1103 = DIRECTION('',(1.,0.,-0.));
#1104 = DIRECTION('',(0.,3.E-17,1.));
#1105 = FACE_BOUND('',#1106,.F.);
#1106 = EDGE_LOOP('',(#1107));
#1107 = ORIENTED_EDGE('',*,*,#1108,.T.);
#1108 = EDGE_CURVE('',#1109,#1109,#1111,.T.);
#1109 = VERTEX_POINT('',#1110);
#1110 = CARTESIAN_POINT('',(13.5,5.,11.65));
#1111 = CIRCLE('',#1112,3.8);
#1112 = AXIS2_PLACEMENT_3D('',#1113,#1114,#1115);
#1113 = CARTESIAN_POINT('',(13.5,5.,7.85));
#1114 = DIRECTION('',(1.,0.,0.));
#1115 = DIRECTION('',(0.,-2.2E-16,1.));
#1116 = PLANE('',#1117);
#1117 = AXIS2_PLACEMENT_3D('',#1118,#1119,#1120);
#1118 = CARTESIAN_POINT('',(13.5,10.8,-21.35));
#1119 = DIRECTION('',(-1.,0.,0.));
#1120 = DIRECTION('',(0.,2.2E-16,1.));
#1121 = ADVANCED_FACE('',(#1122,#1138,#1149),#1160,.T.);
#1122 = FACE_BOUND('',#1123,.T.);
#1123 = EDGE_LOOP('',(#1124,#1130,#1131,#1137));
#1124 = ORIENTED_EDGE('',*,*,#1125,.T.);
#1125 = EDGE_CURVE('',#934,#669,#1126,.T.);
#1126 = LINE('',#1127,#1128);
#1127 = CARTESIAN_POINT('',(-6.5,10.8,14.35));
#1128 = VECTOR('',#1129,1.);
#1129 = DIRECTION('',(0.,-1.,2.2E-16));
#1130 = ORIENTED_EDGE('',*,*,#685,.T.);
#1131 = ORIENTED_EDGE('',*,*,#1132,.F.);
#1132 = EDGE_CURVE('',#943,#678,#1133,.T.);
#1133 = LINE('',#1134,#1135);
#1134 = CARTESIAN_POINT('',(-6.5,10.8,-14.35));
#1135 = VECTOR('',#1136,1.);
#1136 = DIRECTION('',(0.,-1.,2.2E-16));
#1137 = ORIENTED_EDGE('',*,*,#950,.F.);
#1138 = FACE_BOUND('',#1139,.T.);
#1139 = EDGE_LOOP('',(#1140));
#1140 = ORIENTED_EDGE('',*,*,#1141,.F.);
#1141 = EDGE_CURVE('',#1142,#1142,#1144,.T.);
#1142 = VERTEX_POINT('',#1143);
#1143 = CARTESIAN_POINT('',(-6.5,-5.,9.55));
#1144 = CIRCLE('',#1145,1.7);
#1145 = AXIS2_PLACEMENT_3D('',#1146,#1147,#1148);
#1146 = CARTESIAN_POINT('',(-6.5,-5.,7.85));
#1147 = DIRECTION('',(1.,0.,-2.2E-16));
#1148 = DIRECTION('',(2.2E-16,0.,1.));
#1149 = FACE_BOUND('',#1150,.T.);
#1150 = EDGE_LOOP('',(#1151));
#1151 = ORIENTED_EDGE('',*,*,#1152,.F.);
#1152 = EDGE_CURVE('',#1153,#1153,#1155,.T.);
#1153 = VERTEX_POINT('',#1154);
#1154 = CARTESIAN_POINT('',(-6.5,5.,9.55));
#1155 = CIRCLE('',#1156,1.7);
#1156 = AXIS2_PLACEMENT_3D('',#1157,#1158,#1159);
#1157 = CARTESIAN_POINT('',(-6.5,5.,7.85));
#1158 = DIRECTION('',(1.,0.,-2.2E-16));
#1159 = DIRECTION('',(2.2E-16,0.,1.));
#1160 = PLANE('',#1161);
#1161 = AXIS2_PLACEMENT_3D('',#1162,#1163,#1164);
#1162 = CARTESIAN_POINT('',(-6.5,10.8,14.35));
#1163 = DIRECTION('',(1.,0.,0.));
#1164 = DIRECTION('',(0.,-2.2E-16,-1.));
#1165 = ADVANCED_FACE('',(#1166),#1177,.T.);
#1166 = FACE_BOUND('',#1167,.T.);
#1167 = EDGE_LOOP('',(#1168,#1174,#1175,#1176));
#1168 = ORIENTED_EDGE('',*,*,#1169,.T.);
#1169 = EDGE_CURVE('',#965,#700,#1170,.T.);
#1170 = LINE('',#1171,#1172);
#1171 = CARTESIAN_POINT('',(6.5,10.8,14.35));
#1172 = VECTOR('',#1173,1.);
#1173 = DIRECTION('',(0.,-1.,2.2E-16));
#1174 = ORIENTED_EDGE('',*,*,#709,.T.);
#1175 = ORIENTED_EDGE('',*,*,#1125,.F.);
#1176 = ORIENTED_EDGE('',*,*,#974,.F.);
#1177 = PLANE('',#1178);
#1178 = AXIS2_PLACEMENT_3D('',#1179,#1180,#1181);
#1179 = CARTESIAN_POINT('',(6.5,10.8,14.35));
#1180 = DIRECTION('',(0.,-2.2E-16,-1.));
#1181 = DIRECTION('',(-1.,0.,0.));
#1182 = ADVANCED_FACE('',(#1183,#1194,#1205),#1216,.T.);
#1183 = FACE_BOUND('',#1184,.T.);
#1184 = EDGE_LOOP('',(#1185,#1186,#1187,#1193));
#1185 = ORIENTED_EDGE('',*,*,#1132,.T.);
#1186 = ORIENTED_EDGE('',*,*,#733,.T.);
#1187 = ORIENTED_EDGE('',*,*,#1188,.F.);
#1188 = EDGE_CURVE('',#991,#726,#1189,.T.);
#1189 = LINE('',#1190,#1191);
#1190 = CARTESIAN_POINT('',(6.5,10.8,-14.35));
#1191 = VECTOR('',#1192,1.);
#1192 = DIRECTION('',(0.,-1.,2.2E-16));
#1193 = ORIENTED_EDGE('',*,*,#998,.F.);
#1194 = FACE_BOUND('',#1195,.T.);
#1195 = EDGE_LOOP('',(#1196));
#1196 = ORIENTED_EDGE('',*,*,#1197,.T.);
#1197 = EDGE_CURVE('',#1198,#1198,#1200,.T.);
#1198 = VERTEX_POINT('',#1199);
#1199 = CARTESIAN_POINT('',(1.7,-5.,-14.35));
#1200 = CIRCLE('',#1201,1.7);
#1201 = AXIS2_PLACEMENT_3D('',#1202,#1203,#1204);
#1202 = CARTESIAN_POINT('',(0.,-5.,-14.35));
#1203 = DIRECTION('',(0.,0.,-1.));
#1204 = DIRECTION('',(1.,0.,0.));
#1205 = FACE_BOUND('',#1206,.T.);
#1206 = EDGE_LOOP('',(#1207));
#1207 = ORIENTED_EDGE('',*,*,#1208,.T.);
#1208 = EDGE_CURVE('',#1209,#1209,#1211,.T.);
#1209 = VERTEX_POINT('',#1210);
#1210 = CARTESIAN_POINT('',(1.7,5.,-14.35));
#1211 = CIRCLE('',#1212,1.7);
#1212 = AXIS2_PLACEMENT_3D('',#1213,#1214,#1215);
#1213 = CARTESIAN_POINT('',(0.,5.,-14.35));
#1214 = DIRECTION('',(0.,0.,-1.));
#1215 = DIRECTION('',(1.,0.,0.));
#1216 = PLANE('',#1217);
#1217 = AXIS2_PLACEMENT_3D('',#1218,#1219,#1220);
#1218 = CARTESIAN_POINT('',(-6.5,10.8,-14.35));
#1219 = DIRECTION('',(0.,2.2E-16,1.));
#1220 = DIRECTION('',(1.,0.,0.));
#1221 = ADVANCED_FACE('',(#1222,#1228,#1239),#1250,.T.);
#1222 = FACE_BOUND('',#1223,.T.);
#1223 = EDGE_LOOP('',(#1224,#1225,#1226,#1227));
#1224 = ORIENTED_EDGE('',*,*,#1188,.T.);
#1225 = ORIENTED_EDGE('',*,*,#750,.T.);
#1226 = ORIENTED_EDGE('',*,*,#1169,.F.);
#1227 = ORIENTED_EDGE('',*,*,#1015,.F.);
#1228 = FACE_BOUND('',#1229,.T.);
#1229 = EDGE_LOOP('',(#1230));
#1230 = ORIENTED_EDGE('',*,*,#1231,.T.);
#1231 = EDGE_CURVE('',#1232,#1232,#1234,.T.);
#1232 = VERTEX_POINT('',#1233);
#1233 = CARTESIAN_POINT('',(6.5,-5.,9.55));
#1234 = CIRCLE('',#1235,1.7);
#1235 = AXIS2_PLACEMENT_3D('',#1236,#1237,#1238);
#1236 = CARTESIAN_POINT('',(6.5,-5.,7.85));
#1237 = DIRECTION('',(1.,0.,-2.2E-16));
#1238 = DIRECTION('',(2.2E-16,0.,1.));
#1239 = FACE_BOUND('',#1240,.T.);
#1240 = EDGE_LOOP('',(#1241));
#1241 = ORIENTED_EDGE('',*,*,#1242,.T.);
#1242 = EDGE_CURVE('',#1243,#1243,#1245,.T.);
#1243 = VERTEX_POINT('',#1244);
#1244 = CARTESIAN_POINT('',(6.5,5.,9.55));
#1245 = CIRCLE('',#1246,1.7);
#1246 = AXIS2_PLACEMENT_3D('',#1247,#1248,#1249);
#1247 = CARTESIAN_POINT('',(6.5,5.,7.85));
#1248 = DIRECTION('',(1.,0.,-2.2E-16));
#1249 = DIRECTION('',(2.2E-16,0.,1.));
#1250 = PLANE('',#1251);
#1251 = AXIS2_PLACEMENT_3D('',#1252,#1253,#1254);
#1252 = CARTESIAN_POINT('',(6.5,10.8,-14.35));
#1253 = DIRECTION('',(-1.,0.,0.));
#1254 = DIRECTION('',(0.,2.2E-16,1.));
#1255 = ADVANCED_FACE('',(#1256),#1261,.F.);
#1256 = FACE_BOUND('',#1257,.F.);
#1257 = EDGE_LOOP('',(#1258,#1259,#1260));
#1258 = ORIENTED_EDGE('',*,*,#781,.F.);
#1259 = ORIENTED_EDGE('',*,*,#764,.T.);
#1260 = ORIENTED_EDGE('',*,*,#913,.F.);
#1261 = PLANE('',#1262);
#1262 = AXIS2_PLACEMENT_3D('',#1263,#1264,#1265);
#1263 = CARTESIAN_POINT('',(13.2,10.5,21.35));
#1264 = DIRECTION('',(-0.57735026919,-0.57735026919,-0.57735026919));
#1265 = DIRECTION('',(-0.707106781187,0.707106781187,-8.298917109073E-15
    ));
#1266 = ADVANCED_FACE('',(#1267),#1272,.F.);
#1267 = FACE_BOUND('',#1268,.F.);
#1268 = EDGE_LOOP('',(#1269,#1270,#1271));
#1269 = ORIENTED_EDGE('',*,*,#906,.F.);
#1270 = ORIENTED_EDGE('',*,*,#812,.T.);
#1271 = ORIENTED_EDGE('',*,*,#842,.F.);
#1272 = PLANE('',#1273);
#1273 = AXIS2_PLACEMENT_3D('',#1274,#1275,#1276);
#1274 = CARTESIAN_POINT('',(13.2,10.8,-21.05));
#1275 = DIRECTION('',(-0.57735026919,-0.57735026919,0.57735026919));
#1276 = DIRECTION('',(-0.707106781187,1.942890293094E-16,-0.707106781187
    ));
#1277 = ADVANCED_FACE('',(#1278),#1297,.F.);
#1278 = FACE_BOUND('',#1279,.F.);
#1279 = EDGE_LOOP('',(#1280,#1288,#1295,#1296));
#1280 = ORIENTED_EDGE('',*,*,#1281,.T.);
#1281 = EDGE_CURVE('',#857,#1282,#1284,.T.);
#1282 = VERTEX_POINT('',#1283);
#1283 = CARTESIAN_POINT('',(3.5,-5.,-17.35));
#1284 = LINE('',#1285,#1286);
#1285 = CARTESIAN_POINT('',(3.5,-5.,-21.35));
#1286 = VECTOR('',#1287,1.);
#1287 = DIRECTION('',(0.,0.,1.));
#1288 = ORIENTED_EDGE('',*,*,#1289,.T.);
#1289 = EDGE_CURVE('',#1282,#1282,#1290,.T.);
#1290 = CIRCLE('',#1291,3.5);
#1291 = AXIS2_PLACEMENT_3D('',#1292,#1293,#1294);
#1292 = CARTESIAN_POINT('',(0.,-5.,-17.35));
#1293 = DIRECTION('',(0.,2.2E-16,-1.));
#1294 = DIRECTION('',(1.,0.,0.));
#1295 = ORIENTED_EDGE('',*,*,#1281,.F.);
#1296 = ORIENTED_EDGE('',*,*,#866,.F.);
#1297 = CYLINDRICAL_SURFACE('',#1298,3.5);
#1298 = AXIS2_PLACEMENT_3D('',#1299,#1300,#1301);
#1299 = CARTESIAN_POINT('',(0.,-5.,-21.35));
#1300 = DIRECTION('',(0.,0.,-1.));
#1301 = DIRECTION('',(1.,0.,0.));
#1302 = ADVANCED_FACE('',(#1303),#1322,.F.);
#1303 = FACE_BOUND('',#1304,.F.);
#1304 = EDGE_LOOP('',(#1305,#1313,#1320,#1321));
#1305 = ORIENTED_EDGE('',*,*,#1306,.T.);
#1306 = EDGE_CURVE('',#882,#1307,#1309,.T.);
#1307 = VERTEX_POINT('',#1308);
#1308 = CARTESIAN_POINT('',(3.5,5.,-17.35));
#1309 = LINE('',#1310,#1311);
#1310 = CARTESIAN_POINT('',(3.5,5.,-21.35));
#1311 = VECTOR('',#1312,1.);
#1312 = DIRECTION('',(0.,0.,1.));
#1313 = ORIENTED_EDGE('',*,*,#1314,.T.);
#1314 = EDGE_CURVE('',#1307,#1307,#1315,.T.);
#1315 = CIRCLE('',#1316,3.5);
#1316 = AXIS2_PLACEMENT_3D('',#1317,#1318,#1319);
#1317 = CARTESIAN_POINT('',(0.,5.,-17.35));
#1318 = DIRECTION('',(0.,2.2E-16,-1.));
#1319 = DIRECTION('',(1.,0.,0.));
#1320 = ORIENTED_EDGE('',*,*,#1306,.F.);
#1321 = ORIENTED_EDGE('',*,*,#891,.F.);
#1322 = CYLINDRICAL_SURFACE('',#1323,3.5);
#1323 = AXIS2_PLACEMENT_3D('',#1324,#1325,#1326);
#1324 = CARTESIAN_POINT('',(0.,5.,-21.35));
#1325 = DIRECTION('',(0.,0.,-1.));
#1326 = DIRECTION('',(1.,0.,0.));
#1327 = ADVANCED_FACE('',(#1328),#1339,.F.);
#1328 = FACE_BOUND('',#1329,.F.);
#1329 = EDGE_LOOP('',(#1330,#1336,#1337,#1338));
#1330 = ORIENTED_EDGE('',*,*,#1331,.F.);
#1331 = EDGE_CURVE('',#1142,#1033,#1332,.T.);
#1332 = LINE('',#1333,#1334);
#1333 = CARTESIAN_POINT('',(13.5,-5.,9.55));
#1334 = VECTOR('',#1335,1.);
#1335 = DIRECTION('',(-1.,0.,2.2E-16));
#1336 = ORIENTED_EDGE('',*,*,#1141,.F.);
#1337 = ORIENTED_EDGE('',*,*,#1331,.T.);
#1338 = ORIENTED_EDGE('',*,*,#1032,.T.);
#1339 = CYLINDRICAL_SURFACE('',#1340,1.7);
#1340 = AXIS2_PLACEMENT_3D('',#1341,#1342,#1343);
#1341 = CARTESIAN_POINT('',(13.5,-5.,7.85));
#1342 = DIRECTION('',(1.,0.,-2.2E-16));
#1343 = DIRECTION('',(2.2E-16,0.,1.));
#1344 = ADVANCED_FACE('',(#1345),#1356,.F.);
#1345 = FACE_BOUND('',#1346,.F.);
#1346 = EDGE_LOOP('',(#1347,#1353,#1354,#1355));
#1347 = ORIENTED_EDGE('',*,*,#1348,.F.);
#1348 = EDGE_CURVE('',#1153,#1053,#1349,.T.);
#1349 = LINE('',#1350,#1351);
#1350 = CARTESIAN_POINT('',(13.5,5.,9.55));
#1351 = VECTOR('',#1352,1.);
#1352 = DIRECTION('',(-1.,0.,2.2E-16));
#1353 = ORIENTED_EDGE('',*,*,#1152,.F.);
#1354 = ORIENTED_EDGE('',*,*,#1348,.T.);
#1355 = ORIENTED_EDGE('',*,*,#1052,.T.);
#1356 = CYLINDRICAL_SURFACE('',#1357,1.7);
#1357 = AXIS2_PLACEMENT_3D('',#1358,#1359,#1360);
#1358 = CARTESIAN_POINT('',(13.5,5.,7.85));
#1359 = DIRECTION('',(1.,0.,-2.2E-16));
#1360 = DIRECTION('',(2.2E-16,0.,1.));
#1361 = ADVANCED_FACE('',(#1362),#1381,.F.);
#1362 = FACE_BOUND('',#1363,.T.);
#1363 = EDGE_LOOP('',(#1364,#1372,#1373,#1374));
#1364 = ORIENTED_EDGE('',*,*,#1365,.F.);
#1365 = EDGE_CURVE('',#1098,#1366,#1368,.T.);
#1366 = VERTEX_POINT('',#1367);
#1367 = CARTESIAN_POINT('',(13.2,-5.,11.35));
#1368 = LINE('',#1369,#1370);
#1369 = CARTESIAN_POINT('',(13.2,-5.,11.35));
#1370 = VECTOR('',#1371,1.);
#1371 = DIRECTION('',(-0.707106781187,-2.E-17,-0.707106781187));
#1372 = ORIENTED_EDGE('',*,*,#1097,.T.);
#1373 = ORIENTED_EDGE('',*,*,#1365,.T.);
#1374 = ORIENTED_EDGE('',*,*,#1375,.F.);
#1375 = EDGE_CURVE('',#1366,#1366,#1376,.T.);
#1376 = CIRCLE('',#1377,3.5);
#1377 = AXIS2_PLACEMENT_3D('',#1378,#1379,#1380);
#1378 = CARTESIAN_POINT('',(13.2,-5.,7.85));
#1379 = DIRECTION('',(1.,0.,-0.));
#1380 = DIRECTION('',(0.,3.E-17,1.));
#1381 = CONICAL_SURFACE('',#1382,3.5,0.785398163397);
#1382 = AXIS2_PLACEMENT_3D('',#1383,#1384,#1385);
#1383 = CARTESIAN_POINT('',(13.2,-5.,7.85));
#1384 = DIRECTION('',(1.,0.,-0.));
#1385 = DIRECTION('',(0.,3.E-17,1.));
#1386 = ADVANCED_FACE('',(#1387),#1406,.F.);
#1387 = FACE_BOUND('',#1388,.T.);
#1388 = EDGE_LOOP('',(#1389,#1397,#1398,#1399));
#1389 = ORIENTED_EDGE('',*,*,#1390,.F.);
#1390 = EDGE_CURVE('',#1109,#1391,#1393,.T.);
#1391 = VERTEX_POINT('',#1392);
#1392 = CARTESIAN_POINT('',(13.2,5.,11.35));
#1393 = LINE('',#1394,#1395);
#1394 = CARTESIAN_POINT('',(13.2,5.,11.35));
#1395 = VECTOR('',#1396,1.);
#1396 = DIRECTION('',(-0.707106781187,1.6E-16,-0.707106781187));
#1397 = ORIENTED_EDGE('',*,*,#1108,.T.);
#1398 = ORIENTED_EDGE('',*,*,#1390,.T.);
#1399 = ORIENTED_EDGE('',*,*,#1400,.F.);
#1400 = EDGE_CURVE('',#1391,#1391,#1401,.T.);
#1401 = CIRCLE('',#1402,3.5);
#1402 = AXIS2_PLACEMENT_3D('',#1403,#1404,#1405);
#1403 = CARTESIAN_POINT('',(13.2,5.,7.85));
#1404 = DIRECTION('',(1.,0.,0.));
#1405 = DIRECTION('',(0.,-2.2E-16,1.));
#1406 = CONICAL_SURFACE('',#1407,3.5,0.785398163397);
#1407 = AXIS2_PLACEMENT_3D('',#1408,#1409,#1410);
#1408 = CARTESIAN_POINT('',(13.2,5.,7.85));
#1409 = DIRECTION('',(1.,0.,-0.));
#1410 = DIRECTION('',(0.,-2.2E-16,1.));
#1411 = ADVANCED_FACE('',(#1412),#1431,.F.);
#1412 = FACE_BOUND('',#1413,.F.);
#1413 = EDGE_LOOP('',(#1414,#1423,#1429,#1430));
#1414 = ORIENTED_EDGE('',*,*,#1415,.F.);
#1415 = EDGE_CURVE('',#1416,#1416,#1418,.T.);
#1416 = VERTEX_POINT('',#1417);
#1417 = CARTESIAN_POINT('',(1.7,-5.,-17.35));
#1418 = CIRCLE('',#1419,1.7);
#1419 = AXIS2_PLACEMENT_3D('',#1420,#1421,#1422);
#1420 = CARTESIAN_POINT('',(0.,-5.,-17.35));
#1421 = DIRECTION('',(0.,0.,-1.));
#1422 = DIRECTION('',(1.,0.,0.));
#1423 = ORIENTED_EDGE('',*,*,#1424,.T.);
#1424 = EDGE_CURVE('',#1416,#1198,#1425,.T.);
#1425 = LINE('',#1426,#1427);
#1426 = CARTESIAN_POINT('',(1.7,-5.,-21.35));
#1427 = VECTOR('',#1428,1.);
#1428 = DIRECTION('',(0.,0.,1.));
#1429 = ORIENTED_EDGE('',*,*,#1197,.T.);
#1430 = ORIENTED_EDGE('',*,*,#1424,.F.);
#1431 = CYLINDRICAL_SURFACE('',#1432,1.7);
#1432 = AXIS2_PLACEMENT_3D('',#1433,#1434,#1435);
#1433 = CARTESIAN_POINT('',(0.,-5.,-21.35));
#1434 = DIRECTION('',(0.,0.,-1.));
#1435 = DIRECTION('',(1.,0.,0.));
#1436 = ADVANCED_FACE('',(#1437),#1456,.F.);
#1437 = FACE_BOUND('',#1438,.F.);
#1438 = EDGE_LOOP('',(#1439,#1448,#1454,#1455));
#1439 = ORIENTED_EDGE('',*,*,#1440,.F.);
#1440 = EDGE_CURVE('',#1441,#1441,#1443,.T.);
#1441 = VERTEX_POINT('',#1442);
#1442 = CARTESIAN_POINT('',(1.7,5.,-17.35));
#1443 = CIRCLE('',#1444,1.7);
#1444 = AXIS2_PLACEMENT_3D('',#1445,#1446,#1447);
#1445 = CARTESIAN_POINT('',(0.,5.,-17.35));
#1446 = DIRECTION('',(0.,0.,-1.));
#1447 = DIRECTION('',(1.,0.,0.));
#1448 = ORIENTED_EDGE('',*,*,#1449,.T.);
#1449 = EDGE_CURVE('',#1441,#1209,#1450,.T.);
#1450 = LINE('',#1451,#1452);
#1451 = CARTESIAN_POINT('',(1.7,5.,-21.35));
#1452 = VECTOR('',#1453,1.);
#1453 = DIRECTION('',(0.,0.,1.));
#1454 = ORIENTED_EDGE('',*,*,#1208,.T.);
#1455 = ORIENTED_EDGE('',*,*,#1449,.F.);
#1456 = CYLINDRICAL_SURFACE('',#1457,1.7);
#1457 = AXIS2_PLACEMENT_3D('',#1458,#1459,#1460);
#1458 = CARTESIAN_POINT('',(0.,5.,-21.35));
#1459 = DIRECTION('',(0.,0.,-1.));
#1460 = DIRECTION('',(1.,0.,0.));
#1461 = ADVANCED_FACE('',(#1462),#1481,.F.);
#1462 = FACE_BOUND('',#1463,.F.);
#1463 = EDGE_LOOP('',(#1464,#1473,#1479,#1480));
#1464 = ORIENTED_EDGE('',*,*,#1465,.F.);
#1465 = EDGE_CURVE('',#1466,#1466,#1468,.T.);
#1466 = VERTEX_POINT('',#1467);
#1467 = CARTESIAN_POINT('',(9.5,-5.,9.55));
#1468 = CIRCLE('',#1469,1.7);
#1469 = AXIS2_PLACEMENT_3D('',#1470,#1471,#1472);
#1470 = CARTESIAN_POINT('',(9.5,-5.,7.85));
#1471 = DIRECTION('',(1.,0.,-2.2E-16));
#1472 = DIRECTION('',(2.2E-16,0.,1.));
#1473 = ORIENTED_EDGE('',*,*,#1474,.T.);
#1474 = EDGE_CURVE('',#1466,#1232,#1475,.T.);
#1475 = LINE('',#1476,#1477);
#1476 = CARTESIAN_POINT('',(13.5,-5.,9.55));
#1477 = VECTOR('',#1478,1.);
#1478 = DIRECTION('',(-1.,0.,2.2E-16));
#1479 = ORIENTED_EDGE('',*,*,#1231,.T.);
#1480 = ORIENTED_EDGE('',*,*,#1474,.F.);
#1481 = CYLINDRICAL_SURFACE('',#1482,1.7);
#1482 = AXIS2_PLACEMENT_3D('',#1483,#1484,#1485);
#1483 = CARTESIAN_POINT('',(13.5,-5.,7.85));
#1484 = DIRECTION('',(1.,0.,-2.2E-16));
#1485 = DIRECTION('',(2.2E-16,0.,1.));
#1486 = ADVANCED_FACE('',(#1487),#1506,.F.);
#1487 = FACE_BOUND('',#1488,.F.);
#1488 = EDGE_LOOP('',(#1489,#1498,#1504,#1505));
#1489 = ORIENTED_EDGE('',*,*,#1490,.F.);
#1490 = EDGE_CURVE('',#1491,#1491,#1493,.T.);
#1491 = VERTEX_POINT('',#1492);
#1492 = CARTESIAN_POINT('',(9.5,5.,9.55));
#1493 = CIRCLE('',#1494,1.7);
#1494 = AXIS2_PLACEMENT_3D('',#1495,#1496,#1497);
#1495 = CARTESIAN_POINT('',(9.5,5.,7.85));
#1496 = DIRECTION('',(1.,0.,-2.2E-16));
#1497 = DIRECTION('',(2.2E-16,0.,1.));
#1498 = ORIENTED_EDGE('',*,*,#1499,.T.);
#1499 = EDGE_CURVE('',#1491,#1243,#1500,.T.);
#1500 = LINE('',#1501,#1502);
#1501 = CARTESIAN_POINT('',(13.5,5.,9.55));
#1502 = VECTOR('',#1503,1.);
#1503 = DIRECTION('',(-1.,0.,2.2E-16));
#1504 = ORIENTED_EDGE('',*,*,#1242,.T.);
#1505 = ORIENTED_EDGE('',*,*,#1499,.F.);
#1506 = CYLINDRICAL_SURFACE('',#1507,1.7);
#1507 = AXIS2_PLACEMENT_3D('',#1508,#1509,#1510);
#1508 = CARTESIAN_POINT('',(13.5,5.,7.85));
#1509 = DIRECTION('',(1.,0.,-2.2E-16));
#1510 = DIRECTION('',(2.2E-16,0.,1.));
#1511 = ADVANCED_FACE('',(#1512,#1515),#1518,.F.);
#1512 = FACE_BOUND('',#1513,.F.);
#1513 = EDGE_LOOP('',(#1514));
#1514 = ORIENTED_EDGE('',*,*,#1289,.F.);
#1515 = FACE_BOUND('',#1516,.F.);
#1516 = EDGE_LOOP('',(#1517));
#1517 = ORIENTED_EDGE('',*,*,#1415,.T.);
#1518 = PLANE('',#1519);
#1519 = AXIS2_PLACEMENT_3D('',#1520,#1521,#1522);
#1520 = CARTESIAN_POINT('',(-2.9E-16,-1.7763568394E-15,-17.35));
#1521 = DIRECTION('',(0.,-2.2E-16,1.));
#1522 = DIRECTION('',(1.,0.,0.));
#1523 = ADVANCED_FACE('',(#1524,#1527),#1530,.F.);
#1524 = FACE_BOUND('',#1525,.F.);
#1525 = EDGE_LOOP('',(#1526));
#1526 = ORIENTED_EDGE('',*,*,#1314,.F.);
#1527 = FACE_BOUND('',#1528,.F.);
#1528 = EDGE_LOOP('',(#1529));
#1529 = ORIENTED_EDGE('',*,*,#1440,.T.);
#1530 = PLANE('',#1531);
#1531 = AXIS2_PLACEMENT_3D('',#1532,#1533,#1534);
#1532 = CARTESIAN_POINT('',(-2.9E-16,-1.7763568394E-15,-17.35));
#1533 = DIRECTION('',(0.,-2.2E-16,1.));
#1534 = DIRECTION('',(1.,0.,0.));
#1535 = ADVANCED_FACE('',(#1536),#1555,.F.);
#1536 = FACE_BOUND('',#1537,.F.);
#1537 = EDGE_LOOP('',(#1538,#1546,#1553,#1554));
#1538 = ORIENTED_EDGE('',*,*,#1539,.T.);
#1539 = EDGE_CURVE('',#1366,#1540,#1542,.T.);
#1540 = VERTEX_POINT('',#1541);
#1541 = CARTESIAN_POINT('',(9.5,-5.,11.35));
#1542 = LINE('',#1543,#1544);
#1543 = CARTESIAN_POINT('',(13.5,-5.,11.35));
#1544 = VECTOR('',#1545,1.);
#1545 = DIRECTION('',(-1.,0.,2.2E-16));
#1546 = ORIENTED_EDGE('',*,*,#1547,.T.);
#1547 = EDGE_CURVE('',#1540,#1540,#1548,.T.);
#1548 = CIRCLE('',#1549,3.5);
#1549 = AXIS2_PLACEMENT_3D('',#1550,#1551,#1552);
#1550 = CARTESIAN_POINT('',(9.5,-5.,7.85));
#1551 = DIRECTION('',(1.,2.2E-16,-2.2E-16));
#1552 = DIRECTION('',(2.2E-16,-2.2E-16,1.));
#1553 = ORIENTED_EDGE('',*,*,#1539,.F.);
#1554 = ORIENTED_EDGE('',*,*,#1375,.F.);
#1555 = CYLINDRICAL_SURFACE('',#1556,3.5);
#1556 = AXIS2_PLACEMENT_3D('',#1557,#1558,#1559);
#1557 = CARTESIAN_POINT('',(13.5,-5.,7.85));
#1558 = DIRECTION('',(1.,0.,-2.2E-16));
#1559 = DIRECTION('',(2.2E-16,0.,1.));
#1560 = ADVANCED_FACE('',(#1561),#1580,.F.);
#1561 = FACE_BOUND('',#1562,.F.);
#1562 = EDGE_LOOP('',(#1563,#1571,#1578,#1579));
#1563 = ORIENTED_EDGE('',*,*,#1564,.T.);
#1564 = EDGE_CURVE('',#1391,#1565,#1567,.T.);
#1565 = VERTEX_POINT('',#1566);
#1566 = CARTESIAN_POINT('',(9.5,5.,11.35));
#1567 = LINE('',#1568,#1569);
#1568 = CARTESIAN_POINT('',(13.5,5.,11.35));
#1569 = VECTOR('',#1570,1.);
#1570 = DIRECTION('',(-1.,0.,2.2E-16));
#1571 = ORIENTED_EDGE('',*,*,#1572,.T.);
#1572 = EDGE_CURVE('',#1565,#1565,#1573,.T.);
#1573 = CIRCLE('',#1574,3.5);
#1574 = AXIS2_PLACEMENT_3D('',#1575,#1576,#1577);
#1575 = CARTESIAN_POINT('',(9.5,5.,7.85));
#1576 = DIRECTION('',(1.,2.2E-16,-2.2E-16));
#1577 = DIRECTION('',(2.2E-16,-2.2E-16,1.));
#1578 = ORIENTED_EDGE('',*,*,#1564,.F.);
#1579 = ORIENTED_EDGE('',*,*,#1400,.F.);
#1580 = CYLINDRICAL_SURFACE('',#1581,3.5);
#1581 = AXIS2_PLACEMENT_3D('',#1582,#1583,#1584);
#1582 = CARTESIAN_POINT('',(13.5,5.,7.85));
#1583 = DIRECTION('',(1.,0.,-2.2E-16));
#1584 = DIRECTION('',(2.2E-16,0.,1.));
#1585 = ADVANCED_FACE('',(#1586,#1589),#1592,.T.);
#1586 = FACE_BOUND('',#1587,.T.);
#1587 = EDGE_LOOP('',(#1588));
#1588 = ORIENTED_EDGE('',*,*,#1547,.T.);
#1589 = FACE_BOUND('',#1590,.T.);
#1590 = EDGE_LOOP('',(#1591));
#1591 = ORIENTED_EDGE('',*,*,#1465,.F.);
#1592 = PLANE('',#1593);
#1593 = AXIS2_PLACEMENT_3D('',#1594,#1595,#1596);
#1594 = CARTESIAN_POINT('',(9.5,-2.02E-15,7.85));
#1595 = DIRECTION('',(1.,0.,0.));
#1596 = DIRECTION('',(0.,-2.2E-16,1.));
#1597 = ADVANCED_FACE('',(#1598,#1601),#1604,.T.);
#1598 = FACE_BOUND('',#1599,.T.);
#1599 = EDGE_LOOP('',(#1600));
#1600 = ORIENTED_EDGE('',*,*,#1572,.T.);
#1601 = FACE_BOUND('',#1602,.T.);
#1602 = EDGE_LOOP('',(#1603));
#1603 = ORIENTED_EDGE('',*,*,#1490,.F.);
#1604 = PLANE('',#1605);
#1605 = AXIS2_PLACEMENT_3D('',#1606,#1607,#1608);
#1606 = CARTESIAN_POINT('',(9.5,-2.02E-15,7.85));
#1607 = DIRECTION('',(1.,0.,0.));
#1608 = DIRECTION('',(0.,-2.2E-16,1.));
#1609 = ( GEOMETRIC_REPRESENTATION_CONTEXT(3) 
GLOBAL_UNCERTAINTY_ASSIGNED_CONTEXT((#1613)) 
GLOBAL_UNIT_ASSIGNED_CONTEXT((#1610,#1611,#1612)) REPRESENTATION_CONTEXT
('Context #1','3D Context with UNIT and UNCERTAINTY') );
#1610 = ( LENGTH_UNIT() NAMED_UNIT(*) SI_UNIT(.MILLI.,.METRE.) );
#1611 = ( NAMED_UNIT(*) PLANE_ANGLE_UNIT() SI_UNIT($,.RADIAN.) );
#1612 = ( NAMED_UNIT(*) SI_UNIT($,.STERADIAN.) SOLID_ANGLE_UNIT() );
#1613 = UNCERTAINTY_MEASURE_WITH_UNIT(LENGTH_MEASURE(1.E-07),#1610,
  'distance_accuracy_value','confusion accuracy');
#1614 = CONTEXT_DEPENDENT_SHAPE_REPRESENTATION(#1615,#1617);
#1615 = ( REPRESENTATION_RELATIONSHIP('','',#32,#10) 
REPRESENTATION_RELATIONSHIP_WITH_TRANSFORMATION(#1616) 
SHAPE_REPRESENTATION_RELATIONSHIP() );
#1616 = ITEM_DEFINED_TRANSFORMATION('','',#11,#15);
#1617 = PRODUCT_DEFINITION_SHAPE('Placement','Placement of an item',
  #1618);
#1618 = NEXT_ASSEMBLY_USAGE_OCCURRENCE('2','Body','',#5,#27,$);
#1619 = PRODUCT_RELATED_PRODUCT_CATEGORY('part',$,(#29));
#1620 = MECHANICAL_DESIGN_GEOMETRIC_PRESENTATION_REPRESENTATION('',(
    #1621),#1609);
#1621 = STYLED_ITEM('color',(#1622),#33);
#1622 = PRESENTATION_STYLE_ASSIGNMENT((#1623,#1629));
#1623 = SURFACE_STYLE_USAGE(.BOTH.,#1624);
#1624 = SURFACE_SIDE_STYLE('',(#1625));
#1625 = SURFACE_STYLE_FILL_AREA(#1626);
#1626 = FILL_AREA_STYLE('',(#1627));
#1627 = FILL_AREA_STYLE_COLOUR('',#1628);
#1628 = COLOUR_RGB('',0.447058818107,0.474509808674,0.501960817233);
#1629 = CURVE_STYLE('',#1630,POSITIVE_LENGTH_MEASURE(0.1),#1631);
#1630 = DRAUGHTING_PRE_DEFINED_CURVE_FONT('continuous');
#1631 = COLOUR_RGB('',9.803921802644E-02,9.803921802644E-02,
  9.803921802644E-02);
ENDSEC;
END-ISO-10303-21;
