ISO-10303-21;
HEADER;
FILE_DESCRIPTION(('FreeCAD Model'),'2;1');
FILE_NAME('Open CASCADE Shape Model','2025-10-16T04:39:12',(''),(''),
  'Open CASCADE STEP processor 7.8','FreeCAD','Unknown');
FILE_SCHEMA(('AUTOMOTIVE_DESIGN { 1 0 10303 214 1 1 1 1 }'));
ENDSEC;
DATA;
#1 = APPLICATION_PROTOCOL_DEFINITION('international standard',
  'automotive_design',2000,#2);
#2 = APPLICATION_CONTEXT(
  'core data for automotive mechanical design processes');
#3 = SHAPE_DEFINITION_REPRESENTATION(#4,#10);
#4 = PRODUCT_DEFINITION_SHAPE('','',#5);
#5 = PRODUCT_DEFINITION('design','',#6,#9);
#6 = PRODUCT_DEFINITION_FORMATION('','',#7);
#7 = PRODUCT('Part','Part','',(#8));
#8 = PRODUCT_CONTEXT('',#2,'mechanical');
#9 = PRODUCT_DEFINITION_CONTEXT('part definition',#2,'design');
#10 = SHAPE_REPRESENTATION('',(#11,#15),#19);
#11 = AXIS2_PLACEMENT_3D('',#12,#13,#14);
#12 = CARTESIAN_POINT('',(0.,0.,0.));
#13 = DIRECTION('',(0.,0.,1.));
#14 = DIRECTION('',(1.,0.,-0.));
#15 = AXIS2_PLACEMENT_3D('',#16,#17,#18);
#16 = CARTESIAN_POINT('',(0.,0.,0.));
#17 = DIRECTION('',(0.,0.,1.));
#18 = DIRECTION('',(1.,0.,0.));
#19 = ( GEOMETRIC_REPRESENTATION_CONTEXT(3) 
GLOBAL_UNCERTAINTY_ASSIGNED_CONTEXT((#23)) GLOBAL_UNIT_ASSIGNED_CONTEXT(
(#20,#21,#22)) REPRESENTATION_CONTEXT('Context #1',
  '3D Context with UNIT and UNCERTAINTY') );
#20 = ( LENGTH_UNIT() NAMED_UNIT(*) SI_UNIT(.MILLI.,.METRE.) );
#21 = ( NAMED_UNIT(*) PLANE_ANGLE_UNIT() SI_UNIT($,.RADIAN.) );
#22 = ( NAMED_UNIT(*) SI_UNIT($,.STERADIAN.) SOLID_ANGLE_UNIT() );
#23 = UNCERTAINTY_MEASURE_WITH_UNIT(LENGTH_MEASURE(2.E-07),#20,
  'distance_accuracy_value','confusion accuracy');
#24 = PRODUCT_RELATED_PRODUCT_CATEGORY('part',$,(#7));
#25 = SHAPE_DEFINITION_REPRESENTATION(#26,#32);
#26 = PRODUCT_DEFINITION_SHAPE('','',#27);
#27 = PRODUCT_DEFINITION('design','',#28,#31);
#28 = PRODUCT_DEFINITION_FORMATION('','',#29);
#29 = PRODUCT('Body001','Body001','',(#30));
#30 = PRODUCT_CONTEXT('',#2,'mechanical');
#31 = PRODUCT_DEFINITION_CONTEXT('part definition',#2,'design');
#32 = ADVANCED_BREP_SHAPE_REPRESENTATION('',(#11,#33),#2166);
#33 = MANIFOLD_SOLID_BREP('',#34);
#34 = CLOSED_SHELL('',(#35,#97,#128,#159,#190,#221,#246,#271,#287,#318,
    #334,#350,#415,#431,#542,#643,#668,#693,#710,#741,#758,#775,#804,
    #835,#859,#883,#900,#917,#977,#1001,#1018,#1042,#1097,#1121,#1145,
    #1167,#1191,#1220,#1244,#1271,#1288,#1312,#1329,#1360,#1384,#1409,
    #1434,#1454,#1474,#1485,#1519,#1530,#1541,#1600,#1625,#1650,#1674,
    #1691,#1708,#1725,#1736,#1760,#1777,#1793,#1824,#1840,#1865,#1890,
    #1915,#1940,#1962,#1987,#2012,#2032,#2052,#2068,#2080,#2096,#2108,
    #2120,#2132,#2149));
#35 = ADVANCED_FACE('',(#36,#70,#81),#92,.F.);
#36 = FACE_BOUND('',#37,.F.);
#37 = EDGE_LOOP('',(#38,#48,#56,#64));
#38 = ORIENTED_EDGE('',*,*,#39,.F.);
#39 = EDGE_CURVE('',#40,#42,#44,.T.);
#40 = VERTEX_POINT('',#41);
#41 = CARTESIAN_POINT('',(-13.5,-6.7,-17.5));
#42 = VERTEX_POINT('',#43);
#43 = CARTESIAN_POINT('',(-13.5,-6.7,3.5));
#44 = LINE('',#45,#46);
#45 = CARTESIAN_POINT('',(-13.5,-6.7,-17.8));
#46 = VECTOR('',#47,1.);
#47 = DIRECTION('',(0.,0.,1.));
#48 = ORIENTED_EDGE('',*,*,#49,.F.);
#49 = EDGE_CURVE('',#50,#40,#52,.T.);
#50 = VERTEX_POINT('',#51);
#51 = CARTESIAN_POINT('',(-13.5,20.7,-17.5));
#52 = LINE('',#53,#54);
#53 = CARTESIAN_POINT('',(-13.5,21.,-17.5));
#54 = VECTOR('',#55,1.);
#55 = DIRECTION('',(0.,-1.,0.));
#56 = ORIENTED_EDGE('',*,*,#57,.T.);
#57 = EDGE_CURVE('',#50,#58,#60,.T.);
#58 = VERTEX_POINT('',#59);
#59 = CARTESIAN_POINT('',(-13.5,20.7,3.5));
#60 = LINE('',#61,#62);
#61 = CARTESIAN_POINT('',(-13.5,20.7,-17.8));
#62 = VECTOR('',#63,1.);
#63 = DIRECTION('',(0.,0.,1.));
#64 = ORIENTED_EDGE('',*,*,#65,.T.);
#65 = EDGE_CURVE('',#58,#42,#66,.T.);
#66 = LINE('',#67,#68);
#67 = CARTESIAN_POINT('',(-13.5,21.,3.5));
#68 = VECTOR('',#69,1.);
#69 = DIRECTION('',(0.,-1.,0.));
#70 = FACE_BOUND('',#71,.F.);
#71 = EDGE_LOOP('',(#72));
#72 = ORIENTED_EDGE('',*,*,#73,.T.);
#73 = EDGE_CURVE('',#74,#74,#76,.T.);
#74 = VERTEX_POINT('',#75);
#75 = CARTESIAN_POINT('',(-13.5,2.7,-2.));
#76 = CIRCLE('',#77,3.8);
#77 = AXIS2_PLACEMENT_3D('',#78,#79,#80);
#78 = CARTESIAN_POINT('',(-13.5,6.5,-2.));
#79 = DIRECTION('',(-1.,0.,0.));
#80 = DIRECTION('',(0.,-1.,0.));
#81 = FACE_BOUND('',#82,.F.);
#82 = EDGE_LOOP('',(#83));
#83 = ORIENTED_EDGE('',*,*,#84,.T.);
#84 = EDGE_CURVE('',#85,#85,#87,.T.);
#85 = VERTEX_POINT('',#86);
#86 = CARTESIAN_POINT('',(-13.5,2.7,-12.));
#87 = CIRCLE('',#88,3.8);
#88 = AXIS2_PLACEMENT_3D('',#89,#90,#91);
#89 = CARTESIAN_POINT('',(-13.5,6.5,-12.));
#90 = DIRECTION('',(-1.,0.,0.));
#91 = DIRECTION('',(0.,-1.,0.));
#92 = PLANE('',#93);
#93 = AXIS2_PLACEMENT_3D('',#94,#95,#96);
#94 = CARTESIAN_POINT('',(-13.5,21.,-17.8));
#95 = DIRECTION('',(1.,0.,0.));
#96 = DIRECTION('',(0.,-1.,0.));
#97 = ADVANCED_FACE('',(#98),#123,.T.);
#98 = FACE_BOUND('',#99,.F.);
#99 = EDGE_LOOP('',(#100,#108,#109,#117));
#100 = ORIENTED_EDGE('',*,*,#101,.F.);
#101 = EDGE_CURVE('',#40,#102,#104,.T.);
#102 = VERTEX_POINT('',#103);
#103 = CARTESIAN_POINT('',(-13.2,-7.,-17.5));
#104 = LINE('',#105,#106);
#105 = CARTESIAN_POINT('',(-13.425,-6.775,-17.5));
#106 = VECTOR('',#107,1.);
#107 = DIRECTION('',(0.707106781187,-0.707106781187,-1.E-16));
#108 = ORIENTED_EDGE('',*,*,#39,.T.);
#109 = ORIENTED_EDGE('',*,*,#110,.T.);
#110 = EDGE_CURVE('',#42,#111,#113,.T.);
#111 = VERTEX_POINT('',#112);
#112 = CARTESIAN_POINT('',(-13.2,-7.,3.5));
#113 = LINE('',#114,#115);
#114 = CARTESIAN_POINT('',(-13.425,-6.775,3.5));
#115 = VECTOR('',#116,1.);
#116 = DIRECTION('',(0.707106781187,-0.707106781187,4.23E-15));
#117 = ORIENTED_EDGE('',*,*,#118,.F.);
#118 = EDGE_CURVE('',#102,#111,#119,.T.);
#119 = LINE('',#120,#121);
#120 = CARTESIAN_POINT('',(-13.2,-7.,-17.8));
#121 = VECTOR('',#122,1.);
#122 = DIRECTION('',(0.,0.,1.));
#123 = PLANE('',#124);
#124 = AXIS2_PLACEMENT_3D('',#125,#126,#127);
#125 = CARTESIAN_POINT('',(-13.35,-6.85,-17.8));
#126 = DIRECTION('',(-0.707106781187,-0.707106781187,0.));
#127 = DIRECTION('',(-0.,-0.,-1.));
#128 = ADVANCED_FACE('',(#129),#154,.T.);
#129 = FACE_BOUND('',#130,.F.);
#130 = EDGE_LOOP('',(#131,#132,#140,#148));
#131 = ORIENTED_EDGE('',*,*,#49,.T.);
#132 = ORIENTED_EDGE('',*,*,#133,.T.);
#133 = EDGE_CURVE('',#40,#134,#136,.T.);
#134 = VERTEX_POINT('',#135);
#135 = CARTESIAN_POINT('',(-13.2,-6.7,-17.8));
#136 = LINE('',#137,#138);
#137 = CARTESIAN_POINT('',(-13.425,-6.7,-17.575));
#138 = VECTOR('',#139,1.);
#139 = DIRECTION('',(0.707106781187,-6.25E-15,-0.707106781187));
#140 = ORIENTED_EDGE('',*,*,#141,.F.);
#141 = EDGE_CURVE('',#142,#134,#144,.T.);
#142 = VERTEX_POINT('',#143);
#143 = CARTESIAN_POINT('',(-13.2,20.7,-17.8));
#144 = LINE('',#145,#146);
#145 = CARTESIAN_POINT('',(-13.2,21.,-17.8));
#146 = VECTOR('',#147,1.);
#147 = DIRECTION('',(0.,-1.,0.));
#148 = ORIENTED_EDGE('',*,*,#149,.F.);
#149 = EDGE_CURVE('',#50,#142,#150,.T.);
#150 = LINE('',#151,#152);
#151 = CARTESIAN_POINT('',(-13.35,20.7,-17.65));
#152 = VECTOR('',#153,1.);
#153 = DIRECTION('',(0.707106781187,4.23E-15,-0.707106781187));
#154 = PLANE('',#155);
#155 = AXIS2_PLACEMENT_3D('',#156,#157,#158);
#156 = CARTESIAN_POINT('',(-13.35,21.,-17.65));
#157 = DIRECTION('',(-0.707106781187,0.,-0.707106781187));
#158 = DIRECTION('',(-0.,1.,0.));
#159 = ADVANCED_FACE('',(#160),#185,.F.);
#160 = FACE_BOUND('',#161,.T.);
#161 = EDGE_LOOP('',(#162,#170,#171,#179));
#162 = ORIENTED_EDGE('',*,*,#163,.T.);
#163 = EDGE_CURVE('',#164,#58,#166,.T.);
#164 = VERTEX_POINT('',#165);
#165 = CARTESIAN_POINT('',(-13.2,20.7,3.8));
#166 = LINE('',#167,#168);
#167 = CARTESIAN_POINT('',(-13.275,20.7,3.725));
#168 = VECTOR('',#169,1.);
#169 = DIRECTION('',(-0.707106781187,6.15E-15,-0.707106781187));
#170 = ORIENTED_EDGE('',*,*,#65,.T.);
#171 = ORIENTED_EDGE('',*,*,#172,.T.);
#172 = EDGE_CURVE('',#42,#173,#175,.T.);
#173 = VERTEX_POINT('',#174);
#174 = CARTESIAN_POINT('',(-13.2,-6.7,3.8));
#175 = LINE('',#176,#177);
#176 = CARTESIAN_POINT('',(-13.425,-6.7,3.575));
#177 = VECTOR('',#178,1.);
#178 = DIRECTION('',(0.707106781187,0.,0.707106781187));
#179 = ORIENTED_EDGE('',*,*,#180,.F.);
#180 = EDGE_CURVE('',#164,#173,#181,.T.);
#181 = LINE('',#182,#183);
#182 = CARTESIAN_POINT('',(-13.2,21.,3.8));
#183 = VECTOR('',#184,1.);
#184 = DIRECTION('',(0.,-1.,0.));
#185 = PLANE('',#186);
#186 = AXIS2_PLACEMENT_3D('',#187,#188,#189);
#187 = CARTESIAN_POINT('',(-13.35,21.,3.65));
#188 = DIRECTION('',(0.707106781187,0.,-0.707106781187));
#189 = DIRECTION('',(-0.,1.,-0.));
#190 = ADVANCED_FACE('',(#191),#216,.T.);
#191 = FACE_BOUND('',#192,.T.);
#192 = EDGE_LOOP('',(#193,#201,#202,#210));
#193 = ORIENTED_EDGE('',*,*,#194,.T.);
#194 = EDGE_CURVE('',#195,#50,#197,.T.);
#195 = VERTEX_POINT('',#196);
#196 = CARTESIAN_POINT('',(-13.2,21.,-17.5));
#197 = LINE('',#198,#199);
#198 = CARTESIAN_POINT('',(-13.275,20.925,-17.5));
#199 = VECTOR('',#200,1.);
#200 = DIRECTION('',(-0.707106781187,-0.707106781187,8.46E-15));
#201 = ORIENTED_EDGE('',*,*,#57,.T.);
#202 = ORIENTED_EDGE('',*,*,#203,.T.);
#203 = EDGE_CURVE('',#58,#204,#206,.T.);
#204 = VERTEX_POINT('',#205);
#205 = CARTESIAN_POINT('',(-13.2,21.,3.5));
#206 = LINE('',#207,#208);
#207 = CARTESIAN_POINT('',(-13.35,20.85,3.5));
#208 = VECTOR('',#209,1.);
#209 = DIRECTION('',(0.707106781187,0.707106781187,0.));
#210 = ORIENTED_EDGE('',*,*,#211,.F.);
#211 = EDGE_CURVE('',#195,#204,#212,.T.);
#212 = LINE('',#213,#214);
#213 = CARTESIAN_POINT('',(-13.2,21.,-17.8));
#214 = VECTOR('',#215,1.);
#215 = DIRECTION('',(0.,0.,1.));
#216 = PLANE('',#217);
#217 = AXIS2_PLACEMENT_3D('',#218,#219,#220);
#218 = CARTESIAN_POINT('',(-13.35,20.85,-17.8));
#219 = DIRECTION('',(-0.707106781187,0.707106781187,0.));
#220 = DIRECTION('',(0.,0.,1.));
#221 = ADVANCED_FACE('',(#222),#241,.F.);
#222 = FACE_BOUND('',#223,.T.);
#223 = EDGE_LOOP('',(#224,#232,#233,#234));
#224 = ORIENTED_EDGE('',*,*,#225,.F.);
#225 = EDGE_CURVE('',#74,#226,#228,.T.);
#226 = VERTEX_POINT('',#227);
#227 = CARTESIAN_POINT('',(-13.2,3.,-2.));
#228 = LINE('',#229,#230);
#229 = CARTESIAN_POINT('',(-13.2,3.,-2.));
#230 = VECTOR('',#231,1.);
#231 = DIRECTION('',(0.707106781187,0.707106781187,0.));
#232 = ORIENTED_EDGE('',*,*,#73,.T.);
#233 = ORIENTED_EDGE('',*,*,#225,.T.);
#234 = ORIENTED_EDGE('',*,*,#235,.F.);
#235 = EDGE_CURVE('',#226,#226,#236,.T.);
#236 = CIRCLE('',#237,3.5);
#237 = AXIS2_PLACEMENT_3D('',#238,#239,#240);
#238 = CARTESIAN_POINT('',(-13.2,6.5,-2.));
#239 = DIRECTION('',(-1.,0.,0.));
#240 = DIRECTION('',(0.,-1.,0.));
#241 = CONICAL_SURFACE('',#242,3.5,0.785398163397);
#242 = AXIS2_PLACEMENT_3D('',#243,#244,#245);
#243 = CARTESIAN_POINT('',(-13.2,6.5,-2.));
#244 = DIRECTION('',(-1.,-0.,-0.));
#245 = DIRECTION('',(0.,-1.,0.));
#246 = ADVANCED_FACE('',(#247),#266,.F.);
#247 = FACE_BOUND('',#248,.T.);
#248 = EDGE_LOOP('',(#249,#257,#258,#259));
#249 = ORIENTED_EDGE('',*,*,#250,.F.);
#250 = EDGE_CURVE('',#85,#251,#253,.T.);
#251 = VERTEX_POINT('',#252);
#252 = CARTESIAN_POINT('',(-13.2,3.,-12.));
#253 = LINE('',#254,#255);
#254 = CARTESIAN_POINT('',(-13.2,3.,-12.));
#255 = VECTOR('',#256,1.);
#256 = DIRECTION('',(0.707106781187,0.707106781187,0.));
#257 = ORIENTED_EDGE('',*,*,#84,.T.);
#258 = ORIENTED_EDGE('',*,*,#250,.T.);
#259 = ORIENTED_EDGE('',*,*,#260,.F.);
#260 = EDGE_CURVE('',#251,#251,#261,.T.);
#261 = CIRCLE('',#262,3.5);
#262 = AXIS2_PLACEMENT_3D('',#263,#264,#265);
#263 = CARTESIAN_POINT('',(-13.2,6.5,-12.));
#264 = DIRECTION('',(-1.,0.,0.));
#265 = DIRECTION('',(0.,-1.,0.));
#266 = CONICAL_SURFACE('',#267,3.5,0.785398163397);
#267 = AXIS2_PLACEMENT_3D('',#268,#269,#270);
#268 = CARTESIAN_POINT('',(-13.2,6.5,-12.));
#269 = DIRECTION('',(-1.,-0.,-0.));
#270 = DIRECTION('',(0.,-1.,0.));
#271 = ADVANCED_FACE('',(#272),#282,.T.);
#272 = FACE_BOUND('',#273,.T.);
#273 = EDGE_LOOP('',(#274,#275,#276));
#274 = ORIENTED_EDGE('',*,*,#101,.F.);
#275 = ORIENTED_EDGE('',*,*,#133,.T.);
#276 = ORIENTED_EDGE('',*,*,#277,.F.);
#277 = EDGE_CURVE('',#102,#134,#278,.T.);
#278 = LINE('',#279,#280);
#279 = CARTESIAN_POINT('',(-13.2,-6.85,-17.65));
#280 = VECTOR('',#281,1.);
#281 = DIRECTION('',(-6.15E-15,0.707106781187,-0.707106781187));
#282 = PLANE('',#283);
#283 = AXIS2_PLACEMENT_3D('',#284,#285,#286);
#284 = CARTESIAN_POINT('',(-13.5,-6.7,-17.5));
#285 = DIRECTION('',(-0.57735026919,-0.57735026919,-0.57735026919));
#286 = DIRECTION('',(0.,0.707106781187,-0.707106781187));
#287 = ADVANCED_FACE('',(#288),#313,.F.);
#288 = FACE_BOUND('',#289,.F.);
#289 = EDGE_LOOP('',(#290,#300,#306,#307));
#290 = ORIENTED_EDGE('',*,*,#291,.F.);
#291 = EDGE_CURVE('',#292,#294,#296,.T.);
#292 = VERTEX_POINT('',#293);
#293 = CARTESIAN_POINT('',(13.2,-7.,-17.5));
#294 = VERTEX_POINT('',#295);
#295 = CARTESIAN_POINT('',(13.2,-7.,3.5));
#296 = LINE('',#297,#298);
#297 = CARTESIAN_POINT('',(13.2,-7.,-17.8));
#298 = VECTOR('',#299,1.);
#299 = DIRECTION('',(0.,0.,1.));
#300 = ORIENTED_EDGE('',*,*,#301,.F.);
#301 = EDGE_CURVE('',#102,#292,#302,.T.);
#302 = LINE('',#303,#304);
#303 = CARTESIAN_POINT('',(-13.5,-7.,-17.5));
#304 = VECTOR('',#305,1.);
#305 = DIRECTION('',(1.,0.,0.));
#306 = ORIENTED_EDGE('',*,*,#118,.T.);
#307 = ORIENTED_EDGE('',*,*,#308,.T.);
#308 = EDGE_CURVE('',#111,#294,#309,.T.);
#309 = LINE('',#310,#311);
#310 = CARTESIAN_POINT('',(-13.5,-7.,3.5));
#311 = VECTOR('',#312,1.);
#312 = DIRECTION('',(1.,0.,0.));
#313 = PLANE('',#314);
#314 = AXIS2_PLACEMENT_3D('',#315,#316,#317);
#315 = CARTESIAN_POINT('',(-13.5,-7.,-17.8));
#316 = DIRECTION('',(0.,1.,0.));
#317 = DIRECTION('',(1.,0.,0.));
#318 = ADVANCED_FACE('',(#319),#329,.F.);
#319 = FACE_BOUND('',#320,.F.);
#320 = EDGE_LOOP('',(#321,#322,#323));
#321 = ORIENTED_EDGE('',*,*,#110,.F.);
#322 = ORIENTED_EDGE('',*,*,#172,.T.);
#323 = ORIENTED_EDGE('',*,*,#324,.F.);
#324 = EDGE_CURVE('',#111,#173,#325,.T.);
#325 = LINE('',#326,#327);
#326 = CARTESIAN_POINT('',(-13.2,-6.85,3.65));
#327 = VECTOR('',#328,1.);
#328 = DIRECTION('',(4.23E-15,0.707106781187,0.707106781187));
#329 = PLANE('',#330);
#330 = AXIS2_PLACEMENT_3D('',#331,#332,#333);
#331 = CARTESIAN_POINT('',(-13.5,-6.7,3.5));
#332 = DIRECTION('',(0.57735026919,0.57735026919,-0.57735026919));
#333 = DIRECTION('',(2.775557561563E-17,0.707106781187,0.707106781187));
#334 = ADVANCED_FACE('',(#335),#345,.T.);
#335 = FACE_BOUND('',#336,.T.);
#336 = EDGE_LOOP('',(#337,#338,#344));
#337 = ORIENTED_EDGE('',*,*,#194,.F.);
#338 = ORIENTED_EDGE('',*,*,#339,.T.);
#339 = EDGE_CURVE('',#195,#142,#340,.T.);
#340 = LINE('',#341,#342);
#341 = CARTESIAN_POINT('',(-13.2,20.925,-17.575));
#342 = VECTOR('',#343,1.);
#343 = DIRECTION('',(4.23E-15,-0.707106781187,-0.707106781187));
#344 = ORIENTED_EDGE('',*,*,#149,.F.);
#345 = PLANE('',#346);
#346 = AXIS2_PLACEMENT_3D('',#347,#348,#349);
#347 = CARTESIAN_POINT('',(-13.2,21.,-17.5));
#348 = DIRECTION('',(-0.57735026919,0.57735026919,-0.57735026919));
#349 = DIRECTION('',(0.707106781187,0.,-0.707106781187));
#350 = ADVANCED_FACE('',(#351,#376),#410,.F.);
#351 = FACE_BOUND('',#352,.F.);
#352 = EDGE_LOOP('',(#353,#363,#369,#370));
#353 = ORIENTED_EDGE('',*,*,#354,.T.);
#354 = EDGE_CURVE('',#355,#357,#359,.T.);
#355 = VERTEX_POINT('',#356);
#356 = CARTESIAN_POINT('',(13.2,-6.7,-17.8));
#357 = VERTEX_POINT('',#358);
#358 = CARTESIAN_POINT('',(13.2,20.7,-17.8));
#359 = LINE('',#360,#361);
#360 = CARTESIAN_POINT('',(13.2,-7.,-17.8));
#361 = VECTOR('',#362,1.);
#362 = DIRECTION('',(0.,1.,0.));
#363 = ORIENTED_EDGE('',*,*,#364,.T.);
#364 = EDGE_CURVE('',#357,#142,#365,.T.);
#365 = LINE('',#366,#367);
#366 = CARTESIAN_POINT('',(13.5,20.7,-17.8));
#367 = VECTOR('',#368,1.);
#368 = DIRECTION('',(-1.,0.,0.));
#369 = ORIENTED_EDGE('',*,*,#141,.T.);
#370 = ORIENTED_EDGE('',*,*,#371,.T.);
#371 = EDGE_CURVE('',#134,#355,#372,.T.);
#372 = LINE('',#373,#374);
#373 = CARTESIAN_POINT('',(-13.5,-6.7,-17.8));
#374 = VECTOR('',#375,1.);
#375 = DIRECTION('',(1.,0.,0.));
#376 = FACE_BOUND('',#377,.F.);
#377 = EDGE_LOOP('',(#378,#388,#396,#404));
#378 = ORIENTED_EDGE('',*,*,#379,.F.);
#379 = EDGE_CURVE('',#380,#382,#384,.T.);
#380 = VERTEX_POINT('',#381);
#381 = CARTESIAN_POINT('',(-6.8,13.3,-17.8));
#382 = VERTEX_POINT('',#383);
#383 = CARTESIAN_POINT('',(-6.8,-0.3,-17.8));
#384 = LINE('',#385,#386);
#385 = CARTESIAN_POINT('',(-6.8,13.,-17.8));
#386 = VECTOR('',#387,1.);
#387 = DIRECTION('',(0.,-1.,0.));
#388 = ORIENTED_EDGE('',*,*,#389,.F.);
#389 = EDGE_CURVE('',#390,#380,#392,.T.);
#390 = VERTEX_POINT('',#391);
#391 = CARTESIAN_POINT('',(6.8,13.3,-17.8));
#392 = LINE('',#393,#394);
#393 = CARTESIAN_POINT('',(6.5,13.3,-17.8));
#394 = VECTOR('',#395,1.);
#395 = DIRECTION('',(-1.,0.,0.));
#396 = ORIENTED_EDGE('',*,*,#397,.F.);
#397 = EDGE_CURVE('',#398,#390,#400,.T.);
#398 = VERTEX_POINT('',#399);
#399 = CARTESIAN_POINT('',(6.8,-0.3,-17.8));
#400 = LINE('',#401,#402);
#401 = CARTESIAN_POINT('',(6.8,0.,-17.8));
#402 = VECTOR('',#403,1.);
#403 = DIRECTION('',(0.,1.,0.));
#404 = ORIENTED_EDGE('',*,*,#405,.F.);
#405 = EDGE_CURVE('',#382,#398,#406,.T.);
#406 = LINE('',#407,#408);
#407 = CARTESIAN_POINT('',(-6.5,-0.3,-17.8));
#408 = VECTOR('',#409,1.);
#409 = DIRECTION('',(1.,0.,0.));
#410 = PLANE('',#411);
#411 = AXIS2_PLACEMENT_3D('',#412,#413,#414);
#412 = CARTESIAN_POINT('',(0.,6.83950617284,-17.8));
#413 = DIRECTION('',(0.,0.,1.));
#414 = DIRECTION('',(1.,0.,0.));
#415 = ADVANCED_FACE('',(#416),#426,.T.);
#416 = FACE_BOUND('',#417,.T.);
#417 = EDGE_LOOP('',(#418,#419,#425));
#418 = ORIENTED_EDGE('',*,*,#163,.F.);
#419 = ORIENTED_EDGE('',*,*,#420,.T.);
#420 = EDGE_CURVE('',#164,#204,#421,.T.);
#421 = LINE('',#422,#423);
#422 = CARTESIAN_POINT('',(-13.2,20.775,3.725));
#423 = VECTOR('',#424,1.);
#424 = DIRECTION('',(-6.15E-15,0.707106781187,-0.707106781187));
#425 = ORIENTED_EDGE('',*,*,#203,.F.);
#426 = PLANE('',#427);
#427 = AXIS2_PLACEMENT_3D('',#428,#429,#430);
#428 = CARTESIAN_POINT('',(-13.2,20.7,3.8));
#429 = DIRECTION('',(-0.57735026919,0.57735026919,0.57735026919));
#430 = DIRECTION('',(0.707106781187,0.707106781187,0.));
#431 = ADVANCED_FACE('',(#432),#537,.T.);
#432 = FACE_BOUND('',#433,.T.);
#433 = EDGE_LOOP('',(#434,#444,#452,#460,#468,#476,#484,#490,#491,#499,
    #507,#515,#523,#531));
#434 = ORIENTED_EDGE('',*,*,#435,.T.);
#435 = EDGE_CURVE('',#436,#438,#440,.T.);
#436 = VERTEX_POINT('',#437);
#437 = CARTESIAN_POINT('',(6.5,12.7,3.8));
#438 = VERTEX_POINT('',#439);
#439 = CARTESIAN_POINT('',(6.5,0.,3.8));
#440 = LINE('',#441,#442);
#441 = CARTESIAN_POINT('',(6.5,6.5,3.8));
#442 = VECTOR('',#443,1.);
#443 = DIRECTION('',(-0.,-1.,-0.));
#444 = ORIENTED_EDGE('',*,*,#445,.T.);
#445 = EDGE_CURVE('',#438,#446,#448,.T.);
#446 = VERTEX_POINT('',#447);
#447 = CARTESIAN_POINT('',(-6.5,0.,3.8));
#448 = LINE('',#449,#450);
#449 = CARTESIAN_POINT('',(-10.,1.E-17,3.8));
#450 = VECTOR('',#451,1.);
#451 = DIRECTION('',(-1.,0.,0.));
#452 = ORIENTED_EDGE('',*,*,#453,.T.);
#453 = EDGE_CURVE('',#446,#454,#456,.T.);
#454 = VERTEX_POINT('',#455);
#455 = CARTESIAN_POINT('',(-6.5,12.7,3.8));
#456 = LINE('',#457,#458);
#457 = CARTESIAN_POINT('',(-6.5,13.,3.8));
#458 = VECTOR('',#459,1.);
#459 = DIRECTION('',(0.,1.,0.));
#460 = ORIENTED_EDGE('',*,*,#461,.F.);
#461 = EDGE_CURVE('',#462,#454,#464,.T.);
#462 = VERTEX_POINT('',#463);
#463 = CARTESIAN_POINT('',(-10.2,12.7,3.8));
#464 = LINE('',#465,#466);
#465 = CARTESIAN_POINT('',(-10.5,12.7,3.8));
#466 = VECTOR('',#467,1.);
#467 = DIRECTION('',(1.,0.,0.));
#468 = ORIENTED_EDGE('',*,*,#469,.F.);
#469 = EDGE_CURVE('',#470,#462,#472,.T.);
#470 = VERTEX_POINT('',#471);
#471 = CARTESIAN_POINT('',(-10.8,13.3,3.8));
#472 = LINE('',#473,#474);
#473 = CARTESIAN_POINT('',(-6.2125,8.7125,3.8));
#474 = VECTOR('',#475,1.);
#475 = DIRECTION('',(0.707106781187,-0.707106781187,0.));
#476 = ORIENTED_EDGE('',*,*,#477,.T.);
#477 = EDGE_CURVE('',#470,#478,#480,.T.);
#478 = VERTEX_POINT('',#479);
#479 = CARTESIAN_POINT('',(-10.8,20.7,3.8));
#480 = LINE('',#481,#482);
#481 = CARTESIAN_POINT('',(-10.8,13.,3.8));
#482 = VECTOR('',#483,1.);
#483 = DIRECTION('',(0.,1.,-2.2E-16));
#484 = ORIENTED_EDGE('',*,*,#485,.F.);
#485 = EDGE_CURVE('',#164,#478,#486,.T.);
#486 = LINE('',#487,#488);
#487 = CARTESIAN_POINT('',(-13.5,20.7,3.8));
#488 = VECTOR('',#489,1.);
#489 = DIRECTION('',(1.,0.,0.));
#490 = ORIENTED_EDGE('',*,*,#180,.T.);
#491 = ORIENTED_EDGE('',*,*,#492,.T.);
#492 = EDGE_CURVE('',#173,#493,#495,.T.);
#493 = VERTEX_POINT('',#494);
#494 = CARTESIAN_POINT('',(13.2,-6.7,3.8));
#495 = LINE('',#496,#497);
#496 = CARTESIAN_POINT('',(-13.5,-6.7,3.8));
#497 = VECTOR('',#498,1.);
#498 = DIRECTION('',(1.,0.,0.));
#499 = ORIENTED_EDGE('',*,*,#500,.T.);
#500 = EDGE_CURVE('',#493,#501,#503,.T.);
#501 = VERTEX_POINT('',#502);
#502 = CARTESIAN_POINT('',(13.2,20.7,3.8));
#503 = LINE('',#504,#505);
#504 = CARTESIAN_POINT('',(13.2,-7.,3.8));
#505 = VECTOR('',#506,1.);
#506 = DIRECTION('',(0.,1.,-2.2E-16));
#507 = ORIENTED_EDGE('',*,*,#508,.F.);
#508 = EDGE_CURVE('',#509,#501,#511,.T.);
#509 = VERTEX_POINT('',#510);
#510 = CARTESIAN_POINT('',(10.8,20.7,3.8));
#511 = LINE('',#512,#513);
#512 = CARTESIAN_POINT('',(10.5,20.7,3.8));
#513 = VECTOR('',#514,1.);
#514 = DIRECTION('',(1.,0.,0.));
#515 = ORIENTED_EDGE('',*,*,#516,.F.);
#516 = EDGE_CURVE('',#517,#509,#519,.T.);
#517 = VERTEX_POINT('',#518);
#518 = CARTESIAN_POINT('',(10.8,13.3,3.8));
#519 = LINE('',#520,#521);
#520 = CARTESIAN_POINT('',(10.8,13.,3.8));
#521 = VECTOR('',#522,1.);
#522 = DIRECTION('',(0.,1.,-2.2E-16));
#523 = ORIENTED_EDGE('',*,*,#524,.T.);
#524 = EDGE_CURVE('',#517,#525,#527,.T.);
#525 = VERTEX_POINT('',#526);
#526 = CARTESIAN_POINT('',(10.2,12.7,3.8));
#527 = LINE('',#528,#529);
#528 = CARTESIAN_POINT('',(6.2125,8.7125,3.8));
#529 = VECTOR('',#530,1.);
#530 = DIRECTION('',(-0.707106781187,-0.707106781187,0.));
#531 = ORIENTED_EDGE('',*,*,#532,.F.);
#532 = EDGE_CURVE('',#436,#525,#533,.T.);
#533 = LINE('',#534,#535);
#534 = CARTESIAN_POINT('',(6.5,12.7,3.8));
#535 = VECTOR('',#536,1.);
#536 = DIRECTION('',(1.,0.,0.));
#537 = PLANE('',#538);
#538 = AXIS2_PLACEMENT_3D('',#539,#540,#541);
#539 = CARTESIAN_POINT('',(-3.7E-16,5.75,3.8));
#540 = DIRECTION('',(0.,0.,1.));
#541 = DIRECTION('',(1.,0.,0.));
#542 = ADVANCED_FACE('',(#543,#616,#627),#638,.F.);
#543 = FACE_BOUND('',#544,.F.);
#544 = EDGE_LOOP('',(#545,#555,#563,#571,#579,#587,#595,#603,#609,#610)
  );
#545 = ORIENTED_EDGE('',*,*,#546,.T.);
#546 = EDGE_CURVE('',#547,#549,#551,.T.);
#547 = VERTEX_POINT('',#548);
#548 = CARTESIAN_POINT('',(13.2,21.,-17.5));
#549 = VERTEX_POINT('',#550);
#550 = CARTESIAN_POINT('',(13.2,21.,3.5));
#551 = LINE('',#552,#553);
#552 = CARTESIAN_POINT('',(13.2,21.,-17.8));
#553 = VECTOR('',#554,1.);
#554 = DIRECTION('',(0.,0.,1.));
#555 = ORIENTED_EDGE('',*,*,#556,.F.);
#556 = EDGE_CURVE('',#557,#549,#559,.T.);
#557 = VERTEX_POINT('',#558);
#558 = CARTESIAN_POINT('',(10.8,21.,3.5));
#559 = LINE('',#560,#561);
#560 = CARTESIAN_POINT('',(10.5,21.,3.5));
#561 = VECTOR('',#562,1.);
#562 = DIRECTION('',(1.,0.,0.));
#563 = ORIENTED_EDGE('',*,*,#564,.F.);
#564 = EDGE_CURVE('',#565,#557,#567,.T.);
#565 = VERTEX_POINT('',#566);
#566 = CARTESIAN_POINT('',(10.2,21.,4.1));
#567 = LINE('',#568,#569);
#568 = CARTESIAN_POINT('',(16.5,21.,-2.2));
#569 = VECTOR('',#570,1.);
#570 = DIRECTION('',(0.707106781187,0.,-0.707106781187));
#571 = ORIENTED_EDGE('',*,*,#572,.F.);
#572 = EDGE_CURVE('',#573,#565,#575,.T.);
#573 = VERTEX_POINT('',#574);
#574 = CARTESIAN_POINT('',(10.2,21.,17.5));
#575 = LINE('',#576,#577);
#576 = CARTESIAN_POINT('',(10.2,21.,17.8));
#577 = VECTOR('',#578,1.);
#578 = DIRECTION('',(0.,0.,-1.));
#579 = ORIENTED_EDGE('',*,*,#580,.T.);
#580 = EDGE_CURVE('',#573,#581,#583,.T.);
#581 = VERTEX_POINT('',#582);
#582 = CARTESIAN_POINT('',(-10.2,21.,17.5));
#583 = LINE('',#584,#585);
#584 = CARTESIAN_POINT('',(10.5,21.,17.5));
#585 = VECTOR('',#586,1.);
#586 = DIRECTION('',(-1.,0.,0.));
#587 = ORIENTED_EDGE('',*,*,#588,.F.);
#588 = EDGE_CURVE('',#589,#581,#591,.T.);
#589 = VERTEX_POINT('',#590);
#590 = CARTESIAN_POINT('',(-10.2,21.,4.1));
#591 = LINE('',#592,#593);
#592 = CARTESIAN_POINT('',(-10.2,21.,3.8));
#593 = VECTOR('',#594,1.);
#594 = DIRECTION('',(0.,0.,1.));
#595 = ORIENTED_EDGE('',*,*,#596,.F.);
#596 = EDGE_CURVE('',#597,#589,#599,.T.);
#597 = VERTEX_POINT('',#598);
#598 = CARTESIAN_POINT('',(-10.8,21.,3.5));
#599 = LINE('',#600,#601);
#600 = CARTESIAN_POINT('',(-10.05,21.,4.25));
#601 = VECTOR('',#602,1.);
#602 = DIRECTION('',(0.707106781187,0.,0.707106781187));
#603 = ORIENTED_EDGE('',*,*,#604,.F.);
#604 = EDGE_CURVE('',#204,#597,#605,.T.);
#605 = LINE('',#606,#607);
#606 = CARTESIAN_POINT('',(-13.5,21.,3.5));
#607 = VECTOR('',#608,1.);
#608 = DIRECTION('',(1.,0.,0.));
#609 = ORIENTED_EDGE('',*,*,#211,.F.);
#610 = ORIENTED_EDGE('',*,*,#611,.F.);
#611 = EDGE_CURVE('',#547,#195,#612,.T.);
#612 = LINE('',#613,#614);
#613 = CARTESIAN_POINT('',(13.5,21.,-17.5));
#614 = VECTOR('',#615,1.);
#615 = DIRECTION('',(-1.,0.,0.));
#616 = FACE_BOUND('',#617,.F.);
#617 = EDGE_LOOP('',(#618));
#618 = ORIENTED_EDGE('',*,*,#619,.T.);
#619 = EDGE_CURVE('',#620,#620,#622,.T.);
#620 = VERTEX_POINT('',#621);
#621 = CARTESIAN_POINT('',(2.05,21.,10.8));
#622 = CIRCLE('',#623,3.95);
#623 = AXIS2_PLACEMENT_3D('',#624,#625,#626);
#624 = CARTESIAN_POINT('',(6.,21.,10.8));
#625 = DIRECTION('',(0.,1.,-0.));
#626 = DIRECTION('',(-1.,0.,0.));
#627 = FACE_BOUND('',#628,.F.);
#628 = EDGE_LOOP('',(#629));
#629 = ORIENTED_EDGE('',*,*,#630,.T.);
#630 = EDGE_CURVE('',#631,#631,#633,.T.);
#631 = VERTEX_POINT('',#632);
#632 = CARTESIAN_POINT('',(-9.95,21.,10.8));
#633 = CIRCLE('',#634,3.95);
#634 = AXIS2_PLACEMENT_3D('',#635,#636,#637);
#635 = CARTESIAN_POINT('',(-6.,21.,10.8));
#636 = DIRECTION('',(0.,1.,-0.));
#637 = DIRECTION('',(-1.,0.,0.));
#638 = PLANE('',#639);
#639 = AXIS2_PLACEMENT_3D('',#640,#641,#642);
#640 = CARTESIAN_POINT('',(13.5,21.,-17.8));
#641 = DIRECTION('',(0.,-1.,0.));
#642 = DIRECTION('',(-1.,0.,0.));
#643 = ADVANCED_FACE('',(#644),#663,.F.);
#644 = FACE_BOUND('',#645,.F.);
#645 = EDGE_LOOP('',(#646,#654,#661,#662));
#646 = ORIENTED_EDGE('',*,*,#647,.T.);
#647 = EDGE_CURVE('',#226,#648,#650,.T.);
#648 = VERTEX_POINT('',#649);
#649 = CARTESIAN_POINT('',(-9.5,3.,-2.));
#650 = LINE('',#651,#652);
#651 = CARTESIAN_POINT('',(-13.5,3.,-2.));
#652 = VECTOR('',#653,1.);
#653 = DIRECTION('',(1.,0.,0.));
#654 = ORIENTED_EDGE('',*,*,#655,.T.);
#655 = EDGE_CURVE('',#648,#648,#656,.T.);
#656 = CIRCLE('',#657,3.5);
#657 = AXIS2_PLACEMENT_3D('',#658,#659,#660);
#658 = CARTESIAN_POINT('',(-9.5,6.5,-2.));
#659 = DIRECTION('',(-1.,0.,0.));
#660 = DIRECTION('',(0.,-1.,0.));
#661 = ORIENTED_EDGE('',*,*,#647,.F.);
#662 = ORIENTED_EDGE('',*,*,#235,.F.);
#663 = CYLINDRICAL_SURFACE('',#664,3.5);
#664 = AXIS2_PLACEMENT_3D('',#665,#666,#667);
#665 = CARTESIAN_POINT('',(-13.5,6.5,-2.));
#666 = DIRECTION('',(-1.,0.,0.));
#667 = DIRECTION('',(0.,-1.,0.));
#668 = ADVANCED_FACE('',(#669),#688,.F.);
#669 = FACE_BOUND('',#670,.F.);
#670 = EDGE_LOOP('',(#671,#679,#686,#687));
#671 = ORIENTED_EDGE('',*,*,#672,.T.);
#672 = EDGE_CURVE('',#251,#673,#675,.T.);
#673 = VERTEX_POINT('',#674);
#674 = CARTESIAN_POINT('',(-9.5,3.,-12.));
#675 = LINE('',#676,#677);
#676 = CARTESIAN_POINT('',(-13.5,3.,-12.));
#677 = VECTOR('',#678,1.);
#678 = DIRECTION('',(1.,0.,0.));
#679 = ORIENTED_EDGE('',*,*,#680,.T.);
#680 = EDGE_CURVE('',#673,#673,#681,.T.);
#681 = CIRCLE('',#682,3.5);
#682 = AXIS2_PLACEMENT_3D('',#683,#684,#685);
#683 = CARTESIAN_POINT('',(-9.5,6.5,-12.));
#684 = DIRECTION('',(-1.,0.,0.));
#685 = DIRECTION('',(0.,-1.,0.));
#686 = ORIENTED_EDGE('',*,*,#672,.F.);
#687 = ORIENTED_EDGE('',*,*,#260,.F.);
#688 = CYLINDRICAL_SURFACE('',#689,3.5);
#689 = AXIS2_PLACEMENT_3D('',#690,#691,#692);
#690 = CARTESIAN_POINT('',(-13.5,6.5,-12.));
#691 = DIRECTION('',(-1.,0.,0.));
#692 = DIRECTION('',(0.,-1.,0.));
#693 = ADVANCED_FACE('',(#694),#705,.T.);
#694 = FACE_BOUND('',#695,.T.);
#695 = EDGE_LOOP('',(#696,#697,#703,#704));
#696 = ORIENTED_EDGE('',*,*,#371,.T.);
#697 = ORIENTED_EDGE('',*,*,#698,.F.);
#698 = EDGE_CURVE('',#292,#355,#699,.T.);
#699 = LINE('',#700,#701);
#700 = CARTESIAN_POINT('',(13.2,-6.925,-17.575));
#701 = VECTOR('',#702,1.);
#702 = DIRECTION('',(6.25E-15,0.707106781187,-0.707106781187));
#703 = ORIENTED_EDGE('',*,*,#301,.F.);
#704 = ORIENTED_EDGE('',*,*,#277,.T.);
#705 = PLANE('',#706);
#706 = AXIS2_PLACEMENT_3D('',#707,#708,#709);
#707 = CARTESIAN_POINT('',(-13.5,-6.85,-17.65));
#708 = DIRECTION('',(0.,-0.707106781187,-0.707106781187));
#709 = DIRECTION('',(1.,0.,0.));
#710 = ADVANCED_FACE('',(#711),#736,.T.);
#711 = FACE_BOUND('',#712,.F.);
#712 = EDGE_LOOP('',(#713,#721,#722,#730));
#713 = ORIENTED_EDGE('',*,*,#714,.F.);
#714 = EDGE_CURVE('',#292,#715,#717,.T.);
#715 = VERTEX_POINT('',#716);
#716 = CARTESIAN_POINT('',(13.5,-6.7,-17.5));
#717 = LINE('',#718,#719);
#718 = CARTESIAN_POINT('',(13.275,-6.925,-17.5));
#719 = VECTOR('',#720,1.);
#720 = DIRECTION('',(0.707106781187,0.707106781187,2.12E-15));
#721 = ORIENTED_EDGE('',*,*,#291,.T.);
#722 = ORIENTED_EDGE('',*,*,#723,.F.);
#723 = EDGE_CURVE('',#724,#294,#726,.T.);
#724 = VERTEX_POINT('',#725);
#725 = CARTESIAN_POINT('',(13.5,-6.7,3.5));
#726 = LINE('',#727,#728);
#727 = CARTESIAN_POINT('',(13.35,-6.85,3.5));
#728 = VECTOR('',#729,1.);
#729 = DIRECTION('',(-0.707106781187,-0.707106781187,2.12E-15));
#730 = ORIENTED_EDGE('',*,*,#731,.F.);
#731 = EDGE_CURVE('',#715,#724,#732,.T.);
#732 = LINE('',#733,#734);
#733 = CARTESIAN_POINT('',(13.5,-6.7,-17.8));
#734 = VECTOR('',#735,1.);
#735 = DIRECTION('',(0.,0.,1.));
#736 = PLANE('',#737);
#737 = AXIS2_PLACEMENT_3D('',#738,#739,#740);
#738 = CARTESIAN_POINT('',(13.35,-6.85,-17.8));
#739 = DIRECTION('',(0.707106781187,-0.707106781187,0.));
#740 = DIRECTION('',(-0.,-0.,-1.));
#741 = ADVANCED_FACE('',(#742),#753,.F.);
#742 = FACE_BOUND('',#743,.T.);
#743 = EDGE_LOOP('',(#744,#745,#751,#752));
#744 = ORIENTED_EDGE('',*,*,#308,.T.);
#745 = ORIENTED_EDGE('',*,*,#746,.F.);
#746 = EDGE_CURVE('',#493,#294,#747,.T.);
#747 = LINE('',#748,#749);
#748 = CARTESIAN_POINT('',(13.2,-6.775,3.725));
#749 = VECTOR('',#750,1.);
#750 = DIRECTION('',(2.02E-15,-0.707106781187,-0.707106781187));
#751 = ORIENTED_EDGE('',*,*,#492,.F.);
#752 = ORIENTED_EDGE('',*,*,#324,.F.);
#753 = PLANE('',#754);
#754 = AXIS2_PLACEMENT_3D('',#755,#756,#757);
#755 = CARTESIAN_POINT('',(-13.5,-6.85,3.65));
#756 = DIRECTION('',(0.,0.707106781187,-0.707106781187));
#757 = DIRECTION('',(-1.,-0.,-0.));
#758 = ADVANCED_FACE('',(#759),#770,.T.);
#759 = FACE_BOUND('',#760,.T.);
#760 = EDGE_LOOP('',(#761,#767,#768,#769));
#761 = ORIENTED_EDGE('',*,*,#762,.T.);
#762 = EDGE_CURVE('',#547,#357,#763,.T.);
#763 = LINE('',#764,#765);
#764 = CARTESIAN_POINT('',(13.2,20.925,-17.575));
#765 = VECTOR('',#766,1.);
#766 = DIRECTION('',(-4.23E-15,-0.707106781187,-0.707106781187));
#767 = ORIENTED_EDGE('',*,*,#364,.T.);
#768 = ORIENTED_EDGE('',*,*,#339,.F.);
#769 = ORIENTED_EDGE('',*,*,#611,.F.);
#770 = PLANE('',#771);
#771 = AXIS2_PLACEMENT_3D('',#772,#773,#774);
#772 = CARTESIAN_POINT('',(13.5,20.85,-17.65));
#773 = DIRECTION('',(0.,0.707106781187,-0.707106781187));
#774 = DIRECTION('',(-1.,0.,0.));
#775 = ADVANCED_FACE('',(#776),#799,.T.);
#776 = FACE_BOUND('',#777,.T.);
#777 = EDGE_LOOP('',(#778,#779,#787,#793));
#778 = ORIENTED_EDGE('',*,*,#354,.T.);
#779 = ORIENTED_EDGE('',*,*,#780,.F.);
#780 = EDGE_CURVE('',#781,#357,#783,.T.);
#781 = VERTEX_POINT('',#782);
#782 = CARTESIAN_POINT('',(13.5,20.7,-17.5));
#783 = LINE('',#784,#785);
#784 = CARTESIAN_POINT('',(13.35,20.7,-17.65));
#785 = VECTOR('',#786,1.);
#786 = DIRECTION('',(-0.707106781187,4.23E-15,-0.707106781187));
#787 = ORIENTED_EDGE('',*,*,#788,.F.);
#788 = EDGE_CURVE('',#715,#781,#789,.T.);
#789 = LINE('',#790,#791);
#790 = CARTESIAN_POINT('',(13.5,-7.,-17.5));
#791 = VECTOR('',#792,1.);
#792 = DIRECTION('',(0.,1.,0.));
#793 = ORIENTED_EDGE('',*,*,#794,.T.);
#794 = EDGE_CURVE('',#715,#355,#795,.T.);
#795 = LINE('',#796,#797);
#796 = CARTESIAN_POINT('',(13.35,-6.7,-17.65));
#797 = VECTOR('',#798,1.);
#798 = DIRECTION('',(-0.707106781187,-8.27E-15,-0.707106781187));
#799 = PLANE('',#800);
#800 = AXIS2_PLACEMENT_3D('',#801,#802,#803);
#801 = CARTESIAN_POINT('',(13.35,-7.,-17.65));
#802 = DIRECTION('',(0.707106781187,0.,-0.707106781187));
#803 = DIRECTION('',(0.,1.,0.));
#804 = ADVANCED_FACE('',(#805),#830,.F.);
#805 = FACE_BOUND('',#806,.F.);
#806 = EDGE_LOOP('',(#807,#815,#816,#824));
#807 = ORIENTED_EDGE('',*,*,#808,.F.);
#808 = EDGE_CURVE('',#380,#809,#811,.T.);
#809 = VERTEX_POINT('',#810);
#810 = CARTESIAN_POINT('',(-6.5,13.,-17.5));
#811 = LINE('',#812,#813);
#812 = CARTESIAN_POINT('',(-4.433333333333,10.933333333333,
    -15.43333333333));
#813 = VECTOR('',#814,1.);
#814 = DIRECTION('',(0.57735026919,-0.57735026919,0.57735026919));
#815 = ORIENTED_EDGE('',*,*,#379,.T.);
#816 = ORIENTED_EDGE('',*,*,#817,.T.);
#817 = EDGE_CURVE('',#382,#818,#820,.T.);
#818 = VERTEX_POINT('',#819);
#819 = CARTESIAN_POINT('',(-6.5,0.,-17.5));
#820 = LINE('',#821,#822);
#821 = CARTESIAN_POINT('',(-4.433333333333,2.066666666667,
    -15.43333333333));
#822 = VECTOR('',#823,1.);
#823 = DIRECTION('',(0.57735026919,0.57735026919,0.57735026919));
#824 = ORIENTED_EDGE('',*,*,#825,.F.);
#825 = EDGE_CURVE('',#809,#818,#826,.T.);
#826 = LINE('',#827,#828);
#827 = CARTESIAN_POINT('',(-6.5,13.,-17.5));
#828 = VECTOR('',#829,1.);
#829 = DIRECTION('',(0.,-1.,0.));
#830 = PLANE('',#831);
#831 = AXIS2_PLACEMENT_3D('',#832,#833,#834);
#832 = CARTESIAN_POINT('',(-6.65,13.,-17.65));
#833 = DIRECTION('',(-0.707106781187,0.,0.707106781187));
#834 = DIRECTION('',(0.,-1.,0.));
#835 = ADVANCED_FACE('',(#836),#854,.F.);
#836 = FACE_BOUND('',#837,.F.);
#837 = EDGE_LOOP('',(#838,#846,#847,#848));
#838 = ORIENTED_EDGE('',*,*,#839,.F.);
#839 = EDGE_CURVE('',#390,#840,#842,.T.);
#840 = VERTEX_POINT('',#841);
#841 = CARTESIAN_POINT('',(6.5,13.,-17.5));
#842 = LINE('',#843,#844);
#843 = CARTESIAN_POINT('',(4.433333333333,10.933333333333,
    -15.43333333333));
#844 = VECTOR('',#845,1.);
#845 = DIRECTION('',(-0.57735026919,-0.57735026919,0.57735026919));
#846 = ORIENTED_EDGE('',*,*,#389,.T.);
#847 = ORIENTED_EDGE('',*,*,#808,.T.);
#848 = ORIENTED_EDGE('',*,*,#849,.F.);
#849 = EDGE_CURVE('',#840,#809,#850,.T.);
#850 = LINE('',#851,#852);
#851 = CARTESIAN_POINT('',(6.5,13.,-17.5));
#852 = VECTOR('',#853,1.);
#853 = DIRECTION('',(-1.,0.,0.));
#854 = PLANE('',#855);
#855 = AXIS2_PLACEMENT_3D('',#856,#857,#858);
#856 = CARTESIAN_POINT('',(6.5,13.15,-17.65));
#857 = DIRECTION('',(0.,0.707106781187,0.707106781187));
#858 = DIRECTION('',(-1.,0.,0.));
#859 = ADVANCED_FACE('',(#860),#878,.F.);
#860 = FACE_BOUND('',#861,.F.);
#861 = EDGE_LOOP('',(#862,#863,#864,#872));
#862 = ORIENTED_EDGE('',*,*,#817,.F.);
#863 = ORIENTED_EDGE('',*,*,#405,.T.);
#864 = ORIENTED_EDGE('',*,*,#865,.T.);
#865 = EDGE_CURVE('',#398,#866,#868,.T.);
#866 = VERTEX_POINT('',#867);
#867 = CARTESIAN_POINT('',(6.5,-2.E-15,-17.5));
#868 = LINE('',#869,#870);
#869 = CARTESIAN_POINT('',(4.433333333333,2.066666666667,-15.43333333333
    ));
#870 = VECTOR('',#871,1.);
#871 = DIRECTION('',(-0.57735026919,0.57735026919,0.57735026919));
#872 = ORIENTED_EDGE('',*,*,#873,.F.);
#873 = EDGE_CURVE('',#818,#866,#874,.T.);
#874 = LINE('',#875,#876);
#875 = CARTESIAN_POINT('',(-6.5,1.E-17,-17.5));
#876 = VECTOR('',#877,1.);
#877 = DIRECTION('',(1.,0.,0.));
#878 = PLANE('',#879);
#879 = AXIS2_PLACEMENT_3D('',#880,#881,#882);
#880 = CARTESIAN_POINT('',(-6.5,-0.15,-17.65));
#881 = DIRECTION('',(0.,-0.707106781187,0.707106781187));
#882 = DIRECTION('',(1.,0.,0.));
#883 = ADVANCED_FACE('',(#884),#895,.F.);
#884 = FACE_BOUND('',#885,.F.);
#885 = EDGE_LOOP('',(#886,#887,#888,#889));
#886 = ORIENTED_EDGE('',*,*,#865,.F.);
#887 = ORIENTED_EDGE('',*,*,#397,.T.);
#888 = ORIENTED_EDGE('',*,*,#839,.T.);
#889 = ORIENTED_EDGE('',*,*,#890,.F.);
#890 = EDGE_CURVE('',#866,#840,#891,.T.);
#891 = LINE('',#892,#893);
#892 = CARTESIAN_POINT('',(6.5,0.,-17.5));
#893 = VECTOR('',#894,1.);
#894 = DIRECTION('',(0.,1.,0.));
#895 = PLANE('',#896);
#896 = AXIS2_PLACEMENT_3D('',#897,#898,#899);
#897 = CARTESIAN_POINT('',(6.65,0.,-17.65));
#898 = DIRECTION('',(0.707106781187,0.,0.707106781187));
#899 = DIRECTION('',(-0.,1.,0.));
#900 = ADVANCED_FACE('',(#901),#912,.F.);
#901 = FACE_BOUND('',#902,.F.);
#902 = EDGE_LOOP('',(#903,#904,#905,#911));
#903 = ORIENTED_EDGE('',*,*,#420,.T.);
#904 = ORIENTED_EDGE('',*,*,#604,.T.);
#905 = ORIENTED_EDGE('',*,*,#906,.T.);
#906 = EDGE_CURVE('',#597,#478,#907,.T.);
#907 = LINE('',#908,#909);
#908 = CARTESIAN_POINT('',(-10.8,20.925,3.575));
#909 = VECTOR('',#910,1.);
#910 = DIRECTION('',(-2.12E-15,-0.707106781187,0.707106781187));
#911 = ORIENTED_EDGE('',*,*,#485,.F.);
#912 = PLANE('',#913);
#913 = AXIS2_PLACEMENT_3D('',#914,#915,#916);
#914 = CARTESIAN_POINT('',(-13.5,20.85,3.65));
#915 = DIRECTION('',(0.,-0.707106781187,-0.707106781187));
#916 = DIRECTION('',(1.,0.,0.));
#917 = ADVANCED_FACE('',(#918,#950,#961),#972,.T.);
#918 = FACE_BOUND('',#919,.T.);
#919 = EDGE_LOOP('',(#920,#926,#927,#935,#943,#949));
#920 = ORIENTED_EDGE('',*,*,#921,.T.);
#921 = EDGE_CURVE('',#866,#438,#922,.T.);
#922 = LINE('',#923,#924);
#923 = CARTESIAN_POINT('',(6.5,3.E-17,-17.8));
#924 = VECTOR('',#925,1.);
#925 = DIRECTION('',(0.,0.,1.));
#926 = ORIENTED_EDGE('',*,*,#435,.F.);
#927 = ORIENTED_EDGE('',*,*,#928,.T.);
#928 = EDGE_CURVE('',#436,#929,#931,.T.);
#929 = VERTEX_POINT('',#930);
#930 = CARTESIAN_POINT('',(6.5,13.,4.1));
#931 = LINE('',#932,#933);
#932 = CARTESIAN_POINT('',(6.5,4.2,-4.7));
#933 = VECTOR('',#934,1.);
#934 = DIRECTION('',(0.,0.707106781187,0.707106781187));
#935 = ORIENTED_EDGE('',*,*,#936,.F.);
#936 = EDGE_CURVE('',#937,#929,#939,.T.);
#937 = VERTEX_POINT('',#938);
#938 = CARTESIAN_POINT('',(6.5,13.,3.8));
#939 = LINE('',#940,#941);
#940 = CARTESIAN_POINT('',(6.5,13.,-7.692332268371));
#941 = VECTOR('',#942,1.);
#942 = DIRECTION('',(0.,0.,1.));
#943 = ORIENTED_EDGE('',*,*,#944,.F.);
#944 = EDGE_CURVE('',#840,#937,#945,.T.);
#945 = LINE('',#946,#947);
#946 = CARTESIAN_POINT('',(6.5,13.,-17.8));
#947 = VECTOR('',#948,1.);
#948 = DIRECTION('',(0.,0.,1.));
#949 = ORIENTED_EDGE('',*,*,#890,.F.);
#950 = FACE_BOUND('',#951,.T.);
#951 = EDGE_LOOP('',(#952));
#952 = ORIENTED_EDGE('',*,*,#953,.T.);
#953 = EDGE_CURVE('',#954,#954,#956,.T.);
#954 = VERTEX_POINT('',#955);
#955 = CARTESIAN_POINT('',(6.5,8.2,-2.));
#956 = CIRCLE('',#957,1.7);
#957 = AXIS2_PLACEMENT_3D('',#958,#959,#960);
#958 = CARTESIAN_POINT('',(6.5,6.5,-2.));
#959 = DIRECTION('',(1.,0.,0.));
#960 = DIRECTION('',(0.,1.,0.));
#961 = FACE_BOUND('',#962,.T.);
#962 = EDGE_LOOP('',(#963));
#963 = ORIENTED_EDGE('',*,*,#964,.T.);
#964 = EDGE_CURVE('',#965,#965,#967,.T.);
#965 = VERTEX_POINT('',#966);
#966 = CARTESIAN_POINT('',(6.5,8.2,-12.));
#967 = CIRCLE('',#968,1.7);
#968 = AXIS2_PLACEMENT_3D('',#969,#970,#971);
#969 = CARTESIAN_POINT('',(6.5,6.5,-12.));
#970 = DIRECTION('',(1.,0.,0.));
#971 = DIRECTION('',(0.,1.,0.));
#972 = PLANE('',#973);
#973 = AXIS2_PLACEMENT_3D('',#974,#975,#976);
#974 = CARTESIAN_POINT('',(6.5,3.E-17,-17.8));
#975 = DIRECTION('',(-1.,0.,0.));
#976 = DIRECTION('',(0.,1.,0.));
#977 = ADVANCED_FACE('',(#978),#996,.F.);
#978 = FACE_BOUND('',#979,.T.);
#979 = EDGE_LOOP('',(#980,#981,#982,#990));
#980 = ORIENTED_EDGE('',*,*,#928,.F.);
#981 = ORIENTED_EDGE('',*,*,#532,.T.);
#982 = ORIENTED_EDGE('',*,*,#983,.T.);
#983 = EDGE_CURVE('',#525,#984,#986,.T.);
#984 = VERTEX_POINT('',#985);
#985 = CARTESIAN_POINT('',(10.2,13.,4.1));
#986 = LINE('',#987,#988);
#987 = CARTESIAN_POINT('',(10.2,12.925,4.025));
#988 = VECTOR('',#989,1.);
#989 = DIRECTION('',(1.E-16,0.707106781187,0.707106781187));
#990 = ORIENTED_EDGE('',*,*,#991,.F.);
#991 = EDGE_CURVE('',#929,#984,#992,.T.);
#992 = LINE('',#993,#994);
#993 = CARTESIAN_POINT('',(6.5,13.,4.1));
#994 = VECTOR('',#995,1.);
#995 = DIRECTION('',(1.,0.,0.));
#996 = PLANE('',#997);
#997 = AXIS2_PLACEMENT_3D('',#998,#999,#1000);
#998 = CARTESIAN_POINT('',(6.5,12.85,3.95));
#999 = DIRECTION('',(0.,0.707106781187,-0.707106781187));
#1000 = DIRECTION('',(-1.,0.,-0.));
#1001 = ADVANCED_FACE('',(#1002),#1013,.T.);
#1002 = FACE_BOUND('',#1003,.T.);
#1003 = EDGE_LOOP('',(#1004,#1005,#1006,#1012));
#1004 = ORIENTED_EDGE('',*,*,#921,.F.);
#1005 = ORIENTED_EDGE('',*,*,#873,.F.);
#1006 = ORIENTED_EDGE('',*,*,#1007,.T.);
#1007 = EDGE_CURVE('',#818,#446,#1008,.T.);
#1008 = LINE('',#1009,#1010);
#1009 = CARTESIAN_POINT('',(-6.5,1.E-17,-17.8));
#1010 = VECTOR('',#1011,1.);
#1011 = DIRECTION('',(0.,0.,1.));
#1012 = ORIENTED_EDGE('',*,*,#445,.F.);
#1013 = PLANE('',#1014);
#1014 = AXIS2_PLACEMENT_3D('',#1015,#1016,#1017);
#1015 = CARTESIAN_POINT('',(-6.5,3.E-17,-17.8));
#1016 = DIRECTION('',(0.,1.,0.));
#1017 = DIRECTION('',(1.,0.,0.));
#1018 = ADVANCED_FACE('',(#1019),#1037,.F.);
#1019 = FACE_BOUND('',#1020,.F.);
#1020 = EDGE_LOOP('',(#1021,#1029,#1030,#1031));
#1021 = ORIENTED_EDGE('',*,*,#1022,.F.);
#1022 = EDGE_CURVE('',#517,#1023,#1025,.T.);
#1023 = VERTEX_POINT('',#1024);
#1024 = CARTESIAN_POINT('',(10.5,13.3,4.1));
#1025 = LINE('',#1026,#1027);
#1026 = CARTESIAN_POINT('',(10.725,13.3,3.875));
#1027 = VECTOR('',#1028,1.);
#1028 = DIRECTION('',(-0.707106781187,2.21E-15,0.707106781187));
#1029 = ORIENTED_EDGE('',*,*,#524,.T.);
#1030 = ORIENTED_EDGE('',*,*,#983,.T.);
#1031 = ORIENTED_EDGE('',*,*,#1032,.F.);
#1032 = EDGE_CURVE('',#1023,#984,#1033,.T.);
#1033 = LINE('',#1034,#1035);
#1034 = CARTESIAN_POINT('',(10.5,13.3,4.1));
#1035 = VECTOR('',#1036,1.);
#1036 = DIRECTION('',(-0.707106781187,-0.707106781187,-2.31E-15));
#1037 = PLANE('',#1038);
#1038 = AXIS2_PLACEMENT_3D('',#1039,#1040,#1041);
#1039 = CARTESIAN_POINT('',(10.8,13.3,3.8));
#1040 = DIRECTION('',(-0.57735026919,0.57735026919,-0.57735026919));
#1041 = DIRECTION('',(-0.707106781187,-0.707106781187,2.026157019941E-15
    ));
#1042 = ADVANCED_FACE('',(#1043,#1070,#1081),#1092,.T.);
#1043 = FACE_BOUND('',#1044,.T.);
#1044 = EDGE_LOOP('',(#1045,#1053,#1061,#1067,#1068,#1069));
#1045 = ORIENTED_EDGE('',*,*,#1046,.T.);
#1046 = EDGE_CURVE('',#809,#1047,#1049,.T.);
#1047 = VERTEX_POINT('',#1048);
#1048 = CARTESIAN_POINT('',(-6.5,13.,3.8));
#1049 = LINE('',#1050,#1051);
#1050 = CARTESIAN_POINT('',(-6.5,13.,-17.8));
#1051 = VECTOR('',#1052,1.);
#1052 = DIRECTION('',(0.,0.,1.));
#1053 = ORIENTED_EDGE('',*,*,#1054,.T.);
#1054 = EDGE_CURVE('',#1047,#1055,#1057,.T.);
#1055 = VERTEX_POINT('',#1056);
#1056 = CARTESIAN_POINT('',(-6.5,13.,4.1));
#1057 = LINE('',#1058,#1059);
#1058 = CARTESIAN_POINT('',(-6.5,13.,-7.692332268371));
#1059 = VECTOR('',#1060,1.);
#1060 = DIRECTION('',(0.,0.,1.));
#1061 = ORIENTED_EDGE('',*,*,#1062,.F.);
#1062 = EDGE_CURVE('',#454,#1055,#1063,.T.);
#1063 = LINE('',#1064,#1065);
#1064 = CARTESIAN_POINT('',(-6.5,7.45,-1.45));
#1065 = VECTOR('',#1066,1.);
#1066 = DIRECTION('',(0.,0.707106781187,0.707106781187));
#1067 = ORIENTED_EDGE('',*,*,#453,.F.);
#1068 = ORIENTED_EDGE('',*,*,#1007,.F.);
#1069 = ORIENTED_EDGE('',*,*,#825,.F.);
#1070 = FACE_BOUND('',#1071,.T.);
#1071 = EDGE_LOOP('',(#1072));
#1072 = ORIENTED_EDGE('',*,*,#1073,.F.);
#1073 = EDGE_CURVE('',#1074,#1074,#1076,.T.);
#1074 = VERTEX_POINT('',#1075);
#1075 = CARTESIAN_POINT('',(-6.5,8.2,-2.));
#1076 = CIRCLE('',#1077,1.7);
#1077 = AXIS2_PLACEMENT_3D('',#1078,#1079,#1080);
#1078 = CARTESIAN_POINT('',(-6.5,6.5,-2.));
#1079 = DIRECTION('',(1.,0.,0.));
#1080 = DIRECTION('',(0.,1.,0.));
#1081 = FACE_BOUND('',#1082,.T.);
#1082 = EDGE_LOOP('',(#1083));
#1083 = ORIENTED_EDGE('',*,*,#1084,.F.);
#1084 = EDGE_CURVE('',#1085,#1085,#1087,.T.);
#1085 = VERTEX_POINT('',#1086);
#1086 = CARTESIAN_POINT('',(-6.5,8.2,-12.));
#1087 = CIRCLE('',#1088,1.7);
#1088 = AXIS2_PLACEMENT_3D('',#1089,#1090,#1091);
#1089 = CARTESIAN_POINT('',(-6.5,6.5,-12.));
#1090 = DIRECTION('',(1.,0.,0.));
#1091 = DIRECTION('',(0.,1.,0.));
#1092 = PLANE('',#1093);
#1093 = AXIS2_PLACEMENT_3D('',#1094,#1095,#1096);
#1094 = CARTESIAN_POINT('',(-6.5,13.,-17.8));
#1095 = DIRECTION('',(1.,0.,0.));
#1096 = DIRECTION('',(0.,-1.,0.));
#1097 = ADVANCED_FACE('',(#1098),#1116,.T.);
#1098 = FACE_BOUND('',#1099,.T.);
#1099 = EDGE_LOOP('',(#1100,#1101,#1102,#1110));
#1100 = ORIENTED_EDGE('',*,*,#1022,.F.);
#1101 = ORIENTED_EDGE('',*,*,#516,.T.);
#1102 = ORIENTED_EDGE('',*,*,#1103,.F.);
#1103 = EDGE_CURVE('',#1104,#509,#1106,.T.);
#1104 = VERTEX_POINT('',#1105);
#1105 = CARTESIAN_POINT('',(10.5,20.7,4.1));
#1106 = LINE('',#1107,#1108);
#1107 = CARTESIAN_POINT('',(10.5,20.7,4.1));
#1108 = VECTOR('',#1109,1.);
#1109 = DIRECTION('',(0.707106781187,2.02E-15,-0.707106781187));
#1110 = ORIENTED_EDGE('',*,*,#1111,.F.);
#1111 = EDGE_CURVE('',#1023,#1104,#1112,.T.);
#1112 = LINE('',#1113,#1114);
#1113 = CARTESIAN_POINT('',(10.5,13.,4.1));
#1114 = VECTOR('',#1115,1.);
#1115 = DIRECTION('',(0.,1.,-2.2E-16));
#1116 = PLANE('',#1117);
#1117 = AXIS2_PLACEMENT_3D('',#1118,#1119,#1120);
#1118 = CARTESIAN_POINT('',(10.65,13.,3.95));
#1119 = DIRECTION('',(0.707106781187,0.,0.707106781187));
#1120 = DIRECTION('',(1.1E-16,1.,-1.1E-16));
#1121 = ADVANCED_FACE('',(#1122),#1140,.F.);
#1122 = FACE_BOUND('',#1123,.T.);
#1123 = EDGE_LOOP('',(#1124,#1132,#1133,#1134));
#1124 = ORIENTED_EDGE('',*,*,#1125,.F.);
#1125 = EDGE_CURVE('',#462,#1126,#1128,.T.);
#1126 = VERTEX_POINT('',#1127);
#1127 = CARTESIAN_POINT('',(-10.2,13.,4.1));
#1128 = LINE('',#1129,#1130);
#1129 = CARTESIAN_POINT('',(-10.2,12.925,4.025));
#1130 = VECTOR('',#1131,1.);
#1131 = DIRECTION('',(2.02E-15,0.707106781187,0.707106781187));
#1132 = ORIENTED_EDGE('',*,*,#461,.T.);
#1133 = ORIENTED_EDGE('',*,*,#1062,.T.);
#1134 = ORIENTED_EDGE('',*,*,#1135,.F.);
#1135 = EDGE_CURVE('',#1126,#1055,#1136,.T.);
#1136 = LINE('',#1137,#1138);
#1137 = CARTESIAN_POINT('',(-10.5,13.,4.1));
#1138 = VECTOR('',#1139,1.);
#1139 = DIRECTION('',(1.,0.,0.));
#1140 = PLANE('',#1141);
#1141 = AXIS2_PLACEMENT_3D('',#1142,#1143,#1144);
#1142 = CARTESIAN_POINT('',(-10.5,12.85,3.95));
#1143 = DIRECTION('',(0.,0.707106781187,-0.707106781187));
#1144 = DIRECTION('',(-1.,-0.,-0.));
#1145 = ADVANCED_FACE('',(#1146),#1162,.F.);
#1146 = FACE_BOUND('',#1147,.F.);
#1147 = EDGE_LOOP('',(#1148,#1154,#1155,#1161));
#1148 = ORIENTED_EDGE('',*,*,#1149,.F.);
#1149 = EDGE_CURVE('',#557,#509,#1150,.T.);
#1150 = LINE('',#1151,#1152);
#1151 = CARTESIAN_POINT('',(10.8,20.775,3.725));
#1152 = VECTOR('',#1153,1.);
#1153 = DIRECTION('',(-2.02E-15,-0.707106781187,0.707106781187));
#1154 = ORIENTED_EDGE('',*,*,#556,.T.);
#1155 = ORIENTED_EDGE('',*,*,#1156,.F.);
#1156 = EDGE_CURVE('',#501,#549,#1157,.T.);
#1157 = LINE('',#1158,#1159);
#1158 = CARTESIAN_POINT('',(13.2,20.775,3.725));
#1159 = VECTOR('',#1160,1.);
#1160 = DIRECTION('',(1.15E-15,0.707106781187,-0.707106781187));
#1161 = ORIENTED_EDGE('',*,*,#508,.F.);
#1162 = PLANE('',#1163);
#1163 = AXIS2_PLACEMENT_3D('',#1164,#1165,#1166);
#1164 = CARTESIAN_POINT('',(10.5,20.85,3.65));
#1165 = DIRECTION('',(0.,-0.707106781187,-0.707106781187));
#1166 = DIRECTION('',(1.,0.,0.));
#1167 = ADVANCED_FACE('',(#1168),#1186,.T.);
#1168 = FACE_BOUND('',#1169,.T.);
#1169 = EDGE_LOOP('',(#1170,#1178,#1179,#1180));
#1170 = ORIENTED_EDGE('',*,*,#1171,.F.);
#1171 = EDGE_CURVE('',#470,#1172,#1174,.T.);
#1172 = VERTEX_POINT('',#1173);
#1173 = CARTESIAN_POINT('',(-10.5,13.3,4.1));
#1174 = LINE('',#1175,#1176);
#1175 = CARTESIAN_POINT('',(-10.725,13.3,3.875));
#1176 = VECTOR('',#1177,1.);
#1177 = DIRECTION('',(0.707106781187,2.02E-15,0.707106781187));
#1178 = ORIENTED_EDGE('',*,*,#469,.T.);
#1179 = ORIENTED_EDGE('',*,*,#1125,.T.);
#1180 = ORIENTED_EDGE('',*,*,#1181,.F.);
#1181 = EDGE_CURVE('',#1172,#1126,#1182,.T.);
#1182 = LINE('',#1183,#1184);
#1183 = CARTESIAN_POINT('',(-10.5,13.3,4.1));
#1184 = VECTOR('',#1185,1.);
#1185 = DIRECTION('',(0.707106781187,-0.707106781187,0.));
#1186 = PLANE('',#1187);
#1187 = AXIS2_PLACEMENT_3D('',#1188,#1189,#1190);
#1188 = CARTESIAN_POINT('',(-10.8,13.3,3.8));
#1189 = DIRECTION('',(-0.57735026919,-0.57735026919,0.57735026919));
#1190 = DIRECTION('',(0.707106781187,-0.707106781187,0.));
#1191 = ADVANCED_FACE('',(#1192),#1215,.F.);
#1192 = FACE_BOUND('',#1193,.F.);
#1193 = EDGE_LOOP('',(#1194,#1200,#1201,#1209));
#1194 = ORIENTED_EDGE('',*,*,#1195,.F.);
#1195 = EDGE_CURVE('',#493,#724,#1196,.T.);
#1196 = LINE('',#1197,#1198);
#1197 = CARTESIAN_POINT('',(13.275,-6.7,3.725));
#1198 = VECTOR('',#1199,1.);
#1199 = DIRECTION('',(0.707106781187,0.,-0.707106781187));
#1200 = ORIENTED_EDGE('',*,*,#500,.T.);
#1201 = ORIENTED_EDGE('',*,*,#1202,.T.);
#1202 = EDGE_CURVE('',#501,#1203,#1205,.T.);
#1203 = VERTEX_POINT('',#1204);
#1204 = CARTESIAN_POINT('',(13.5,20.7,3.5));
#1205 = LINE('',#1206,#1207);
#1206 = CARTESIAN_POINT('',(13.275,20.7,3.725));
#1207 = VECTOR('',#1208,1.);
#1208 = DIRECTION('',(0.707106781187,-6.25E-15,-0.707106781187));
#1209 = ORIENTED_EDGE('',*,*,#1210,.F.);
#1210 = EDGE_CURVE('',#724,#1203,#1211,.T.);
#1211 = LINE('',#1212,#1213);
#1212 = CARTESIAN_POINT('',(13.5,-7.,3.5));
#1213 = VECTOR('',#1214,1.);
#1214 = DIRECTION('',(0.,1.,-2.2E-16));
#1215 = PLANE('',#1216);
#1216 = AXIS2_PLACEMENT_3D('',#1217,#1218,#1219);
#1217 = CARTESIAN_POINT('',(13.35,-7.,3.65));
#1218 = DIRECTION('',(-0.707106781187,0.,-0.707106781187));
#1219 = DIRECTION('',(1.1E-16,1.,-1.1E-16));
#1220 = ADVANCED_FACE('',(#1221),#1239,.T.);
#1221 = FACE_BOUND('',#1222,.F.);
#1222 = EDGE_LOOP('',(#1223,#1224,#1225,#1233));
#1223 = ORIENTED_EDGE('',*,*,#1171,.F.);
#1224 = ORIENTED_EDGE('',*,*,#477,.T.);
#1225 = ORIENTED_EDGE('',*,*,#1226,.T.);
#1226 = EDGE_CURVE('',#478,#1227,#1229,.T.);
#1227 = VERTEX_POINT('',#1228);
#1228 = CARTESIAN_POINT('',(-10.5,20.7,4.1));
#1229 = LINE('',#1230,#1231);
#1230 = CARTESIAN_POINT('',(-10.8,20.7,3.8));
#1231 = VECTOR('',#1232,1.);
#1232 = DIRECTION('',(0.707106781187,4.33E-15,0.707106781187));
#1233 = ORIENTED_EDGE('',*,*,#1234,.F.);
#1234 = EDGE_CURVE('',#1172,#1227,#1235,.T.);
#1235 = LINE('',#1236,#1237);
#1236 = CARTESIAN_POINT('',(-10.5,13.,4.1));
#1237 = VECTOR('',#1238,1.);
#1238 = DIRECTION('',(0.,1.,-2.2E-16));
#1239 = PLANE('',#1240);
#1240 = AXIS2_PLACEMENT_3D('',#1241,#1242,#1243);
#1241 = CARTESIAN_POINT('',(-10.65,13.,3.95));
#1242 = DIRECTION('',(-0.707106781187,0.,0.707106781187));
#1243 = DIRECTION('',(1.1E-16,-1.,1.1E-16));
#1244 = ADVANCED_FACE('',(#1245),#1266,.T.);
#1245 = FACE_BOUND('',#1246,.T.);
#1246 = EDGE_LOOP('',(#1247,#1253,#1254,#1260));
#1247 = ORIENTED_EDGE('',*,*,#1248,.F.);
#1248 = EDGE_CURVE('',#547,#781,#1249,.T.);
#1249 = LINE('',#1250,#1251);
#1250 = CARTESIAN_POINT('',(13.275,20.925,-17.5));
#1251 = VECTOR('',#1252,1.);
#1252 = DIRECTION('',(0.707106781187,-0.707106781187,8.46E-15));
#1253 = ORIENTED_EDGE('',*,*,#546,.T.);
#1254 = ORIENTED_EDGE('',*,*,#1255,.F.);
#1255 = EDGE_CURVE('',#1203,#549,#1256,.T.);
#1256 = LINE('',#1257,#1258);
#1257 = CARTESIAN_POINT('',(13.35,20.85,3.5));
#1258 = VECTOR('',#1259,1.);
#1259 = DIRECTION('',(-0.707106781187,0.707106781187,7.5E-15));
#1260 = ORIENTED_EDGE('',*,*,#1261,.F.);
#1261 = EDGE_CURVE('',#781,#1203,#1262,.T.);
#1262 = LINE('',#1263,#1264);
#1263 = CARTESIAN_POINT('',(13.5,20.7,-17.8));
#1264 = VECTOR('',#1265,1.);
#1265 = DIRECTION('',(0.,0.,1.));
#1266 = PLANE('',#1267);
#1267 = AXIS2_PLACEMENT_3D('',#1268,#1269,#1270);
#1268 = CARTESIAN_POINT('',(13.35,20.85,-17.8));
#1269 = DIRECTION('',(0.707106781187,0.707106781187,0.));
#1270 = DIRECTION('',(0.,-0.,1.));
#1271 = ADVANCED_FACE('',(#1272),#1283,.F.);
#1272 = FACE_BOUND('',#1273,.F.);
#1273 = EDGE_LOOP('',(#1274,#1280,#1281,#1282));
#1274 = ORIENTED_EDGE('',*,*,#1275,.F.);
#1275 = EDGE_CURVE('',#565,#1104,#1276,.T.);
#1276 = LINE('',#1277,#1278);
#1277 = CARTESIAN_POINT('',(10.275,20.925,4.1));
#1278 = VECTOR('',#1279,1.);
#1279 = DIRECTION('',(0.707106781187,-0.707106781187,0.));
#1280 = ORIENTED_EDGE('',*,*,#564,.T.);
#1281 = ORIENTED_EDGE('',*,*,#1149,.T.);
#1282 = ORIENTED_EDGE('',*,*,#1103,.F.);
#1283 = PLANE('',#1284);
#1284 = AXIS2_PLACEMENT_3D('',#1285,#1286,#1287);
#1285 = CARTESIAN_POINT('',(10.2,21.,4.1));
#1286 = DIRECTION('',(-0.57735026919,-0.57735026919,-0.57735026919));
#1287 = DIRECTION('',(0.707106781187,-8.326672684689E-17,-0.707106781187
    ));
#1288 = ADVANCED_FACE('',(#1289),#1307,.T.);
#1289 = FACE_BOUND('',#1290,.F.);
#1290 = EDGE_LOOP('',(#1291,#1292,#1293,#1301));
#1291 = ORIENTED_EDGE('',*,*,#572,.T.);
#1292 = ORIENTED_EDGE('',*,*,#1275,.T.);
#1293 = ORIENTED_EDGE('',*,*,#1294,.F.);
#1294 = EDGE_CURVE('',#1295,#1104,#1297,.T.);
#1295 = VERTEX_POINT('',#1296);
#1296 = CARTESIAN_POINT('',(10.5,20.7,17.5));
#1297 = LINE('',#1298,#1299);
#1298 = CARTESIAN_POINT('',(10.5,20.7,17.8));
#1299 = VECTOR('',#1300,1.);
#1300 = DIRECTION('',(0.,0.,-1.));
#1301 = ORIENTED_EDGE('',*,*,#1302,.T.);
#1302 = EDGE_CURVE('',#1295,#573,#1303,.T.);
#1303 = LINE('',#1304,#1305);
#1304 = CARTESIAN_POINT('',(10.35,20.85,17.5));
#1305 = VECTOR('',#1306,1.);
#1306 = DIRECTION('',(-0.707106781187,0.707106781187,4.04E-15));
#1307 = PLANE('',#1308);
#1308 = AXIS2_PLACEMENT_3D('',#1309,#1310,#1311);
#1309 = CARTESIAN_POINT('',(10.35,20.85,17.8));
#1310 = DIRECTION('',(0.707106781187,0.707106781187,0.));
#1311 = DIRECTION('',(-0.,-0.,1.));
#1312 = ADVANCED_FACE('',(#1313),#1324,.F.);
#1313 = FACE_BOUND('',#1314,.F.);
#1314 = EDGE_LOOP('',(#1315,#1316,#1317,#1323));
#1315 = ORIENTED_EDGE('',*,*,#906,.F.);
#1316 = ORIENTED_EDGE('',*,*,#596,.T.);
#1317 = ORIENTED_EDGE('',*,*,#1318,.T.);
#1318 = EDGE_CURVE('',#589,#1227,#1319,.T.);
#1319 = LINE('',#1320,#1321);
#1320 = CARTESIAN_POINT('',(-10.425,20.775,4.1));
#1321 = VECTOR('',#1322,1.);
#1322 = DIRECTION('',(-0.707106781187,-0.707106781187,-2.21E-15));
#1323 = ORIENTED_EDGE('',*,*,#1226,.F.);
#1324 = PLANE('',#1325);
#1325 = AXIS2_PLACEMENT_3D('',#1326,#1327,#1328);
#1326 = CARTESIAN_POINT('',(-10.8,21.,3.5));
#1327 = DIRECTION('',(0.57735026919,-0.57735026919,-0.57735026919));
#1328 = DIRECTION('',(0.707106781187,8.354428260304E-15,0.707106781187)
  );
#1329 = ADVANCED_FACE('',(#1330),#1355,.F.);
#1330 = FACE_BOUND('',#1331,.T.);
#1331 = EDGE_LOOP('',(#1332,#1340,#1341,#1349));
#1332 = ORIENTED_EDGE('',*,*,#1333,.T.);
#1333 = EDGE_CURVE('',#1334,#573,#1336,.T.);
#1334 = VERTEX_POINT('',#1335);
#1335 = CARTESIAN_POINT('',(10.2,20.7,17.8));
#1336 = LINE('',#1337,#1338);
#1337 = CARTESIAN_POINT('',(10.2,20.775,17.725));
#1338 = VECTOR('',#1339,1.);
#1339 = DIRECTION('',(4.04E-15,0.707106781187,-0.707106781187));
#1340 = ORIENTED_EDGE('',*,*,#580,.T.);
#1341 = ORIENTED_EDGE('',*,*,#1342,.T.);
#1342 = EDGE_CURVE('',#581,#1343,#1345,.T.);
#1343 = VERTEX_POINT('',#1344);
#1344 = CARTESIAN_POINT('',(-10.2,20.7,17.8));
#1345 = LINE('',#1346,#1347);
#1346 = CARTESIAN_POINT('',(-10.2,20.925,17.575));
#1347 = VECTOR('',#1348,1.);
#1348 = DIRECTION('',(8.27E-15,-0.707106781187,0.707106781187));
#1349 = ORIENTED_EDGE('',*,*,#1350,.F.);
#1350 = EDGE_CURVE('',#1334,#1343,#1351,.T.);
#1351 = LINE('',#1352,#1353);
#1352 = CARTESIAN_POINT('',(10.5,20.7,17.8));
#1353 = VECTOR('',#1354,1.);
#1354 = DIRECTION('',(-1.,0.,0.));
#1355 = PLANE('',#1356);
#1356 = AXIS2_PLACEMENT_3D('',#1357,#1358,#1359);
#1357 = CARTESIAN_POINT('',(10.5,20.85,17.65));
#1358 = DIRECTION('',(0.,-0.707106781187,-0.707106781187));
#1359 = DIRECTION('',(1.,0.,-0.));
#1360 = ADVANCED_FACE('',(#1361),#1379,.T.);
#1361 = FACE_BOUND('',#1362,.F.);
#1362 = EDGE_LOOP('',(#1363,#1364,#1365,#1373));
#1363 = ORIENTED_EDGE('',*,*,#1318,.F.);
#1364 = ORIENTED_EDGE('',*,*,#588,.T.);
#1365 = ORIENTED_EDGE('',*,*,#1366,.T.);
#1366 = EDGE_CURVE('',#581,#1367,#1369,.T.);
#1367 = VERTEX_POINT('',#1368);
#1368 = CARTESIAN_POINT('',(-10.5,20.7,17.5));
#1369 = LINE('',#1370,#1371);
#1370 = CARTESIAN_POINT('',(-10.275,20.925,17.5));
#1371 = VECTOR('',#1372,1.);
#1372 = DIRECTION('',(-0.707106781187,-0.707106781187,-8.27E-15));
#1373 = ORIENTED_EDGE('',*,*,#1374,.F.);
#1374 = EDGE_CURVE('',#1227,#1367,#1375,.T.);
#1375 = LINE('',#1376,#1377);
#1376 = CARTESIAN_POINT('',(-10.5,20.7,3.8));
#1377 = VECTOR('',#1378,1.);
#1378 = DIRECTION('',(0.,0.,1.));
#1379 = PLANE('',#1380);
#1380 = AXIS2_PLACEMENT_3D('',#1381,#1382,#1383);
#1381 = CARTESIAN_POINT('',(-10.35,20.85,3.8));
#1382 = DIRECTION('',(-0.707106781187,0.707106781187,0.));
#1383 = DIRECTION('',(-0.,-0.,-1.));
#1384 = ADVANCED_FACE('',(#1385),#1404,.F.);
#1385 = FACE_BOUND('',#1386,.T.);
#1386 = EDGE_LOOP('',(#1387,#1395,#1396,#1397));
#1387 = ORIENTED_EDGE('',*,*,#1388,.F.);
#1388 = EDGE_CURVE('',#620,#1389,#1391,.T.);
#1389 = VERTEX_POINT('',#1390);
#1390 = CARTESIAN_POINT('',(2.35,20.7,10.8));
#1391 = LINE('',#1392,#1393);
#1392 = CARTESIAN_POINT('',(2.35,20.7,10.8));
#1393 = VECTOR('',#1394,1.);
#1394 = DIRECTION('',(0.707106781187,-0.707106781187,0.));
#1395 = ORIENTED_EDGE('',*,*,#619,.T.);
#1396 = ORIENTED_EDGE('',*,*,#1388,.T.);
#1397 = ORIENTED_EDGE('',*,*,#1398,.F.);
#1398 = EDGE_CURVE('',#1389,#1389,#1399,.T.);
#1399 = CIRCLE('',#1400,3.65);
#1400 = AXIS2_PLACEMENT_3D('',#1401,#1402,#1403);
#1401 = CARTESIAN_POINT('',(6.,20.7,10.8));
#1402 = DIRECTION('',(0.,1.,-0.));
#1403 = DIRECTION('',(-1.,0.,0.));
#1404 = CONICAL_SURFACE('',#1405,3.65,0.785398163397);
#1405 = AXIS2_PLACEMENT_3D('',#1406,#1407,#1408);
#1406 = CARTESIAN_POINT('',(6.,20.7,10.8));
#1407 = DIRECTION('',(-0.,1.,-0.));
#1408 = DIRECTION('',(-1.,0.,0.));
#1409 = ADVANCED_FACE('',(#1410),#1429,.F.);
#1410 = FACE_BOUND('',#1411,.T.);
#1411 = EDGE_LOOP('',(#1412,#1420,#1421,#1422));
#1412 = ORIENTED_EDGE('',*,*,#1413,.F.);
#1413 = EDGE_CURVE('',#631,#1414,#1416,.T.);
#1414 = VERTEX_POINT('',#1415);
#1415 = CARTESIAN_POINT('',(-9.65,20.7,10.8));
#1416 = LINE('',#1417,#1418);
#1417 = CARTESIAN_POINT('',(-9.65,20.7,10.8));
#1418 = VECTOR('',#1419,1.);
#1419 = DIRECTION('',(0.707106781187,-0.707106781187,0.));
#1420 = ORIENTED_EDGE('',*,*,#630,.T.);
#1421 = ORIENTED_EDGE('',*,*,#1413,.T.);
#1422 = ORIENTED_EDGE('',*,*,#1423,.F.);
#1423 = EDGE_CURVE('',#1414,#1414,#1424,.T.);
#1424 = CIRCLE('',#1425,3.65);
#1425 = AXIS2_PLACEMENT_3D('',#1426,#1427,#1428);
#1426 = CARTESIAN_POINT('',(-6.,20.7,10.8));
#1427 = DIRECTION('',(0.,1.,-0.));
#1428 = DIRECTION('',(-1.,0.,0.));
#1429 = CONICAL_SURFACE('',#1430,3.65,0.785398163397);
#1430 = AXIS2_PLACEMENT_3D('',#1431,#1432,#1433);
#1431 = CARTESIAN_POINT('',(-6.,20.7,10.8));
#1432 = DIRECTION('',(-0.,1.,-0.));
#1433 = DIRECTION('',(-1.,0.,0.));
#1434 = ADVANCED_FACE('',(#1435,#1438),#1449,.F.);
#1435 = FACE_BOUND('',#1436,.F.);
#1436 = EDGE_LOOP('',(#1437));
#1437 = ORIENTED_EDGE('',*,*,#655,.F.);
#1438 = FACE_BOUND('',#1439,.F.);
#1439 = EDGE_LOOP('',(#1440));
#1440 = ORIENTED_EDGE('',*,*,#1441,.F.);
#1441 = EDGE_CURVE('',#1442,#1442,#1444,.T.);
#1442 = VERTEX_POINT('',#1443);
#1443 = CARTESIAN_POINT('',(-9.5,8.2,-2.));
#1444 = CIRCLE('',#1445,1.7);
#1445 = AXIS2_PLACEMENT_3D('',#1446,#1447,#1448);
#1446 = CARTESIAN_POINT('',(-9.5,6.5,-2.));
#1447 = DIRECTION('',(1.,0.,0.));
#1448 = DIRECTION('',(0.,1.,0.));
#1449 = PLANE('',#1450);
#1450 = AXIS2_PLACEMENT_3D('',#1451,#1452,#1453);
#1451 = CARTESIAN_POINT('',(-9.5,6.5,-7.));
#1452 = DIRECTION('',(1.,0.,0.));
#1453 = DIRECTION('',(0.,0.,1.));
#1454 = ADVANCED_FACE('',(#1455,#1458),#1469,.F.);
#1455 = FACE_BOUND('',#1456,.F.);
#1456 = EDGE_LOOP('',(#1457));
#1457 = ORIENTED_EDGE('',*,*,#680,.F.);
#1458 = FACE_BOUND('',#1459,.F.);
#1459 = EDGE_LOOP('',(#1460));
#1460 = ORIENTED_EDGE('',*,*,#1461,.F.);
#1461 = EDGE_CURVE('',#1462,#1462,#1464,.T.);
#1462 = VERTEX_POINT('',#1463);
#1463 = CARTESIAN_POINT('',(-9.5,8.2,-12.));
#1464 = CIRCLE('',#1465,1.7);
#1465 = AXIS2_PLACEMENT_3D('',#1466,#1467,#1468);
#1466 = CARTESIAN_POINT('',(-9.5,6.5,-12.));
#1467 = DIRECTION('',(1.,0.,0.));
#1468 = DIRECTION('',(0.,1.,0.));
#1469 = PLANE('',#1470);
#1470 = AXIS2_PLACEMENT_3D('',#1471,#1472,#1473);
#1471 = CARTESIAN_POINT('',(-9.5,6.5,-7.));
#1472 = DIRECTION('',(1.,0.,0.));
#1473 = DIRECTION('',(0.,0.,1.));
#1474 = ADVANCED_FACE('',(#1475),#1480,.T.);
#1475 = FACE_BOUND('',#1476,.T.);
#1476 = EDGE_LOOP('',(#1477,#1478,#1479));
#1477 = ORIENTED_EDGE('',*,*,#714,.F.);
#1478 = ORIENTED_EDGE('',*,*,#698,.T.);
#1479 = ORIENTED_EDGE('',*,*,#794,.F.);
#1480 = PLANE('',#1481);
#1481 = AXIS2_PLACEMENT_3D('',#1482,#1483,#1484);
#1482 = CARTESIAN_POINT('',(13.2,-7.,-17.5));
#1483 = DIRECTION('',(0.57735026919,-0.57735026919,-0.57735026919));
#1484 = DIRECTION('',(-0.707106781187,4.246603069191E-15,-0.707106781187
    ));
#1485 = ADVANCED_FACE('',(#1486,#1492,#1503),#1514,.F.);
#1486 = FACE_BOUND('',#1487,.F.);
#1487 = EDGE_LOOP('',(#1488,#1489,#1490,#1491));
#1488 = ORIENTED_EDGE('',*,*,#788,.F.);
#1489 = ORIENTED_EDGE('',*,*,#731,.T.);
#1490 = ORIENTED_EDGE('',*,*,#1210,.T.);
#1491 = ORIENTED_EDGE('',*,*,#1261,.F.);
#1492 = FACE_BOUND('',#1493,.F.);
#1493 = EDGE_LOOP('',(#1494));
#1494 = ORIENTED_EDGE('',*,*,#1495,.T.);
#1495 = EDGE_CURVE('',#1496,#1496,#1498,.T.);
#1496 = VERTEX_POINT('',#1497);
#1497 = CARTESIAN_POINT('',(13.5,10.3,-2.));
#1498 = CIRCLE('',#1499,3.8);
#1499 = AXIS2_PLACEMENT_3D('',#1500,#1501,#1502);
#1500 = CARTESIAN_POINT('',(13.5,6.5,-2.));
#1501 = DIRECTION('',(1.,0.,0.));
#1502 = DIRECTION('',(-0.,1.,0.));
#1503 = FACE_BOUND('',#1504,.F.);
#1504 = EDGE_LOOP('',(#1505));
#1505 = ORIENTED_EDGE('',*,*,#1506,.T.);
#1506 = EDGE_CURVE('',#1507,#1507,#1509,.T.);
#1507 = VERTEX_POINT('',#1508);
#1508 = CARTESIAN_POINT('',(13.5,10.3,-12.));
#1509 = CIRCLE('',#1510,3.8);
#1510 = AXIS2_PLACEMENT_3D('',#1511,#1512,#1513);
#1511 = CARTESIAN_POINT('',(13.5,6.5,-12.));
#1512 = DIRECTION('',(1.,0.,0.));
#1513 = DIRECTION('',(-0.,1.,0.));
#1514 = PLANE('',#1515);
#1515 = AXIS2_PLACEMENT_3D('',#1516,#1517,#1518);
#1516 = CARTESIAN_POINT('',(13.5,-7.,-17.8));
#1517 = DIRECTION('',(-1.,0.,0.));
#1518 = DIRECTION('',(0.,1.,0.));
#1519 = ADVANCED_FACE('',(#1520),#1525,.T.);
#1520 = FACE_BOUND('',#1521,.T.);
#1521 = EDGE_LOOP('',(#1522,#1523,#1524));
#1522 = ORIENTED_EDGE('',*,*,#1195,.F.);
#1523 = ORIENTED_EDGE('',*,*,#746,.T.);
#1524 = ORIENTED_EDGE('',*,*,#723,.F.);
#1525 = PLANE('',#1526);
#1526 = AXIS2_PLACEMENT_3D('',#1527,#1528,#1529);
#1527 = CARTESIAN_POINT('',(13.2,-6.7,3.8));
#1528 = DIRECTION('',(0.57735026919,-0.57735026919,0.57735026919));
#1529 = DIRECTION('',(-0.707106781187,-0.707106781187,0.));
#1530 = ADVANCED_FACE('',(#1531),#1536,.F.);
#1531 = FACE_BOUND('',#1532,.F.);
#1532 = EDGE_LOOP('',(#1533,#1534,#1535));
#1533 = ORIENTED_EDGE('',*,*,#1248,.F.);
#1534 = ORIENTED_EDGE('',*,*,#762,.T.);
#1535 = ORIENTED_EDGE('',*,*,#780,.F.);
#1536 = PLANE('',#1537);
#1537 = AXIS2_PLACEMENT_3D('',#1538,#1539,#1540);
#1538 = CARTESIAN_POINT('',(13.2,21.,-17.5));
#1539 = DIRECTION('',(-0.57735026919,-0.57735026919,0.57735026919));
#1540 = DIRECTION('',(-0.707106781187,0.,-0.707106781187));
#1541 = ADVANCED_FACE('',(#1542,#1573,#1584),#1595,.T.);
#1542 = FACE_BOUND('',#1543,.T.);
#1543 = EDGE_LOOP('',(#1544,#1545,#1546,#1547,#1555,#1563,#1569,#1570,
    #1571,#1572));
#1544 = ORIENTED_EDGE('',*,*,#944,.T.);
#1545 = ORIENTED_EDGE('',*,*,#936,.T.);
#1546 = ORIENTED_EDGE('',*,*,#991,.T.);
#1547 = ORIENTED_EDGE('',*,*,#1548,.F.);
#1548 = EDGE_CURVE('',#1549,#984,#1551,.T.);
#1549 = VERTEX_POINT('',#1550);
#1550 = CARTESIAN_POINT('',(10.2,13.,17.5));
#1551 = LINE('',#1552,#1553);
#1552 = CARTESIAN_POINT('',(10.2,13.,17.8));
#1553 = VECTOR('',#1554,1.);
#1554 = DIRECTION('',(0.,-2.2E-16,-1.));
#1555 = ORIENTED_EDGE('',*,*,#1556,.F.);
#1556 = EDGE_CURVE('',#1557,#1549,#1559,.T.);
#1557 = VERTEX_POINT('',#1558);
#1558 = CARTESIAN_POINT('',(-10.2,13.,17.5));
#1559 = LINE('',#1560,#1561);
#1560 = CARTESIAN_POINT('',(-10.5,13.,17.5));
#1561 = VECTOR('',#1562,1.);
#1562 = DIRECTION('',(1.,0.,0.));
#1563 = ORIENTED_EDGE('',*,*,#1564,.F.);
#1564 = EDGE_CURVE('',#1126,#1557,#1565,.T.);
#1565 = LINE('',#1566,#1567);
#1566 = CARTESIAN_POINT('',(-10.2,13.,3.8));
#1567 = VECTOR('',#1568,1.);
#1568 = DIRECTION('',(0.,2.2E-16,1.));
#1569 = ORIENTED_EDGE('',*,*,#1135,.T.);
#1570 = ORIENTED_EDGE('',*,*,#1054,.F.);
#1571 = ORIENTED_EDGE('',*,*,#1046,.F.);
#1572 = ORIENTED_EDGE('',*,*,#849,.F.);
#1573 = FACE_BOUND('',#1574,.T.);
#1574 = EDGE_LOOP('',(#1575));
#1575 = ORIENTED_EDGE('',*,*,#1576,.F.);
#1576 = EDGE_CURVE('',#1577,#1577,#1579,.T.);
#1577 = VERTEX_POINT('',#1578);
#1578 = CARTESIAN_POINT('',(-4.35,13.,10.8));
#1579 = CIRCLE('',#1580,1.65);
#1580 = AXIS2_PLACEMENT_3D('',#1581,#1582,#1583);
#1581 = CARTESIAN_POINT('',(-6.,13.,10.8));
#1582 = DIRECTION('',(0.,-1.,0.));
#1583 = DIRECTION('',(1.,0.,0.));
#1584 = FACE_BOUND('',#1585,.T.);
#1585 = EDGE_LOOP('',(#1586));
#1586 = ORIENTED_EDGE('',*,*,#1587,.F.);
#1587 = EDGE_CURVE('',#1588,#1588,#1590,.T.);
#1588 = VERTEX_POINT('',#1589);
#1589 = CARTESIAN_POINT('',(7.65,13.,10.8));
#1590 = CIRCLE('',#1591,1.65);
#1591 = AXIS2_PLACEMENT_3D('',#1592,#1593,#1594);
#1592 = CARTESIAN_POINT('',(6.,13.,10.8));
#1593 = DIRECTION('',(0.,-1.,0.));
#1594 = DIRECTION('',(1.,0.,0.));
#1595 = PLANE('',#1596);
#1596 = AXIS2_PLACEMENT_3D('',#1597,#1598,#1599);
#1597 = CARTESIAN_POINT('',(0.,13.,2.415335463259));
#1598 = DIRECTION('',(-0.,-1.,-0.));
#1599 = DIRECTION('',(0.,0.,-1.));
#1600 = ADVANCED_FACE('',(#1601),#1620,.F.);
#1601 = FACE_BOUND('',#1602,.F.);
#1602 = EDGE_LOOP('',(#1603,#1612,#1618,#1619));
#1603 = ORIENTED_EDGE('',*,*,#1604,.F.);
#1604 = EDGE_CURVE('',#1605,#1605,#1607,.T.);
#1605 = VERTEX_POINT('',#1606);
#1606 = CARTESIAN_POINT('',(9.5,8.2,-2.));
#1607 = CIRCLE('',#1608,1.7);
#1608 = AXIS2_PLACEMENT_3D('',#1609,#1610,#1611);
#1609 = CARTESIAN_POINT('',(9.5,6.5,-2.));
#1610 = DIRECTION('',(1.,0.,0.));
#1611 = DIRECTION('',(0.,1.,0.));
#1612 = ORIENTED_EDGE('',*,*,#1613,.T.);
#1613 = EDGE_CURVE('',#1605,#954,#1614,.T.);
#1614 = LINE('',#1615,#1616);
#1615 = CARTESIAN_POINT('',(46.756410280829,8.2,-2.));
#1616 = VECTOR('',#1617,1.);
#1617 = DIRECTION('',(-1.,-0.,-0.));
#1618 = ORIENTED_EDGE('',*,*,#953,.T.);
#1619 = ORIENTED_EDGE('',*,*,#1613,.F.);
#1620 = CYLINDRICAL_SURFACE('',#1621,1.7);
#1621 = AXIS2_PLACEMENT_3D('',#1622,#1623,#1624);
#1622 = CARTESIAN_POINT('',(46.756410280829,6.5,-2.));
#1623 = DIRECTION('',(1.,0.,0.));
#1624 = DIRECTION('',(0.,1.,0.));
#1625 = ADVANCED_FACE('',(#1626),#1645,.F.);
#1626 = FACE_BOUND('',#1627,.F.);
#1627 = EDGE_LOOP('',(#1628,#1637,#1643,#1644));
#1628 = ORIENTED_EDGE('',*,*,#1629,.F.);
#1629 = EDGE_CURVE('',#1630,#1630,#1632,.T.);
#1630 = VERTEX_POINT('',#1631);
#1631 = CARTESIAN_POINT('',(9.5,8.2,-12.));
#1632 = CIRCLE('',#1633,1.7);
#1633 = AXIS2_PLACEMENT_3D('',#1634,#1635,#1636);
#1634 = CARTESIAN_POINT('',(9.5,6.5,-12.));
#1635 = DIRECTION('',(1.,0.,0.));
#1636 = DIRECTION('',(0.,1.,0.));
#1637 = ORIENTED_EDGE('',*,*,#1638,.T.);
#1638 = EDGE_CURVE('',#1630,#965,#1639,.T.);
#1639 = LINE('',#1640,#1641);
#1640 = CARTESIAN_POINT('',(46.756410280829,8.2,-12.));
#1641 = VECTOR('',#1642,1.);
#1642 = DIRECTION('',(-1.,-0.,-0.));
#1643 = ORIENTED_EDGE('',*,*,#964,.T.);
#1644 = ORIENTED_EDGE('',*,*,#1638,.F.);
#1645 = CYLINDRICAL_SURFACE('',#1646,1.7);
#1646 = AXIS2_PLACEMENT_3D('',#1647,#1648,#1649);
#1647 = CARTESIAN_POINT('',(46.756410280829,6.5,-12.));
#1648 = DIRECTION('',(1.,0.,0.));
#1649 = DIRECTION('',(0.,1.,0.));
#1650 = ADVANCED_FACE('',(#1651),#1669,.F.);
#1651 = FACE_BOUND('',#1652,.T.);
#1652 = EDGE_LOOP('',(#1653,#1654,#1655,#1663));
#1653 = ORIENTED_EDGE('',*,*,#1548,.T.);
#1654 = ORIENTED_EDGE('',*,*,#1032,.F.);
#1655 = ORIENTED_EDGE('',*,*,#1656,.F.);
#1656 = EDGE_CURVE('',#1657,#1023,#1659,.T.);
#1657 = VERTEX_POINT('',#1658);
#1658 = CARTESIAN_POINT('',(10.5,13.3,17.5));
#1659 = LINE('',#1660,#1661);
#1660 = CARTESIAN_POINT('',(10.5,13.3,17.8));
#1661 = VECTOR('',#1662,1.);
#1662 = DIRECTION('',(0.,-2.2E-16,-1.));
#1663 = ORIENTED_EDGE('',*,*,#1664,.T.);
#1664 = EDGE_CURVE('',#1657,#1549,#1665,.T.);
#1665 = LINE('',#1666,#1667);
#1666 = CARTESIAN_POINT('',(10.35,13.15,17.5));
#1667 = VECTOR('',#1668,1.);
#1668 = DIRECTION('',(-0.707106781187,-0.707106781187,-4.04E-15));
#1669 = PLANE('',#1670);
#1670 = AXIS2_PLACEMENT_3D('',#1671,#1672,#1673);
#1671 = CARTESIAN_POINT('',(10.35,13.15,17.8));
#1672 = DIRECTION('',(-0.707106781187,0.707106781187,0.));
#1673 = DIRECTION('',(1.1E-16,1.1E-16,1.));
#1674 = ADVANCED_FACE('',(#1675),#1686,.F.);
#1675 = FACE_BOUND('',#1676,.F.);
#1676 = EDGE_LOOP('',(#1677,#1683,#1684,#1685));
#1677 = ORIENTED_EDGE('',*,*,#1678,.F.);
#1678 = EDGE_CURVE('',#1074,#1442,#1679,.T.);
#1679 = LINE('',#1680,#1681);
#1680 = CARTESIAN_POINT('',(46.756410280829,8.2,-2.));
#1681 = VECTOR('',#1682,1.);
#1682 = DIRECTION('',(-1.,-0.,-0.));
#1683 = ORIENTED_EDGE('',*,*,#1073,.F.);
#1684 = ORIENTED_EDGE('',*,*,#1678,.T.);
#1685 = ORIENTED_EDGE('',*,*,#1441,.T.);
#1686 = CYLINDRICAL_SURFACE('',#1687,1.7);
#1687 = AXIS2_PLACEMENT_3D('',#1688,#1689,#1690);
#1688 = CARTESIAN_POINT('',(46.756410280829,6.5,-2.));
#1689 = DIRECTION('',(1.,0.,0.));
#1690 = DIRECTION('',(0.,1.,0.));
#1691 = ADVANCED_FACE('',(#1692),#1703,.F.);
#1692 = FACE_BOUND('',#1693,.F.);
#1693 = EDGE_LOOP('',(#1694,#1700,#1701,#1702));
#1694 = ORIENTED_EDGE('',*,*,#1695,.F.);
#1695 = EDGE_CURVE('',#1085,#1462,#1696,.T.);
#1696 = LINE('',#1697,#1698);
#1697 = CARTESIAN_POINT('',(46.756410280829,8.2,-12.));
#1698 = VECTOR('',#1699,1.);
#1699 = DIRECTION('',(-1.,-0.,-0.));
#1700 = ORIENTED_EDGE('',*,*,#1084,.F.);
#1701 = ORIENTED_EDGE('',*,*,#1695,.T.);
#1702 = ORIENTED_EDGE('',*,*,#1461,.T.);
#1703 = CYLINDRICAL_SURFACE('',#1704,1.7);
#1704 = AXIS2_PLACEMENT_3D('',#1705,#1706,#1707);
#1705 = CARTESIAN_POINT('',(46.756410280829,6.5,-12.));
#1706 = DIRECTION('',(1.,0.,0.));
#1707 = DIRECTION('',(0.,1.,0.));
#1708 = ADVANCED_FACE('',(#1709),#1720,.F.);
#1709 = FACE_BOUND('',#1710,.F.);
#1710 = EDGE_LOOP('',(#1711,#1712,#1718,#1719));
#1711 = ORIENTED_EDGE('',*,*,#1656,.F.);
#1712 = ORIENTED_EDGE('',*,*,#1713,.T.);
#1713 = EDGE_CURVE('',#1657,#1295,#1714,.T.);
#1714 = LINE('',#1715,#1716);
#1715 = CARTESIAN_POINT('',(10.5,13.,17.5));
#1716 = VECTOR('',#1717,1.);
#1717 = DIRECTION('',(0.,1.,-2.2E-16));
#1718 = ORIENTED_EDGE('',*,*,#1294,.T.);
#1719 = ORIENTED_EDGE('',*,*,#1111,.F.);
#1720 = PLANE('',#1721);
#1721 = AXIS2_PLACEMENT_3D('',#1722,#1723,#1724);
#1722 = CARTESIAN_POINT('',(10.5,13.,17.8));
#1723 = DIRECTION('',(-1.,0.,0.));
#1724 = DIRECTION('',(-0.,-2.2E-16,-1.));
#1725 = ADVANCED_FACE('',(#1726),#1731,.F.);
#1726 = FACE_BOUND('',#1727,.F.);
#1727 = EDGE_LOOP('',(#1728,#1729,#1730));
#1728 = ORIENTED_EDGE('',*,*,#1202,.F.);
#1729 = ORIENTED_EDGE('',*,*,#1156,.T.);
#1730 = ORIENTED_EDGE('',*,*,#1255,.F.);
#1731 = PLANE('',#1732);
#1732 = AXIS2_PLACEMENT_3D('',#1733,#1734,#1735);
#1733 = CARTESIAN_POINT('',(13.2,20.7,3.8));
#1734 = DIRECTION('',(-0.57735026919,-0.57735026919,-0.57735026919));
#1735 = DIRECTION('',(-0.707106781187,0.707106781187,7.382983113757E-15)
  );
#1736 = ADVANCED_FACE('',(#1737),#1755,.F.);
#1737 = FACE_BOUND('',#1738,.T.);
#1738 = EDGE_LOOP('',(#1739,#1740,#1748,#1754));
#1739 = ORIENTED_EDGE('',*,*,#1564,.T.);
#1740 = ORIENTED_EDGE('',*,*,#1741,.F.);
#1741 = EDGE_CURVE('',#1742,#1557,#1744,.T.);
#1742 = VERTEX_POINT('',#1743);
#1743 = CARTESIAN_POINT('',(-10.5,13.3,17.5));
#1744 = LINE('',#1745,#1746);
#1745 = CARTESIAN_POINT('',(-10.35,13.15,17.5));
#1746 = VECTOR('',#1747,1.);
#1747 = DIRECTION('',(0.707106781187,-0.707106781187,1.E-16));
#1748 = ORIENTED_EDGE('',*,*,#1749,.F.);
#1749 = EDGE_CURVE('',#1172,#1742,#1750,.T.);
#1750 = LINE('',#1751,#1752);
#1751 = CARTESIAN_POINT('',(-10.5,13.3,3.8));
#1752 = VECTOR('',#1753,1.);
#1753 = DIRECTION('',(0.,2.2E-16,1.));
#1754 = ORIENTED_EDGE('',*,*,#1181,.T.);
#1755 = PLANE('',#1756);
#1756 = AXIS2_PLACEMENT_3D('',#1757,#1758,#1759);
#1757 = CARTESIAN_POINT('',(-10.35,13.15,3.8));
#1758 = DIRECTION('',(0.707106781187,0.707106781187,0.));
#1759 = DIRECTION('',(1.1E-16,-1.1E-16,-1.));
#1760 = ADVANCED_FACE('',(#1761),#1772,.F.);
#1761 = FACE_BOUND('',#1762,.F.);
#1762 = EDGE_LOOP('',(#1763,#1764,#1765,#1766));
#1763 = ORIENTED_EDGE('',*,*,#1749,.F.);
#1764 = ORIENTED_EDGE('',*,*,#1234,.T.);
#1765 = ORIENTED_EDGE('',*,*,#1374,.T.);
#1766 = ORIENTED_EDGE('',*,*,#1767,.F.);
#1767 = EDGE_CURVE('',#1742,#1367,#1768,.T.);
#1768 = LINE('',#1769,#1770);
#1769 = CARTESIAN_POINT('',(-10.5,13.,17.5));
#1770 = VECTOR('',#1771,1.);
#1771 = DIRECTION('',(0.,1.,-2.2E-16));
#1772 = PLANE('',#1773);
#1773 = AXIS2_PLACEMENT_3D('',#1774,#1775,#1776);
#1774 = CARTESIAN_POINT('',(-10.5,13.,3.8));
#1775 = DIRECTION('',(1.,0.,0.));
#1776 = DIRECTION('',(0.,2.2E-16,1.));
#1777 = ADVANCED_FACE('',(#1778),#1788,.F.);
#1778 = FACE_BOUND('',#1779,.F.);
#1779 = EDGE_LOOP('',(#1780,#1786,#1787));
#1780 = ORIENTED_EDGE('',*,*,#1781,.F.);
#1781 = EDGE_CURVE('',#1334,#1295,#1782,.T.);
#1782 = LINE('',#1783,#1784);
#1783 = CARTESIAN_POINT('',(10.275,20.7,17.725));
#1784 = VECTOR('',#1785,1.);
#1785 = DIRECTION('',(0.707106781187,0.,-0.707106781187));
#1786 = ORIENTED_EDGE('',*,*,#1333,.T.);
#1787 = ORIENTED_EDGE('',*,*,#1302,.F.);
#1788 = PLANE('',#1789);
#1789 = AXIS2_PLACEMENT_3D('',#1790,#1791,#1792);
#1790 = CARTESIAN_POINT('',(10.2,20.7,17.8));
#1791 = DIRECTION('',(-0.57735026919,-0.57735026919,-0.57735026919));
#1792 = DIRECTION('',(-0.707106781187,0.707106781187,-5.551115123126E-17
    ));
#1793 = ADVANCED_FACE('',(#1794),#1819,.T.);
#1794 = FACE_BOUND('',#1795,.T.);
#1795 = EDGE_LOOP('',(#1796,#1804,#1812,#1818));
#1796 = ORIENTED_EDGE('',*,*,#1797,.F.);
#1797 = EDGE_CURVE('',#1798,#1343,#1800,.T.);
#1798 = VERTEX_POINT('',#1799);
#1799 = CARTESIAN_POINT('',(-10.2,13.3,17.8));
#1800 = LINE('',#1801,#1802);
#1801 = CARTESIAN_POINT('',(-10.2,13.,17.8));
#1802 = VECTOR('',#1803,1.);
#1803 = DIRECTION('',(0.,1.,-2.2E-16));
#1804 = ORIENTED_EDGE('',*,*,#1805,.T.);
#1805 = EDGE_CURVE('',#1798,#1806,#1808,.T.);
#1806 = VERTEX_POINT('',#1807);
#1807 = CARTESIAN_POINT('',(10.2,13.3,17.8));
#1808 = LINE('',#1809,#1810);
#1809 = CARTESIAN_POINT('',(-10.5,13.3,17.8));
#1810 = VECTOR('',#1811,1.);
#1811 = DIRECTION('',(1.,0.,0.));
#1812 = ORIENTED_EDGE('',*,*,#1813,.T.);
#1813 = EDGE_CURVE('',#1806,#1334,#1814,.T.);
#1814 = LINE('',#1815,#1816);
#1815 = CARTESIAN_POINT('',(10.2,13.,17.8));
#1816 = VECTOR('',#1817,1.);
#1817 = DIRECTION('',(0.,1.,-2.2E-16));
#1818 = ORIENTED_EDGE('',*,*,#1350,.T.);
#1819 = PLANE('',#1820);
#1820 = AXIS2_PLACEMENT_3D('',#1821,#1822,#1823);
#1821 = CARTESIAN_POINT('',(0.,6.83950617284,17.8));
#1822 = DIRECTION('',(0.,0.,1.));
#1823 = DIRECTION('',(1.,0.,0.));
#1824 = ADVANCED_FACE('',(#1825),#1835,.F.);
#1825 = FACE_BOUND('',#1826,.F.);
#1826 = EDGE_LOOP('',(#1827,#1828,#1829));
#1827 = ORIENTED_EDGE('',*,*,#1366,.F.);
#1828 = ORIENTED_EDGE('',*,*,#1342,.T.);
#1829 = ORIENTED_EDGE('',*,*,#1830,.F.);
#1830 = EDGE_CURVE('',#1367,#1343,#1831,.T.);
#1831 = LINE('',#1832,#1833);
#1832 = CARTESIAN_POINT('',(-10.35,20.7,17.65));
#1833 = VECTOR('',#1834,1.);
#1834 = DIRECTION('',(0.707106781187,0.,0.707106781187));
#1835 = PLANE('',#1836);
#1836 = AXIS2_PLACEMENT_3D('',#1837,#1838,#1839);
#1837 = CARTESIAN_POINT('',(-10.2,21.,17.5));
#1838 = DIRECTION('',(0.57735026919,-0.57735026919,-0.57735026919));
#1839 = DIRECTION('',(0.707106781187,0.,0.707106781187));
#1840 = ADVANCED_FACE('',(#1841),#1860,.F.);
#1841 = FACE_BOUND('',#1842,.F.);
#1842 = EDGE_LOOP('',(#1843,#1851,#1858,#1859));
#1843 = ORIENTED_EDGE('',*,*,#1844,.T.);
#1844 = EDGE_CURVE('',#1389,#1845,#1847,.T.);
#1845 = VERTEX_POINT('',#1846);
#1846 = CARTESIAN_POINT('',(2.35,18.,10.8));
#1847 = LINE('',#1848,#1849);
#1848 = CARTESIAN_POINT('',(2.35,21.,10.8));
#1849 = VECTOR('',#1850,1.);
#1850 = DIRECTION('',(0.,-1.,2.2E-16));
#1851 = ORIENTED_EDGE('',*,*,#1852,.T.);
#1852 = EDGE_CURVE('',#1845,#1845,#1853,.T.);
#1853 = CIRCLE('',#1854,3.65);
#1854 = AXIS2_PLACEMENT_3D('',#1855,#1856,#1857);
#1855 = CARTESIAN_POINT('',(6.,18.,10.8));
#1856 = DIRECTION('',(0.,1.,-0.));
#1857 = DIRECTION('',(-1.,0.,0.));
#1858 = ORIENTED_EDGE('',*,*,#1844,.F.);
#1859 = ORIENTED_EDGE('',*,*,#1398,.F.);
#1860 = CYLINDRICAL_SURFACE('',#1861,3.65);
#1861 = AXIS2_PLACEMENT_3D('',#1862,#1863,#1864);
#1862 = CARTESIAN_POINT('',(6.,21.,10.8));
#1863 = DIRECTION('',(0.,1.,-2.2E-16));
#1864 = DIRECTION('',(-1.,0.,0.));
#1865 = ADVANCED_FACE('',(#1866),#1885,.F.);
#1866 = FACE_BOUND('',#1867,.F.);
#1867 = EDGE_LOOP('',(#1868,#1876,#1883,#1884));
#1868 = ORIENTED_EDGE('',*,*,#1869,.T.);
#1869 = EDGE_CURVE('',#1414,#1870,#1872,.T.);
#1870 = VERTEX_POINT('',#1871);
#1871 = CARTESIAN_POINT('',(-9.65,18.,10.8));
#1872 = LINE('',#1873,#1874);
#1873 = CARTESIAN_POINT('',(-9.65,21.,10.8));
#1874 = VECTOR('',#1875,1.);
#1875 = DIRECTION('',(0.,-1.,2.2E-16));
#1876 = ORIENTED_EDGE('',*,*,#1877,.T.);
#1877 = EDGE_CURVE('',#1870,#1870,#1878,.T.);
#1878 = CIRCLE('',#1879,3.65);
#1879 = AXIS2_PLACEMENT_3D('',#1880,#1881,#1882);
#1880 = CARTESIAN_POINT('',(-6.,18.,10.8));
#1881 = DIRECTION('',(0.,1.,-0.));
#1882 = DIRECTION('',(-1.,0.,0.));
#1883 = ORIENTED_EDGE('',*,*,#1869,.F.);
#1884 = ORIENTED_EDGE('',*,*,#1423,.F.);
#1885 = CYLINDRICAL_SURFACE('',#1886,3.65);
#1886 = AXIS2_PLACEMENT_3D('',#1887,#1888,#1889);
#1887 = CARTESIAN_POINT('',(-6.,21.,10.8));
#1888 = DIRECTION('',(0.,1.,-2.2E-16));
#1889 = DIRECTION('',(-1.,0.,0.));
#1890 = ADVANCED_FACE('',(#1891),#1910,.F.);
#1891 = FACE_BOUND('',#1892,.T.);
#1892 = EDGE_LOOP('',(#1893,#1901,#1902,#1903));
#1893 = ORIENTED_EDGE('',*,*,#1894,.F.);
#1894 = EDGE_CURVE('',#1496,#1895,#1897,.T.);
#1895 = VERTEX_POINT('',#1896);
#1896 = CARTESIAN_POINT('',(13.2,10.,-2.));
#1897 = LINE('',#1898,#1899);
#1898 = CARTESIAN_POINT('',(13.2,10.,-2.));
#1899 = VECTOR('',#1900,1.);
#1900 = DIRECTION('',(-0.707106781187,-0.707106781187,0.));
#1901 = ORIENTED_EDGE('',*,*,#1495,.T.);
#1902 = ORIENTED_EDGE('',*,*,#1894,.T.);
#1903 = ORIENTED_EDGE('',*,*,#1904,.F.);
#1904 = EDGE_CURVE('',#1895,#1895,#1905,.T.);
#1905 = CIRCLE('',#1906,3.5);
#1906 = AXIS2_PLACEMENT_3D('',#1907,#1908,#1909);
#1907 = CARTESIAN_POINT('',(13.2,6.5,-2.));
#1908 = DIRECTION('',(1.,0.,0.));
#1909 = DIRECTION('',(-0.,1.,0.));
#1910 = CONICAL_SURFACE('',#1911,3.5,0.785398163397);
#1911 = AXIS2_PLACEMENT_3D('',#1912,#1913,#1914);
#1912 = CARTESIAN_POINT('',(13.2,6.5,-2.));
#1913 = DIRECTION('',(1.,-0.,-0.));
#1914 = DIRECTION('',(0.,1.,0.));
#1915 = ADVANCED_FACE('',(#1916),#1935,.F.);
#1916 = FACE_BOUND('',#1917,.T.);
#1917 = EDGE_LOOP('',(#1918,#1926,#1927,#1928));
#1918 = ORIENTED_EDGE('',*,*,#1919,.F.);
#1919 = EDGE_CURVE('',#1507,#1920,#1922,.T.);
#1920 = VERTEX_POINT('',#1921);
#1921 = CARTESIAN_POINT('',(13.2,10.,-12.));
#1922 = LINE('',#1923,#1924);
#1923 = CARTESIAN_POINT('',(13.2,10.,-12.));
#1924 = VECTOR('',#1925,1.);
#1925 = DIRECTION('',(-0.707106781187,-0.707106781187,0.));
#1926 = ORIENTED_EDGE('',*,*,#1506,.T.);
#1927 = ORIENTED_EDGE('',*,*,#1919,.T.);
#1928 = ORIENTED_EDGE('',*,*,#1929,.F.);
#1929 = EDGE_CURVE('',#1920,#1920,#1930,.T.);
#1930 = CIRCLE('',#1931,3.5);
#1931 = AXIS2_PLACEMENT_3D('',#1932,#1933,#1934);
#1932 = CARTESIAN_POINT('',(13.2,6.5,-12.));
#1933 = DIRECTION('',(1.,0.,0.));
#1934 = DIRECTION('',(-0.,1.,0.));
#1935 = CONICAL_SURFACE('',#1936,3.5,0.785398163397);
#1936 = AXIS2_PLACEMENT_3D('',#1937,#1938,#1939);
#1937 = CARTESIAN_POINT('',(13.2,6.5,-12.));
#1938 = DIRECTION('',(1.,-0.,-0.));
#1939 = DIRECTION('',(0.,1.,0.));
#1940 = ADVANCED_FACE('',(#1941),#1957,.T.);
#1941 = FACE_BOUND('',#1942,.T.);
#1942 = EDGE_LOOP('',(#1943,#1949,#1950,#1956));
#1943 = ORIENTED_EDGE('',*,*,#1944,.T.);
#1944 = EDGE_CURVE('',#1798,#1557,#1945,.T.);
#1945 = LINE('',#1946,#1947);
#1946 = CARTESIAN_POINT('',(-10.2,13.225,17.725));
#1947 = VECTOR('',#1948,1.);
#1948 = DIRECTION('',(-4.23E-15,-0.707106781187,-0.707106781187));
#1949 = ORIENTED_EDGE('',*,*,#1556,.T.);
#1950 = ORIENTED_EDGE('',*,*,#1951,.F.);
#1951 = EDGE_CURVE('',#1806,#1549,#1952,.T.);
#1952 = LINE('',#1953,#1954);
#1953 = CARTESIAN_POINT('',(10.2,13.225,17.725));
#1954 = VECTOR('',#1955,1.);
#1955 = DIRECTION('',(-0.,-0.707106781187,-0.707106781187));
#1956 = ORIENTED_EDGE('',*,*,#1805,.F.);
#1957 = PLANE('',#1958);
#1958 = AXIS2_PLACEMENT_3D('',#1959,#1960,#1961);
#1959 = CARTESIAN_POINT('',(-10.5,13.15,17.65));
#1960 = DIRECTION('',(0.,-0.707106781187,0.707106781187));
#1961 = DIRECTION('',(1.,0.,0.));
#1962 = ADVANCED_FACE('',(#1963),#1982,.F.);
#1963 = FACE_BOUND('',#1964,.F.);
#1964 = EDGE_LOOP('',(#1965,#1973,#1974,#1975));
#1965 = ORIENTED_EDGE('',*,*,#1966,.F.);
#1966 = EDGE_CURVE('',#1577,#1967,#1969,.T.);
#1967 = VERTEX_POINT('',#1968);
#1968 = CARTESIAN_POINT('',(-4.35,18.,10.8));
#1969 = LINE('',#1970,#1971);
#1970 = CARTESIAN_POINT('',(-4.35,13.,10.8));
#1971 = VECTOR('',#1972,1.);
#1972 = DIRECTION('',(0.,1.,-2.2E-16));
#1973 = ORIENTED_EDGE('',*,*,#1576,.F.);
#1974 = ORIENTED_EDGE('',*,*,#1966,.T.);
#1975 = ORIENTED_EDGE('',*,*,#1976,.T.);
#1976 = EDGE_CURVE('',#1967,#1967,#1977,.T.);
#1977 = CIRCLE('',#1978,1.65);
#1978 = AXIS2_PLACEMENT_3D('',#1979,#1980,#1981);
#1979 = CARTESIAN_POINT('',(-6.,18.,10.8));
#1980 = DIRECTION('',(0.,-1.,2.2E-16));
#1981 = DIRECTION('',(1.,0.,0.));
#1982 = CYLINDRICAL_SURFACE('',#1983,1.65);
#1983 = AXIS2_PLACEMENT_3D('',#1984,#1985,#1986);
#1984 = CARTESIAN_POINT('',(-6.,13.,10.8));
#1985 = DIRECTION('',(0.,-1.,2.2E-16));
#1986 = DIRECTION('',(1.,0.,0.));
#1987 = ADVANCED_FACE('',(#1988),#2007,.F.);
#1988 = FACE_BOUND('',#1989,.F.);
#1989 = EDGE_LOOP('',(#1990,#1998,#1999,#2000));
#1990 = ORIENTED_EDGE('',*,*,#1991,.F.);
#1991 = EDGE_CURVE('',#1588,#1992,#1994,.T.);
#1992 = VERTEX_POINT('',#1993);
#1993 = CARTESIAN_POINT('',(7.65,18.,10.8));
#1994 = LINE('',#1995,#1996);
#1995 = CARTESIAN_POINT('',(7.65,13.,10.8));
#1996 = VECTOR('',#1997,1.);
#1997 = DIRECTION('',(0.,1.,-2.2E-16));
#1998 = ORIENTED_EDGE('',*,*,#1587,.F.);
#1999 = ORIENTED_EDGE('',*,*,#1991,.T.);
#2000 = ORIENTED_EDGE('',*,*,#2001,.T.);
#2001 = EDGE_CURVE('',#1992,#1992,#2002,.T.);
#2002 = CIRCLE('',#2003,1.65);
#2003 = AXIS2_PLACEMENT_3D('',#2004,#2005,#2006);
#2004 = CARTESIAN_POINT('',(6.,18.,10.8));
#2005 = DIRECTION('',(0.,-1.,2.2E-16));
#2006 = DIRECTION('',(1.,0.,0.));
#2007 = CYLINDRICAL_SURFACE('',#2008,1.65);
#2008 = AXIS2_PLACEMENT_3D('',#2009,#2010,#2011);
#2009 = CARTESIAN_POINT('',(6.,13.,10.8));
#2010 = DIRECTION('',(0.,-1.,2.2E-16));
#2011 = DIRECTION('',(1.,0.,0.));
#2012 = ADVANCED_FACE('',(#2013,#2024),#2027,.T.);
#2013 = FACE_BOUND('',#2014,.T.);
#2014 = EDGE_LOOP('',(#2015));
#2015 = ORIENTED_EDGE('',*,*,#2016,.T.);
#2016 = EDGE_CURVE('',#2017,#2017,#2019,.T.);
#2017 = VERTEX_POINT('',#2018);
#2018 = CARTESIAN_POINT('',(9.5,10.,-2.));
#2019 = CIRCLE('',#2020,3.5);
#2020 = AXIS2_PLACEMENT_3D('',#2021,#2022,#2023);
#2021 = CARTESIAN_POINT('',(9.5,6.5,-2.));
#2022 = DIRECTION('',(1.,0.,0.));
#2023 = DIRECTION('',(0.,1.,0.));
#2024 = FACE_BOUND('',#2025,.T.);
#2025 = EDGE_LOOP('',(#2026));
#2026 = ORIENTED_EDGE('',*,*,#1604,.F.);
#2027 = PLANE('',#2028);
#2028 = AXIS2_PLACEMENT_3D('',#2029,#2030,#2031);
#2029 = CARTESIAN_POINT('',(9.5,6.5,-7.));
#2030 = DIRECTION('',(1.,0.,0.));
#2031 = DIRECTION('',(0.,0.,1.));
#2032 = ADVANCED_FACE('',(#2033,#2044),#2047,.T.);
#2033 = FACE_BOUND('',#2034,.T.);
#2034 = EDGE_LOOP('',(#2035));
#2035 = ORIENTED_EDGE('',*,*,#2036,.T.);
#2036 = EDGE_CURVE('',#2037,#2037,#2039,.T.);
#2037 = VERTEX_POINT('',#2038);
#2038 = CARTESIAN_POINT('',(9.5,10.,-12.));
#2039 = CIRCLE('',#2040,3.5);
#2040 = AXIS2_PLACEMENT_3D('',#2041,#2042,#2043);
#2041 = CARTESIAN_POINT('',(9.5,6.5,-12.));
#2042 = DIRECTION('',(1.,0.,0.));
#2043 = DIRECTION('',(0.,1.,0.));
#2044 = FACE_BOUND('',#2045,.T.);
#2045 = EDGE_LOOP('',(#2046));
#2046 = ORIENTED_EDGE('',*,*,#1629,.F.);
#2047 = PLANE('',#2048);
#2048 = AXIS2_PLACEMENT_3D('',#2049,#2050,#2051);
#2049 = CARTESIAN_POINT('',(9.5,6.5,-7.));
#2050 = DIRECTION('',(1.,0.,0.));
#2051 = DIRECTION('',(0.,0.,1.));
#2052 = ADVANCED_FACE('',(#2053),#2063,.T.);
#2053 = FACE_BOUND('',#2054,.T.);
#2054 = EDGE_LOOP('',(#2055,#2061,#2062));
#2055 = ORIENTED_EDGE('',*,*,#2056,.F.);
#2056 = EDGE_CURVE('',#1806,#1657,#2057,.T.);
#2057 = LINE('',#2058,#2059);
#2058 = CARTESIAN_POINT('',(10.275,13.3,17.725));
#2059 = VECTOR('',#2060,1.);
#2060 = DIRECTION('',(0.707106781187,-4.04E-15,-0.707106781187));
#2061 = ORIENTED_EDGE('',*,*,#1951,.T.);
#2062 = ORIENTED_EDGE('',*,*,#1664,.F.);
#2063 = PLANE('',#2064);
#2064 = AXIS2_PLACEMENT_3D('',#2065,#2066,#2067);
#2065 = CARTESIAN_POINT('',(10.2,13.3,17.8));
#2066 = DIRECTION('',(0.57735026919,-0.57735026919,0.57735026919));
#2067 = DIRECTION('',(-0.707106781187,-0.707106781187,5.551115123126E-17
    ));
#2068 = ADVANCED_FACE('',(#2069),#2075,.F.);
#2069 = FACE_BOUND('',#2070,.T.);
#2070 = EDGE_LOOP('',(#2071,#2072,#2073,#2074));
#2071 = ORIENTED_EDGE('',*,*,#2056,.T.);
#2072 = ORIENTED_EDGE('',*,*,#1713,.T.);
#2073 = ORIENTED_EDGE('',*,*,#1781,.F.);
#2074 = ORIENTED_EDGE('',*,*,#1813,.F.);
#2075 = PLANE('',#2076);
#2076 = AXIS2_PLACEMENT_3D('',#2077,#2078,#2079);
#2077 = CARTESIAN_POINT('',(10.35,13.,17.65));
#2078 = DIRECTION('',(-0.707106781187,0.,-0.707106781187));
#2079 = DIRECTION('',(-1.1E-16,-1.,1.1E-16));
#2080 = ADVANCED_FACE('',(#2081),#2091,.F.);
#2081 = FACE_BOUND('',#2082,.F.);
#2082 = EDGE_LOOP('',(#2083,#2089,#2090));
#2083 = ORIENTED_EDGE('',*,*,#2084,.F.);
#2084 = EDGE_CURVE('',#1798,#1742,#2085,.T.);
#2085 = LINE('',#2086,#2087);
#2086 = CARTESIAN_POINT('',(-10.275,13.3,17.725));
#2087 = VECTOR('',#2088,1.);
#2088 = DIRECTION('',(-0.707106781187,-4.13E-15,-0.707106781187));
#2089 = ORIENTED_EDGE('',*,*,#1944,.T.);
#2090 = ORIENTED_EDGE('',*,*,#1741,.F.);
#2091 = PLANE('',#2092);
#2092 = AXIS2_PLACEMENT_3D('',#2093,#2094,#2095);
#2093 = CARTESIAN_POINT('',(-10.2,13.3,17.8));
#2094 = DIRECTION('',(0.57735026919,0.57735026919,-0.57735026919));
#2095 = DIRECTION('',(0.707106781187,-0.707106781187,8.326672684689E-17)
  );
#2096 = ADVANCED_FACE('',(#2097),#2103,.F.);
#2097 = FACE_BOUND('',#2098,.F.);
#2098 = EDGE_LOOP('',(#2099,#2100,#2101,#2102));
#2099 = ORIENTED_EDGE('',*,*,#2084,.T.);
#2100 = ORIENTED_EDGE('',*,*,#1767,.T.);
#2101 = ORIENTED_EDGE('',*,*,#1830,.T.);
#2102 = ORIENTED_EDGE('',*,*,#1797,.F.);
#2103 = PLANE('',#2104);
#2104 = AXIS2_PLACEMENT_3D('',#2105,#2106,#2107);
#2105 = CARTESIAN_POINT('',(-10.35,13.,17.65));
#2106 = DIRECTION('',(0.707106781187,0.,-0.707106781187));
#2107 = DIRECTION('',(-1.1E-16,1.,-1.1E-16));
#2108 = ADVANCED_FACE('',(#2109,#2112),#2115,.T.);
#2109 = FACE_BOUND('',#2110,.T.);
#2110 = EDGE_LOOP('',(#2111));
#2111 = ORIENTED_EDGE('',*,*,#1852,.T.);
#2112 = FACE_BOUND('',#2113,.T.);
#2113 = EDGE_LOOP('',(#2114));
#2114 = ORIENTED_EDGE('',*,*,#2001,.T.);
#2115 = PLANE('',#2116);
#2116 = AXIS2_PLACEMENT_3D('',#2117,#2118,#2119);
#2117 = CARTESIAN_POINT('',(-1.9E-16,18.,10.8));
#2118 = DIRECTION('',(0.,1.,-5.6E-16));
#2119 = DIRECTION('',(0.,5.6E-16,1.));
#2120 = ADVANCED_FACE('',(#2121,#2124),#2127,.T.);
#2121 = FACE_BOUND('',#2122,.T.);
#2122 = EDGE_LOOP('',(#2123));
#2123 = ORIENTED_EDGE('',*,*,#1877,.T.);
#2124 = FACE_BOUND('',#2125,.T.);
#2125 = EDGE_LOOP('',(#2126));
#2126 = ORIENTED_EDGE('',*,*,#1976,.T.);
#2127 = PLANE('',#2128);
#2128 = AXIS2_PLACEMENT_3D('',#2129,#2130,#2131);
#2129 = CARTESIAN_POINT('',(-1.9E-16,18.,10.8));
#2130 = DIRECTION('',(0.,1.,-5.6E-16));
#2131 = DIRECTION('',(0.,5.6E-16,1.));
#2132 = ADVANCED_FACE('',(#2133),#2144,.F.);
#2133 = FACE_BOUND('',#2134,.F.);
#2134 = EDGE_LOOP('',(#2135,#2141,#2142,#2143));
#2135 = ORIENTED_EDGE('',*,*,#2136,.T.);
#2136 = EDGE_CURVE('',#1895,#2017,#2137,.T.);
#2137 = LINE('',#2138,#2139);
#2138 = CARTESIAN_POINT('',(13.5,10.,-2.));
#2139 = VECTOR('',#2140,1.);
#2140 = DIRECTION('',(-1.,-0.,-0.));
#2141 = ORIENTED_EDGE('',*,*,#2016,.T.);
#2142 = ORIENTED_EDGE('',*,*,#2136,.F.);
#2143 = ORIENTED_EDGE('',*,*,#1904,.F.);
#2144 = CYLINDRICAL_SURFACE('',#2145,3.5);
#2145 = AXIS2_PLACEMENT_3D('',#2146,#2147,#2148);
#2146 = CARTESIAN_POINT('',(13.5,6.5,-2.));
#2147 = DIRECTION('',(1.,0.,0.));
#2148 = DIRECTION('',(0.,1.,0.));
#2149 = ADVANCED_FACE('',(#2150),#2161,.F.);
#2150 = FACE_BOUND('',#2151,.F.);
#2151 = EDGE_LOOP('',(#2152,#2158,#2159,#2160));
#2152 = ORIENTED_EDGE('',*,*,#2153,.T.);
#2153 = EDGE_CURVE('',#1920,#2037,#2154,.T.);
#2154 = LINE('',#2155,#2156);
#2155 = CARTESIAN_POINT('',(13.5,10.,-12.));
#2156 = VECTOR('',#2157,1.);
#2157 = DIRECTION('',(-1.,-0.,-0.));
#2158 = ORIENTED_EDGE('',*,*,#2036,.T.);
#2159 = ORIENTED_EDGE('',*,*,#2153,.F.);
#2160 = ORIENTED_EDGE('',*,*,#1929,.F.);
#2161 = CYLINDRICAL_SURFACE('',#2162,3.5);
#2162 = AXIS2_PLACEMENT_3D('',#2163,#2164,#2165);
#2163 = CARTESIAN_POINT('',(13.5,6.5,-12.));
#2164 = DIRECTION('',(1.,0.,0.));
#2165 = DIRECTION('',(0.,1.,0.));
#2166 = ( GEOMETRIC_REPRESENTATION_CONTEXT(3) 
GLOBAL_UNCERTAINTY_ASSIGNED_CONTEXT((#2170)) 
GLOBAL_UNIT_ASSIGNED_CONTEXT((#2167,#2168,#2169)) REPRESENTATION_CONTEXT
('Context #1','3D Context with UNIT and UNCERTAINTY') );
#2167 = ( LENGTH_UNIT() NAMED_UNIT(*) SI_UNIT(.MILLI.,.METRE.) );
#2168 = ( NAMED_UNIT(*) PLANE_ANGLE_UNIT() SI_UNIT($,.RADIAN.) );
#2169 = ( NAMED_UNIT(*) SI_UNIT($,.STERADIAN.) SOLID_ANGLE_UNIT() );
#2170 = UNCERTAINTY_MEASURE_WITH_UNIT(LENGTH_MEASURE(2.E-07),#2167,
  'distance_accuracy_value','confusion accuracy');
#2171 = CONTEXT_DEPENDENT_SHAPE_REPRESENTATION(#2172,#2174);
#2172 = ( REPRESENTATION_RELATIONSHIP('','',#32,#10) 
REPRESENTATION_RELATIONSHIP_WITH_TRANSFORMATION(#2173) 
SHAPE_REPRESENTATION_RELATIONSHIP() );
#2173 = ITEM_DEFINED_TRANSFORMATION('','',#11,#15);
#2174 = PRODUCT_DEFINITION_SHAPE('Placement','Placement of an item',
  #2175);
#2175 = NEXT_ASSEMBLY_USAGE_OCCURRENCE('1','Body001','',#5,#27,$);
#2176 = PRODUCT_RELATED_PRODUCT_CATEGORY('part',$,(#29));
#2177 = MECHANICAL_DESIGN_GEOMETRIC_PRESENTATION_REPRESENTATION('',(
    #2178),#2166);
#2178 = STYLED_ITEM('color',(#2179),#33);
#2179 = PRESENTATION_STYLE_ASSIGNMENT((#2180,#2186));
#2180 = SURFACE_STYLE_USAGE(.BOTH.,#2181);
#2181 = SURFACE_SIDE_STYLE('',(#2182));
#2182 = SURFACE_STYLE_FILL_AREA(#2183);
#2183 = FILL_AREA_STYLE('',(#2184));
#2184 = FILL_AREA_STYLE_COLOUR('',#2185);
#2185 = COLOUR_RGB('',0.447058818107,0.474509808674,0.501960817233);
#2186 = CURVE_STYLE('',#2187,POSITIVE_LENGTH_MEASURE(0.1),#2188);
#2187 = DRAUGHTING_PRE_DEFINED_CURVE_FONT('continuous');
#2188 = COLOUR_RGB('',9.803921802644E-02,9.803921802644E-02,
  9.803921802644E-02);
ENDSEC;
END-ISO-10303-21;
